<svg width="10" height="13" viewBox="0 0 10 13" fill="none" xmlns="http://www.w3.org/2000/svg">
<path d="M4.96945 0C2.22204 0 0 2.09022 0 4.6742C0 7.45848 3.13788 11.2974 4.42985 12.7596C4.71388 13.0801 5.23203 13.0801 5.51607 12.7596C6.80102 11.2974 9.9388 7.45848 9.9388 4.6742C9.9388 2.09022 7.71676 0 4.96945 0ZM4.96945 6.34377C4.49871 6.34377 4.0473 6.16749 3.71446 5.85501C3.38162 5.54153 3.1946 5.11688 3.1946 4.6742C3.1946 4.23152 3.38162 3.80686 3.71446 3.49338C4.0473 3.1809 4.49871 3.00462 4.96945 3.00462C5.4401 3.00462 5.8915 3.1809 6.22434 3.49338C6.55718 3.80686 6.7442 4.23152 6.7442 4.6742C6.7442 5.11688 6.55718 5.54153 6.22434 5.85501C5.8915 6.16749 5.4401 6.34377 4.96945 6.34377Z" fill="white"/>
</svg>
