<svg width="76" height="9" viewBox="0 0 76 9" fill="none" xmlns="http://www.w3.org/2000/svg">
<path d="M10.8936 0.420064L8.74372 8.88171H7.41054L5.45282 1.9684L3.49507 8.88171H2.16189L0 0.420064L1.21306 0.420064L2.83451 7.60949L4.84028 0.420064L6.05333 0.420064L8.05912 7.58544L9.69255 0.420064H10.8936ZM16.2223 0.336063C17.2552 0.336063 18.108 0.592118 18.7805 1.10422C19.4531 1.60831 19.9176 2.30043 20.1738 3.1806H19.0208C18.8046 2.6205 18.4563 2.17644 17.9759 1.84838C17.4954 1.51231 16.9069 1.34425 16.2103 1.34425C15.6578 1.34425 15.1614 1.4803 14.721 1.75235C14.2886 2.0164 13.9443 2.40045 13.6881 2.90455C13.4399 3.40064 13.3157 3.98477 13.3157 4.6569C13.3157 5.32103 13.4399 5.90113 13.6881 6.39722C13.9443 6.89332 14.2886 7.27743 14.721 7.54948C15.1614 7.81353 15.6578 7.94556 16.2103 7.94556C16.9069 7.94556 17.4954 7.78152 17.9759 7.45346C18.4563 7.11739 18.8046 6.66931 19.0208 6.1092H20.1738C19.9176 6.98937 19.4531 7.68546 18.7805 8.19756C18.108 8.70165 17.2552 8.95374 16.2223 8.95374C15.4296 8.95374 14.729 8.77367 14.1205 8.4136C13.5119 8.04553 13.0355 7.53745 12.6912 6.88932C12.3549 6.2332 12.1868 5.48906 12.1868 4.6569C12.1868 3.81674 12.3549 3.06858 12.6912 2.41245C13.0355 1.75632 13.5119 1.24824 14.1205 0.888171C14.729 0.5201 15.4296 0.336063 16.2223 0.336063ZM28.9505 0.336063C29.9834 0.336063 30.8362 0.592118 31.5088 1.10422C32.1814 1.60831 32.6458 2.30043 32.902 3.1806H31.749C31.5328 2.6205 31.1845 2.17644 30.7041 1.84838C30.2237 1.51231 29.6351 1.34425 28.9385 1.34425C28.386 1.34425 27.8896 1.4803 27.4492 1.75235C27.0168 2.0164 26.6725 2.40045 26.4163 2.90455C26.1681 3.40064 26.044 3.98477 26.044 4.6569C26.044 5.32103 26.1681 5.90113 26.4163 6.39722C26.6725 6.89332 27.0168 7.27743 27.4492 7.54948C27.8896 7.81353 28.386 7.94556 28.9385 7.94556C29.6351 7.94556 30.2237 7.78152 30.7041 7.45346C31.1845 7.11739 31.5328 6.66931 31.749 6.1092H32.902C32.6458 6.98937 32.1814 7.68546 31.5088 8.19756C30.8362 8.70165 29.9834 8.95374 28.9505 8.95374C28.1578 8.95374 27.4572 8.77367 26.8487 8.4136C26.2401 8.04553 25.7637 7.53745 25.4194 6.88932C25.0831 6.2332 24.915 5.48906 24.915 4.6569C24.915 3.81674 25.0831 3.06858 25.4194 2.41245C25.7637 1.75632 26.2401 1.24824 26.8487 0.888171C27.4572 0.5201 28.1578 0.336063 28.9505 0.336063ZM38.1356 2.18444C38.9043 2.18444 39.5248 2.43245 39.9973 2.92854C40.4697 3.41663 40.7059 4.12479 40.7059 5.05297V8.88171H39.6129V5.149C39.6129 4.49287 39.4448 3.98875 39.1085 3.63668C38.7722 3.28462 38.3158 3.10863 37.7393 3.10863C37.1388 3.10863 36.6583 3.30462 36.298 3.69669C35.9377 4.08077 35.7575 4.64489 35.7575 5.38903V8.88171H34.6646V0L35.7575 0V3.85273C35.9257 3.31663 36.2219 2.90459 36.6463 2.61653C37.0787 2.32847 37.5751 2.18444 38.1356 2.18444ZM45.385 2.20843C46.0256 2.20843 46.5661 2.36844 47.0065 2.6885C47.4548 3.00857 47.7671 3.43664 47.9433 3.97275V2.29243H49.0362V8.88171H47.9433V7.20139C47.7671 7.7375 47.4548 8.16558 47.0065 8.48564C46.5661 8.8057 46.0256 8.96571 45.385 8.96571C44.8005 8.96571 44.28 8.82973 43.8236 8.55767C43.3672 8.28562 43.0069 7.89754 42.7427 7.39345C42.4865 6.88135 42.3583 6.28119 42.3583 5.59305C42.3583 4.90492 42.4865 4.30482 42.7427 3.79272C43.0069 3.28062 43.3672 2.88858 43.8236 2.61653C44.28 2.34448 44.8005 2.20843 45.385 2.20843ZM45.6973 3.1806C45.0247 3.1806 44.4842 3.39665 44.0759 3.82874C43.6755 4.25282 43.4753 4.84091 43.4753 5.59305C43.4753 6.3452 43.6755 6.93731 44.0759 7.3694C44.4842 7.79348 45.0247 8.00557 45.6973 8.00557C46.1297 8.00557 46.514 7.9055 46.8503 7.70546C47.1946 7.50542 47.4628 7.2254 47.655 6.86533C47.8472 6.49726 47.9433 6.07315 47.9433 5.59305C47.9433 5.11296 47.8472 4.68891 47.655 4.32084C47.4628 3.95277 47.1946 3.67269 46.8503 3.48065C46.514 3.28061 46.1297 3.1806 45.6973 3.1806ZM54.5461 2.18444C55.3148 2.18444 55.9353 2.43245 56.4077 2.92854C56.8802 3.41663 57.1163 4.12479 57.1163 5.05297V8.88171H56.0234V5.149C56.0234 4.49287 55.8553 3.98875 55.519 3.63668C55.1827 3.28462 54.7263 3.10863 54.1497 3.10863C53.5492 3.10863 53.0688 3.30462 52.7085 3.69669C52.3482 4.08077 52.168 4.64489 52.168 5.38903V8.88171H51.075V2.29243H52.168V3.85273C52.3361 3.31663 52.6324 2.90459 53.0568 2.61653C53.4892 2.32847 53.9856 2.18444 54.5461 2.18444ZM62.5642 2.18444C63.3329 2.18444 63.9534 2.43245 64.4258 2.92854C64.8982 3.41663 65.1344 4.12479 65.1344 5.05297V8.88171H64.0415V5.149C64.0415 4.49287 63.8733 3.98875 63.537 3.63668C63.2007 3.28462 62.7443 3.10863 62.1678 3.10863C61.5673 3.10863 61.0868 3.30462 60.7265 3.69669C60.3662 4.08077 60.1861 4.64489 60.1861 5.38903V8.88171H59.0931V2.29243H60.1861V3.85273C60.3542 3.31663 60.6505 2.90459 61.0749 2.61653C61.5072 2.32847 62.0037 2.18444 62.5642 2.18444ZM73.1765 5.22103C73.1765 5.45308 73.1605 5.65309 73.1285 5.82112H67.8558C67.8799 6.57327 68.092 7.13739 68.4924 7.51347C68.9007 7.88954 69.3972 8.07754 69.9817 8.07754C70.5102 8.07754 70.9506 7.94552 71.3029 7.68147C71.6632 7.40942 71.8834 7.04933 71.9635 6.60124H73.1285C73.0484 7.05733 72.8682 7.46541 72.588 7.82548C72.3158 8.18555 71.9595 8.46563 71.5191 8.66566C71.0787 8.8657 70.5822 8.96571 70.0297 8.96571C69.3972 8.96571 68.8367 8.82973 68.3483 8.55767C67.8598 8.28562 67.4755 7.89754 67.1952 7.39345C66.923 6.88135 66.7869 6.28119 66.7869 5.59305C66.7869 4.90492 66.923 4.30482 67.1952 3.79272C67.4755 3.28062 67.8598 2.88858 68.3483 2.61653C68.8367 2.34448 69.3972 2.20843 70.0297 2.20843C70.6703 2.20843 71.2268 2.34448 71.6992 2.61653C72.1796 2.88858 72.544 3.25263 72.7922 3.70872C73.0484 4.16481 73.1765 4.66893 73.1765 5.22103ZM72.0715 5.29301C72.0956 4.80491 72.0155 4.39684 71.8313 4.06877C71.6472 3.74071 71.395 3.49667 71.0747 3.33664C70.7544 3.17661 70.4061 3.0966 70.0297 3.0966C69.4292 3.0966 68.9248 3.28466 68.5164 3.66074C68.1081 4.02881 67.8879 4.57287 67.8558 5.29301H72.0715ZM76 0V8.88171H74.907V0L76 0Z" fill="#363B64"/>
</svg>
