<svg width="20" height="20" viewBox="0 0 20 20" fill="none" xmlns="http://www.w3.org/2000/svg">
<g clip-path="url(#clip0_53_6380)">
<path d="M10 12.5001C9.77901 12.5001 9.56705 12.4123 9.41077 12.256C9.25449 12.0998 9.16669 11.8878 9.16669 11.6668C9.19763 11.1223 9.3633 10.5939 9.64881 10.1292C9.93432 9.66451 10.3308 9.27797 10.8025 9.00428C11.1108 8.83533 11.3575 8.57297 11.5073 8.25492C11.657 7.93687 11.702 7.57953 11.6359 7.23428C11.5717 6.90452 11.4105 6.60144 11.1729 6.36389C10.9354 6.12634 10.6323 5.96514 10.3025 5.90095C10.0618 5.85652 9.81424 5.86566 9.57745 5.92773C9.34066 5.98979 9.12044 6.10326 8.93246 6.26005C8.74448 6.41685 8.59334 6.61313 8.4898 6.83495C8.38625 7.05676 8.33284 7.29866 8.33336 7.54345C8.33336 7.76446 8.24556 7.97642 8.08928 8.1327C7.933 8.28899 7.72104 8.37678 7.50002 8.37678C7.27901 8.37678 7.06705 8.28899 6.91077 8.1327C6.75449 7.97642 6.66669 7.76446 6.66669 7.54345C6.6666 7.05658 6.77318 6.5756 6.97891 6.13433C7.18464 5.69306 7.48454 5.30222 7.85752 4.98928C8.21398 4.69129 8.62881 4.4711 9.07537 4.34285C9.52193 4.2146 9.99037 4.18113 10.4506 4.24457C10.9109 4.30801 11.3528 4.46697 11.748 4.71125C12.1432 4.95553 12.483 5.27973 12.7456 5.66305C13.0081 6.04637 13.1876 6.48034 13.2726 6.93712C13.3576 7.3939 13.3461 7.8634 13.2389 8.31549C13.1318 8.76757 12.9313 9.19227 12.6503 9.56231C12.3694 9.93236 12.0142 10.2396 11.6075 10.4643C11.3968 10.5941 11.2179 10.7695 11.0839 10.9776C10.9499 11.1857 10.8643 11.4212 10.8334 11.6668C10.8334 11.8878 10.7456 12.0998 10.5893 12.256C10.433 12.4123 10.221 12.5001 10 12.5001ZM10.6609 19.8001C12.4609 19.0768 18.3334 16.2326 18.3334 10.0359V5.72678C18.3343 4.85096 18.0588 3.99718 17.5462 3.28705C17.0336 2.57692 16.3099 2.04665 15.4784 1.77178L10.2625 0.0426169C10.0922 -0.0148567 9.9078 -0.0148567 9.73752 0.0426169L4.52169 1.77178C3.69011 2.04665 2.96648 2.57692 2.45386 3.28705C1.94123 3.99718 1.66577 4.85096 1.66669 5.72678V10.0359C1.66669 15.5043 7.50419 18.8493 9.29419 19.7443C9.51059 19.8747 9.75035 19.9615 10 20.0001C10.2308 19.9751 10.4549 19.9073 10.6609 19.8001ZM14.9534 3.35345C15.4521 3.5188 15.8861 3.8371 16.1937 4.26314C16.5013 4.68919 16.6668 5.20132 16.6667 5.72678V10.0359C16.6667 15.1884 11.5942 17.6285 10.0392 18.2535C8.46586 17.4668 3.33336 14.5493 3.33336 10.0359V5.72678C3.33329 5.20132 3.49879 4.68919 3.80636 4.26314C4.11393 3.8371 4.54792 3.5188 5.04669 3.35345L10 1.71178L14.9534 3.35345ZM10 14.1668C9.83521 14.1668 9.67409 14.2157 9.53705 14.3072C9.40001 14.3988 9.2932 14.5289 9.23012 14.6812C9.16705 14.8335 9.15055 15.001 9.1827 15.1627C9.21486 15.3243 9.29422 15.4728 9.41077 15.5894C9.52731 15.7059 9.6758 15.7853 9.83745 15.8174C9.9991 15.8496 10.1667 15.8331 10.3189 15.77C10.4712 15.7069 10.6013 15.6001 10.6929 15.4631C10.7845 15.3261 10.8334 15.1649 10.8334 15.0001C10.8334 14.7791 10.7456 14.5671 10.5893 14.4109C10.433 14.2546 10.221 14.1668 10 14.1668Z" fill="#6F9DF5"/>
</g>
<defs>
<clipPath id="clip0_53_6380">
<rect width="20" height="20" fill="white"/>
</clipPath>
</defs>
</svg>
