<svg width="295" height="52" viewBox="0 0 295 52" fill="none" xmlns="http://www.w3.org/2000/svg">
<rect x="0.5" y="0.5" width="76" height="51" rx="14.5" fill="white"/>
<rect x="0.5" y="0.5" width="76" height="51" rx="14.5" stroke="#E5E8EC"/>
<path d="M49.55 26.0002C49.55 31.5157 45.509 36.0872 40.2266 36.916V29.1943H42.8013L43.2912 26.0002H40.2266V23.9275C40.2266 23.0534 40.6548 22.2018 42.0274 22.2018H43.4207V19.4824C43.4207 19.4824 42.156 19.2666 40.947 19.2666C38.4232 19.2666 36.7735 20.7963 36.7735 23.5657V26.0002H33.9678V29.1943H36.7735V36.916C31.491 36.0872 27.45 31.5157 27.45 26.0002C27.45 19.8977 32.3975 14.9502 38.5 14.9502C44.6025 14.9502 49.55 19.8977 49.55 26.0002Z" fill="#1877F2"/>
<path d="M42.8013 29.1943L43.2912 26.0002H40.2266V23.9274C40.2266 23.0536 40.6547 22.2018 42.0273 22.2018H43.4207V19.4824C43.4207 19.4824 42.1562 19.2666 40.9472 19.2666C38.4231 19.2666 36.7734 20.7963 36.7734 23.5657V26.0002H33.9678V29.1943H36.7734V36.9159C37.336 37.0042 37.9126 37.0502 38.5 37.0502C39.0874 37.0502 39.664 37.0042 40.2266 36.9159V29.1943H42.8013Z" fill="white"/>
<rect x="109.5" y="0.5" width="76" height="51" rx="14.5" fill="white"/>
<rect x="109.5" y="0.5" width="76" height="51" rx="14.5" stroke="#E5E8EC"/>
<path d="M157.716 24.079L148.701 24.0786C148.303 24.0786 147.98 24.4012 147.98 24.7993V27.679C147.98 28.0769 148.303 28.3996 148.701 28.3996H153.777C153.222 29.8422 152.184 31.0503 150.86 31.818L153.025 35.565C156.497 33.5569 158.55 30.0334 158.55 26.0892C158.55 25.5276 158.509 25.1261 158.426 24.6741C158.363 24.3306 158.065 24.079 157.716 24.079Z" fill="#167EE6"/>
<path d="M147.5 32.7262C145.016 32.7262 142.847 31.3689 141.682 29.3604L137.935 31.52C139.842 34.8248 143.414 37.0502 147.5 37.0502C149.504 37.0502 151.396 36.5105 153.025 35.57V35.5648L150.86 31.8178C149.87 32.392 148.725 32.7262 147.5 32.7262Z" fill="#12B347"/>
<path d="M153.025 35.5701V35.5649L150.86 31.8179C149.87 32.3921 148.725 32.7263 147.5 32.7263V37.0503C149.504 37.0503 151.396 36.5106 153.025 35.5701Z" fill="#0F993E"/>
<path d="M140.774 26.0003C140.774 24.7758 141.108 23.6302 141.682 22.6401L137.935 20.4805C136.99 22.1046 136.45 23.9908 136.45 26.0003C136.45 28.0099 136.99 29.8961 137.935 31.5202L141.682 29.3605C141.108 28.3705 140.774 27.2249 140.774 26.0003Z" fill="#FFD500"/>
<path d="M147.5 19.2741C149.12 19.2741 150.608 19.8497 151.77 20.8073C152.057 21.0434 152.474 21.0264 152.736 20.7637L154.777 18.7234C155.075 18.4254 155.054 17.9376 154.735 17.6614C152.788 15.972 150.254 14.9502 147.5 14.9502C143.414 14.9502 139.842 17.1756 137.935 20.4803L141.682 22.64C142.847 20.6314 145.016 19.2741 147.5 19.2741Z" fill="#FF4B26"/>
<path d="M151.77 20.8073C152.057 21.0434 152.474 21.0264 152.736 20.7637L154.777 18.7234C155.075 18.4254 155.054 17.9376 154.735 17.6614C152.788 15.972 150.254 14.9502 147.5 14.9502V19.2741C149.12 19.2741 150.608 19.8497 151.77 20.8073Z" fill="#D93F21"/>
<rect x="218.5" y="0.5" width="76" height="51" rx="14.5" fill="white"/>
<rect x="218.5" y="0.5" width="76" height="51" rx="14.5" stroke="#E5E8EC"/>
<path d="M260.753 14.9502H260.91C261.036 16.5087 260.442 17.6733 259.719 18.5166C259.009 19.3541 258.038 20.1664 256.467 20.0431C256.362 18.5069 256.958 17.4287 257.68 16.5873C258.349 15.8032 259.577 15.1055 260.753 14.9502ZM265.509 31.1722V31.2159C265.068 32.5531 264.438 33.6992 263.669 34.7628C262.968 35.7284 262.108 37.0279 260.573 37.0279C259.246 37.0279 258.365 36.1749 257.005 36.1516C255.567 36.1283 254.776 36.8648 253.461 37.0502H253.013C252.047 36.9104 251.268 36.1457 250.7 35.4567C249.026 33.4207 247.733 30.7908 247.492 27.4253V26.4364C247.594 24.0278 248.764 22.0694 250.32 21.1203C251.141 20.6157 252.269 20.1858 253.526 20.3779C254.065 20.4614 254.615 20.6458 255.097 20.8282C255.554 21.0038 256.126 21.3154 256.667 21.2989C257.034 21.2882 257.399 21.097 257.769 20.9621C258.852 20.571 259.914 20.1227 261.313 20.3333C262.995 20.5875 264.188 21.3348 264.926 22.4877C263.503 23.3931 262.379 24.7575 262.571 27.0876C262.741 29.2041 263.972 30.4424 265.509 31.1722Z" fill="black"/>
</svg>
