<svg width="17" height="16" viewBox="0 0 17 16" fill="none" xmlns="http://www.w3.org/2000/svg">
<path d="M8.50001 1.33333C5.75876 1.33333 3.54167 3.42 3.54167 6C3.54167 8.77999 6.67251 12.6133 7.96167 14.0733C8.24501 14.3933 8.76209 14.3933 9.04542 14.0733C10.3275 12.6133 13.4583 8.77999 13.4583 6C13.4583 3.42 11.2413 1.33333 8.50001 1.33333ZM8.50001 7.66666C8.03035 7.66666 7.57993 7.49107 7.24784 7.17851C6.91574 6.86595 6.72917 6.44202 6.72917 6C6.72917 5.55797 6.91574 5.13404 7.24784 4.82148C7.57993 4.50892 8.03035 4.33333 8.50001 4.33333C8.96966 4.33333 9.42008 4.50892 9.75217 4.82148C10.0843 5.13404 10.2708 5.55797 10.2708 6C10.2708 6.44202 10.0843 6.86595 9.75217 7.17851C9.42008 7.49107 8.96966 7.66666 8.50001 7.66666Z" fill="white"/>
</svg>
