<svg width="22" height="11" viewBox="0 0 22 11" fill="none" xmlns="http://www.w3.org/2000/svg">
<path d="M0 9.41696C1.63585 8.32096 2.9439 7.23423 3.92521 6.15781C4.90651 5.07108 5.39717 4.0616 5.39717 3.12939C5.39717 2.55255 5.24772 2.09108 4.94982 1.74498C4.66121 1.3896 4.19013 1.21139 3.53558 1.21139C2.86248 1.21139 2.35223 1.42771 2.00589 1.86034C1.65954 2.2837 1.46679 2.86982 1.42865 3.61972H0.129855C0.196856 2.48561 0.548356 1.61513 1.18332 1.00945C1.81828 0.394498 2.6357 0.08651 3.63659 0.08651C4.58903 0.08651 5.3446 0.340943 5.90225 0.850829C6.4599 1.36072 6.73926 2.0818 6.73926 3.01402C6.73926 3.78348 6.48878 4.56632 5.98885 5.36463C5.4982 6.15264 4.87767 6.88814 4.12726 7.57108C3.38612 8.24371 2.62127 8.81639 1.83272 9.28713H6.999V10.3687H0L0 9.41696ZM14.1475 2.97077C14.0712 2.36508 13.864 1.89843 13.527 1.57189C13.2002 1.23506 12.7436 1.06717 12.156 1.06717C11.3386 1.06717 10.7181 1.38444 10.2944 2.01897C9.88109 2.65349 9.67388 3.65778 9.67388 5.03292L9.68832 5.56651C9.83263 4.98967 10.1645 4.53339 10.6841 4.19655C11.2036 3.85045 11.8148 3.67737 12.5168 3.67737C13.5269 3.67737 14.3165 3.98023 14.8835 4.58591C15.4607 5.1916 15.7493 6.03727 15.7493 7.124C15.7493 7.75853 15.6246 8.33536 15.3741 8.85452C15.1247 9.3644 14.7392 9.77232 14.2196 10.0803C13.7104 10.378 13.0755 10.5274 12.3148 10.5274C10.8624 10.5274 9.86151 10.071 9.31313 9.15737C8.77506 8.24369 8.50497 7.00348 8.50497 5.43674C8.50497 3.62896 8.79362 2.27339 9.37086 1.37001C9.9584 0.45634 10.9108 0 12.2282 0C13.2002 0 13.9455 0.274035 14.465 0.822034C14.9948 1.37003 15.3071 2.08593 15.403 2.97077H14.1475ZM9.83265 6.90766C9.83265 7.60914 10.0347 8.20045 10.4387 8.6815C10.8531 9.15224 11.4685 9.3881 12.2859 9.3881C12.96 9.3881 13.4981 9.19138 13.9022 8.79687C14.3062 8.39308 14.5083 7.83066 14.5083 7.1096C14.5083 6.33087 14.3062 5.73956 13.9022 5.33577C13.4981 4.92271 12.9404 4.71568 12.2282 4.71568C11.8241 4.71568 11.4396 4.79703 11.0737 4.96081C10.7088 5.12459 10.4099 5.3739 10.179 5.71073C9.94809 6.03727 9.83265 6.43692 9.83265 6.90766ZM19.4746 0.331706C20.2435 0.331706 20.8548 0.562439 21.3073 1.02391C21.7691 1.48538 22 2.10033 22 2.86979C22 3.63926 21.7732 4.25933 21.3218 4.73008C20.8692 5.19155 20.2631 5.42234 19.5034 5.42234C18.7335 5.42234 18.1129 5.19155 17.6419 4.73008C17.1801 4.25933 16.9492 3.63926 16.9492 2.86979C16.9492 2.10033 17.1801 1.48538 17.6419 1.02391C18.1036 0.562439 18.7138 0.331706 19.4746 0.331706ZM19.489 1.09602C19.0458 1.09602 18.685 1.25463 18.4067 1.57189C18.1274 1.87988 17.9882 2.31662 17.9882 2.88419C17.9882 3.44146 18.1274 3.87929 18.4067 4.19655C18.685 4.50455 19.0509 4.65803 19.5034 4.65803C19.9364 4.65803 20.2827 4.50455 20.5425 4.19655C20.8115 3.87929 20.9465 3.44146 20.9465 2.88419C20.9465 2.31662 20.8115 1.87988 20.5425 1.57189C20.2724 1.25463 19.9219 1.09602 19.489 1.09602Z" fill="#363B64"/>
</svg>
