<svg width="24" height="24" viewBox="0 0 24 24" fill="none" xmlns="http://www.w3.org/2000/svg">
<path fill-rule="evenodd" clip-rule="evenodd" d="M3.6 8.40001C3.6 8.08175 3.72643 7.77653 3.95147 7.55148C4.17651 7.32644 4.48174 7.20001 4.8 7.20001H19.2C19.5183 7.20001 19.8235 7.32644 20.0485 7.55148C20.2736 7.77653 20.4 8.08175 20.4 8.40001C20.4 8.71827 20.2736 9.0235 20.0485 9.24854C19.8235 9.47358 19.5183 9.60001 19.2 9.60001H4.8C4.48174 9.60001 4.17651 9.47358 3.95147 9.24854C3.72643 9.0235 3.6 8.71827 3.6 8.40001ZM3.6 15.6C3.6 15.2818 3.72643 14.9765 3.95147 14.7515C4.17651 14.5264 4.48174 14.4 4.8 14.4H19.2C19.5183 14.4 19.8235 14.5264 20.0485 14.7515C20.2736 14.9765 20.4 15.2818 20.4 15.6C20.4 15.9183 20.2736 16.2235 20.0485 16.4485C19.8235 16.6736 19.5183 16.8 19.2 16.8H4.8C4.48174 16.8 4.17651 16.6736 3.95147 16.4485C3.72643 16.2235 3.6 15.9183 3.6 15.6Z" fill="#363B64"/>
</svg>
