<svg width="47" height="47" viewBox="0 0 47 47" fill="none" xmlns="http://www.w3.org/2000/svg">
<path d="M5.875 19.2978C5.875 17.2925 7.50063 15.6668 9.50595 15.6668V15.6668C10.8813 15.6668 12.1385 14.8898 12.7536 13.6597L14.5611 10.0446C15.099 8.96881 15.368 8.43089 15.8513 8.13219C16.3346 7.8335 16.936 7.8335 18.1388 7.8335H28.8612C30.064 7.8335 30.6654 7.8335 31.1487 8.13219C31.632 8.43089 31.901 8.96881 32.4389 10.0446L34.2464 13.6597C34.8615 14.8898 36.1187 15.6668 37.4941 15.6668V15.6668C39.4994 15.6668 41.125 17.2925 41.125 19.2978V33.1668C41.125 35.9953 41.125 37.4095 40.2463 38.2882C39.3676 39.1668 37.9534 39.1668 35.125 39.1668H11.875C9.04657 39.1668 7.63236 39.1668 6.75368 38.2882C5.875 37.4095 5.875 35.9953 5.875 33.1668V19.2978Z" stroke="#B9D1E9" stroke-width="3"/>
<path d="M29.8333 25.4583C29.8333 28.9561 26.9978 31.7917 23.5 31.7917C20.0022 31.7917 17.1667 28.9561 17.1667 25.4583C17.1667 21.9605 20.0022 19.125 23.5 19.125C26.9978 19.125 29.8333 21.9605 29.8333 25.4583Z" stroke="#B9D1E9" stroke-width="3"/>
</svg>
