<svg width="28" height="28" viewBox="0 0 28 28" fill="none" xmlns="http://www.w3.org/2000/svg">
<path d="M11.8449 6.48156C11.9043 6.6025 11.9435 6.73202 11.9611 6.86517L12.2859 11.6951L12.4472 14.1227C12.4489 14.3723 12.488 14.6204 12.5634 14.8588C12.7582 15.3214 13.2267 15.6154 13.7364 15.5949L21.5032 15.0869C21.8395 15.0814 22.1643 15.2072 22.4061 15.4366C22.6076 15.6278 22.7377 15.8779 22.7786 16.147L22.7924 16.3103C22.471 20.7608 19.2023 24.4729 14.7611 25.4311C10.3198 26.3893 5.76549 24.3651 3.57081 20.4575C2.9381 19.3222 2.54291 18.0744 2.40843 16.7873C2.35225 16.4062 2.32751 16.0214 2.33446 15.6364C2.32752 10.865 5.72536 6.73989 10.4817 5.74544C11.0542 5.6563 11.6153 5.95935 11.8449 6.48156Z" fill="#64748B"/>
<path opacity="0.4" d="M15.015 2.33445C20.3349 2.46979 24.806 6.29525 25.6667 11.4478L25.6584 11.4859L25.635 11.5411L25.6382 11.6929C25.626 11.894 25.5484 12.0875 25.4146 12.2437C25.2753 12.4065 25.0849 12.5174 24.8752 12.5604L24.7473 12.5779L15.7864 13.1585C15.4883 13.1879 15.1916 13.0918 14.9699 12.8941C14.7852 12.7293 14.6671 12.5069 14.6337 12.2673L14.0323 3.3194C14.0218 3.28915 14.0218 3.25635 14.0323 3.22609C14.0405 2.97945 14.1491 2.74631 14.3337 2.57876C14.5184 2.41122 14.7637 2.32323 15.015 2.33445Z" fill="#64748B"/>
</svg>
