<svg width="48" height="53" viewBox="0 0 48 53" fill="none" xmlns="http://www.w3.org/2000/svg">
<path d="M46.6774 7.41755C46.6308 7.08315 46.4876 6.76964 46.2652 6.51555C46.0429 6.26147 45.7512 6.07788 45.4259 5.98736L24.1244 0.0633943C23.8207 -0.0211314 23.4997 -0.0211314 23.196 0.0633943L1.8945 5.98736C1.56921 6.07783 1.27745 6.2614 1.05511 6.51549C0.832772 6.76959 0.689548 7.08313 0.643055 7.41755C0.519504 8.30596 -2.29907 29.2971 4.93038 39.7396C12.1513 50.1696 22.8037 52.8424 23.2535 52.9512C23.5208 53.0159 23.7996 53.0159 24.0669 52.9512C24.517 52.8424 35.1694 50.1696 42.39 39.7396C49.6195 29.2973 46.8009 8.30619 46.6774 7.41755ZM37.397 19.6724L22.8672 34.2022C22.5291 34.5403 22.0857 34.7096 21.6425 34.7096C21.1994 34.7096 20.756 34.5405 20.4179 34.2022L11.4342 25.2186C11.2733 25.0578 11.1457 24.8669 11.0586 24.6567C10.9715 24.4466 10.9267 24.2214 10.9267 23.9939C10.9267 23.7664 10.9715 23.5412 11.0586 23.3311C11.1457 23.1209 11.2733 22.93 11.4342 22.7693L13.218 20.9855C13.5428 20.6607 13.9833 20.4783 14.4426 20.4783C14.902 20.4783 15.3425 20.6607 15.6673 20.9855L21.6425 26.9607L33.1639 15.4391C33.3247 15.2782 33.5156 15.1506 33.7257 15.0635C33.9359 14.9764 34.1611 14.9316 34.3886 14.9316C34.616 14.9316 34.8413 14.9764 35.0514 15.0635C35.2615 15.1506 35.4524 15.2782 35.6132 15.4391L37.397 17.2229C37.5578 17.3837 37.6854 17.5746 37.7725 17.7848C37.8595 17.9949 37.9043 18.2202 37.9043 18.4476C37.9043 18.6751 37.8595 18.9003 37.7725 19.1105C37.6854 19.3206 37.5578 19.5116 37.397 19.6724Z" fill="white"/>
</svg>
