<svg width="24" height="24" viewBox="0 0 24 24" fill="none" xmlns="http://www.w3.org/2000/svg">
<g clip-path="url(#clip0_53_4798)">
<path d="M22.2 2.16316C21.6299 1.68752 20.9611 1.3448 20.242 1.15989C19.523 0.974988 18.7718 0.952531 18.043 1.09416L16.279 1.52616C15.3584 1.69485 14.5262 2.18099 13.9271 2.89998C13.3279 3.61896 12.9999 4.52527 13 5.46116V20.9282C12.3369 21.0252 11.6631 21.0252 11 20.9282V5.46116C11.0033 4.5339 10.6828 3.63456 10.0939 2.91836C9.50493 2.20215 8.68444 1.71401 7.774 1.53816L5.9 1.08216C5.17916 0.950249 4.43813 0.978405 3.72938 1.16463C3.02062 1.35086 2.36146 1.6906 1.79857 2.15981C1.23567 2.62902 0.782786 3.21623 0.471982 3.87986C0.161178 4.5435 4.88124e-05 5.26734 0 6.00016L0 16.7932C5.74558e-05 17.964 0.410977 19.0976 1.16113 19.9965C1.91129 20.8954 2.95311 21.5026 4.105 21.7122L10.391 22.8552C11.455 23.0485 12.545 23.0485 13.609 22.8552L19.9 21.7122C21.051 21.5015 22.0916 20.8939 22.8408 19.9951C23.5899 19.0963 24.0002 17.9632 24 16.7932V6.00016C24.0005 5.2676 23.8394 4.54395 23.5283 3.88075C23.2171 3.21754 22.7636 2.63109 22.2 2.16316Z" fill="#4178D4"/>
</g>
<defs>
<clipPath id="clip0_53_4798">
<rect width="24" height="24" fill="white"/>
</clipPath>
</defs>
</svg>
