<svg width="164" height="24" viewBox="0 0 164 24" fill="none" xmlns="http://www.w3.org/2000/svg">
<path d="M4.07691 11.722L4.07691 17.6306H0L0 0.786222L6.60412 0.786222C8.60681 0.786222 10.1327 1.28656 11.1817 2.28721C12.2307 3.27199 12.7552 4.60619 12.7552 6.28983C12.7552 7.33814 12.5168 8.27526 12.04 9.1012C11.5791 9.91125 10.8877 10.5545 9.96578 11.031C9.0439 11.4917 7.92335 11.722 6.60412 11.722H4.07691ZM6.15113 8.45791C7.78825 8.45791 8.60681 7.73522 8.60681 6.28983C8.60681 4.81268 7.78825 4.07409 6.15113 4.07409H4.07691V8.45791H6.15113ZM19.8157 4.1694C20.833 4.1694 21.7072 4.3997 22.4383 4.86032C23.1694 5.32094 23.7098 5.94833 24.0595 6.7425V4.33617H28.1126V17.6306H24.0595V15.2243C23.7098 16.0184 23.1694 16.6458 22.4383 17.1064C21.7072 17.5671 20.833 17.7974 19.8157 17.7974C18.719 17.7974 17.7336 17.5274 16.8594 16.9873C16.0011 16.4314 15.3176 15.6372 14.809 14.6048C14.3163 13.5724 14.0699 12.3652 14.0699 10.9834C14.0699 9.58564 14.3163 8.37851 14.809 7.36197C15.3176 6.32954 16.0011 5.54331 16.8594 5.00327C17.7336 4.44735 18.719 4.1694 19.8157 4.1694ZM21.127 7.74316C20.2528 7.74316 19.5455 8.02907 19.0051 8.60087C18.4806 9.17268 18.2183 9.96684 18.2183 10.9834C18.2183 11.9999 18.4806 12.7941 19.0051 13.3659C19.5455 13.9377 20.2528 14.2236 21.127 14.2236C21.9853 14.2236 22.6847 13.9297 23.2251 13.3421C23.7814 12.7544 24.0595 11.9682 24.0595 10.9834C24.0595 9.98273 23.7814 9.19649 23.2251 8.62469C22.6847 8.037 21.9853 7.74316 21.127 7.74316ZM34.9964 6.83781C35.5051 6.02776 36.1567 5.38448 36.9514 4.90798C37.7621 4.43148 38.6363 4.19322 39.574 4.19322V8.55322H38.4058C37.325 8.55322 36.4826 8.78353 35.8786 9.24415C35.2905 9.70477 34.9964 10.4831 34.9964 11.579V17.6306H30.9195V4.33617H34.9964V6.83781ZM48.8143 14.1283V17.6306H46.9785C45.4209 17.6306 44.2049 17.2494 43.3308 16.487C42.4725 15.7087 42.0433 14.4301 42.0433 12.6511V7.76698H40.2552V4.33617H42.0433V1.07213L46.1202 1.07213V4.33617L48.7905 4.33617V7.76698L46.1202 7.76698V12.7226C46.1202 13.2468 46.2235 13.6121 46.4302 13.8186C46.6527 14.0251 47.0183 14.1283 47.5269 14.1283H48.8143ZM55.1826 0V17.6306H51.1057V0L55.1826 0ZM61.073 4.33617L64.2677 12.4844L67.2479 4.33617H71.754L63.4571 23.9681H58.9749L62.0981 17.1303L56.5192 4.33617H61.073ZM85.5821 0.619446C87.7278 0.619446 89.5001 1.1833 90.8988 2.31103C92.3134 3.43875 93.2273 4.96356 93.6405 6.88545H89.3252C89.0073 6.10717 88.5146 5.49566 87.847 5.05093C87.1954 4.60619 86.4165 4.38382 85.5106 4.38382C84.3185 4.38382 83.3569 4.82061 82.6257 5.6942C81.8946 6.56779 81.529 7.73522 81.529 9.19649C81.529 10.6578 81.8946 11.8252 82.6257 12.6988C83.3569 13.5565 84.3185 13.9854 85.5106 13.9854C86.4165 13.9854 87.1954 13.763 87.847 13.3183C88.5146 12.8735 89.0073 12.2699 89.3252 11.5075H93.6405C93.2273 13.4135 92.3134 14.9384 90.8988 16.082C89.5001 17.2097 87.7278 17.7735 85.5821 17.7735C83.945 17.7735 82.5065 17.4162 81.2668 16.7014C80.027 15.9708 79.0654 14.9542 78.3819 13.6518C77.7144 12.3494 77.3806 10.8643 77.3806 9.19649C77.3806 7.52873 77.7144 6.04364 78.3819 4.7412C79.0654 3.43876 80.027 2.43016 81.2668 1.71541C82.5065 0.984769 83.945 0.619446 85.5821 0.619446ZM100.002 0V17.6306H95.9254V0L100.002 0ZM109.039 4.1694C110.358 4.1694 111.535 4.44735 112.568 5.00327C113.617 5.54331 114.435 6.32954 115.023 7.36197C115.627 8.39439 115.929 9.60152 115.929 10.9834C115.929 12.3652 115.627 13.5724 115.023 14.6048C114.435 15.6372 113.617 16.4314 112.568 16.9873C111.535 17.5274 110.358 17.7974 109.039 17.7974C107.72 17.7974 106.536 17.5274 105.487 16.9873C104.438 16.4314 103.611 15.6372 103.007 14.6048C102.419 13.5724 102.125 12.3652 102.125 10.9834C102.125 9.60152 102.419 8.39439 103.007 7.36197C103.611 6.32954 104.438 5.54331 105.487 5.00327C106.536 4.44735 107.72 4.1694 109.039 4.1694ZM109.039 7.69552C108.26 7.69552 107.601 7.98142 107.06 8.55322C106.536 9.10914 106.274 9.91919 106.274 10.9834C106.274 12.0476 106.536 12.8576 107.06 13.4135C107.601 13.9695 108.26 14.2474 109.039 14.2474C109.818 14.2474 110.47 13.9695 110.994 13.4135C111.519 12.8576 111.781 12.0476 111.781 10.9834C111.781 9.91919 111.519 9.10914 110.994 8.55322C110.47 7.98142 109.818 7.69552 109.039 7.69552ZM131.275 4.33617V17.6306H127.175V15.2243C126.793 16.0025 126.221 16.622 125.458 17.0826C124.711 17.5432 123.837 17.7735 122.836 17.7735C121.31 17.7735 120.094 17.2653 119.188 16.2487C118.298 15.2322 117.853 13.8345 117.853 12.0555V4.33617H121.906V11.5552C121.906 12.4605 122.136 13.1674 122.597 13.6756C123.074 14.168 123.71 14.4142 124.504 14.4142C125.331 14.4142 125.983 14.1521 126.459 13.628C126.936 13.1038 127.175 12.3573 127.175 11.3884V4.33617H131.275ZM139.14 4.1694C140.157 4.1694 141.032 4.3997 141.763 4.86032C142.494 5.32094 143.026 5.94833 143.36 6.7425V0L147.437 0V17.6306H143.36V15.2243C143.026 16.0184 142.494 16.6458 141.763 17.1064C141.032 17.5671 140.157 17.7974 139.14 17.7974C138.043 17.7974 137.058 17.5274 136.184 16.9873C135.326 16.4314 134.642 15.6372 134.133 14.6048C133.641 13.5724 133.394 12.3652 133.394 10.9834C133.394 9.58564 133.641 8.37851 134.133 7.36197C134.642 6.32954 135.326 5.54331 136.184 5.00327C137.058 4.44735 138.043 4.1694 139.14 4.1694ZM140.451 7.74316C139.577 7.74316 138.87 8.02907 138.33 8.60087C137.805 9.17268 137.543 9.96684 137.543 10.9834C137.543 11.9999 137.805 12.7941 138.33 13.3659C138.87 13.9377 139.577 14.2236 140.451 14.2236C141.31 14.2236 142.009 13.9297 142.55 13.3421C143.106 12.7544 143.384 11.9682 143.384 10.9834C143.384 9.98273 143.106 9.19649 142.55 8.62469C142.009 8.037 141.31 7.74316 140.451 7.74316ZM153.319 4.33617L156.514 12.4844L159.494 4.33617H164L155.703 23.9681H151.221L154.344 17.1303L148.765 4.33617H153.319Z" fill="white"/>
</svg>
