<svg width="141" height="15" viewBox="0 0 141 15" fill="none" xmlns="http://www.w3.org/2000/svg">
<path d="M12.9359 1.00079L10.4878 10.8142H8.54045L6.46793 3.22479L4.39541 10.8142H2.44808L0 1.00079H1.73869L3.43565 8.97937L5.59163 1.00079H7.34423L9.50022 8.97937L11.1972 1.00079L12.9359 1.00079ZM17.4299 3.05799C18.1254 3.05799 18.7189 3.22975 19.2104 3.57228C19.7019 3.91482 20.0496 4.36955 20.2536 4.93449V3.15529H21.8393V10.8142H20.2536V9.03497C20.0496 9.5999 19.7019 10.0546 19.2104 10.3972C18.7189 10.7397 18.1254 10.9115 17.4299 10.9115C16.7623 10.9115 16.1642 10.7536 15.6356 10.4389C15.1163 10.1241 14.7083 9.66941 14.4116 9.07667C14.1148 8.48394 13.9665 7.78398 13.9665 6.97778C13.9665 6.18052 14.1148 5.48551 14.4116 4.89278C14.7083 4.30005 15.1163 3.84533 15.6356 3.53059C16.1642 3.21586 16.7623 3.05799 17.4299 3.05799ZM17.9168 4.44798C17.2121 4.44798 16.6463 4.67535 16.2198 5.12909C15.8025 5.57389 15.5939 6.19045 15.5939 6.97778C15.5939 7.76511 15.8025 8.38663 16.2198 8.84037C16.6463 9.28517 17.2121 9.50758 17.9168 9.50758C18.3619 9.50758 18.7606 9.40532 19.113 9.20178C19.4654 8.98832 19.7436 8.69243 19.9476 8.31217C20.1515 7.93191 20.2536 7.48712 20.2536 6.97778C20.2536 6.47738 20.1515 6.03755 19.9476 5.65728C19.7436 5.26808 19.4654 4.97122 19.113 4.76769C18.7606 4.55423 18.3619 4.44798 17.9168 4.44798ZM26.2598 3.05799C27.1593 3.05799 27.8779 3.28933 28.4158 3.75299C28.9628 4.20672 29.2967 4.81831 29.4173 5.58778H27.9151C27.8501 5.17078 27.6693 4.83718 27.3726 4.58698C27.0851 4.32785 26.7003 4.19779 26.2181 4.19779C25.8193 4.19779 25.5087 4.29509 25.2861 4.48969C25.0728 4.67535 24.9662 4.92951 24.9662 5.25418C24.9662 5.49544 25.045 5.69005 25.2027 5.83799C25.3603 5.98592 25.555 6.10208 25.7869 6.18548C26.0279 6.26888 26.3664 6.36121 26.8023 6.46348C27.3771 6.59354 27.8408 6.72758 28.1932 6.86658C28.5549 7.00558 28.8609 7.22798 29.1113 7.53378C29.3709 7.83064 29.5007 8.23771 29.5007 8.75697C29.5007 9.39637 29.2549 9.91564 28.7635 10.3138C28.2813 10.7119 27.6275 10.9115 26.8023 10.9115C25.8471 10.9115 25.0728 10.6891 24.4794 10.2443C23.8952 9.79947 23.5428 9.17894 23.4223 8.38168H24.9662C25.0125 8.79868 25.198 9.13724 25.5226 9.39638C25.8471 9.65551 26.2737 9.78558 26.8023 9.78558C27.1824 9.78558 27.4792 9.68827 27.6925 9.49367C27.9151 9.29014 28.0263 9.03497 28.0263 8.72917C28.0263 8.4601 27.9429 8.24764 27.776 8.08977C27.609 7.93191 27.4004 7.81178 27.15 7.72838C26.8997 7.63604 26.5565 7.54271 26.1207 7.45038C25.5643 7.32031 25.1099 7.19124 24.7576 7.06118C24.4144 6.93112 24.1177 6.72261 23.8674 6.43568C23.6262 6.13881 23.5057 5.74068 23.5057 5.24029C23.5057 4.59195 23.7468 4.06772 24.229 3.66959C24.7204 3.26153 25.3974 3.05799 26.2598 3.05799ZM35.375 3.03019C36.2652 3.03019 36.9792 3.31712 37.517 3.89199C38.0545 4.46685 38.3238 5.28694 38.3238 6.35228V10.8142H36.7382V6.51908C36.7382 5.83301 36.5619 5.30482 36.2096 4.93449C35.8572 4.55422 35.375 4.36458 34.763 4.36458C34.1324 4.36458 33.627 4.56812 33.2469 4.97618C32.8667 5.37431 32.6766 5.96308 32.6766 6.74147V10.8142L31.0909 10.8142V0.528196H32.6766V4.83718C32.8806 4.26232 33.2236 3.81753 33.7059 3.50279C34.1881 3.18806 34.7444 3.03019 35.375 3.03019ZM39.9561 0.931301C39.9561 0.662237 40.0485 0.439826 40.2343 0.264091C40.4191 0.0883553 40.6655 0 40.9715 0C41.2775 0 41.523 0.0883553 41.7087 0.264091C41.9035 0.439826 42.0008 0.662237 42.0008 0.931301C42.0008 1.20036 41.9035 1.41779 41.7087 1.58459C41.523 1.75139 41.2775 1.83479 40.9715 1.83479C40.6655 1.83479 40.4191 1.75139 40.2343 1.58459C40.0485 1.41779 39.9561 1.20036 39.9561 0.931301ZM41.7644 3.15529V10.8142H40.1787V3.15529H41.7644ZM47.967 3.03019C48.8573 3.03019 49.5716 3.31712 50.1091 3.89199C50.6466 4.46685 50.9159 5.28694 50.9159 6.35228V10.8142H49.3302V6.51908C49.3302 5.83301 49.1543 5.30482 48.8016 4.93449C48.4489 4.55422 47.967 4.36458 47.355 4.36458C46.7241 4.36458 46.2194 4.56812 45.8389 4.97618C45.4584 5.37431 45.2686 5.96308 45.2686 6.74147V10.8142H43.6829V3.15529H45.2686V4.83718C45.4723 4.26232 45.816 3.81753 46.2979 3.50279C46.7798 3.18806 47.3361 3.03019 47.967 3.03019ZM55.8438 3.05799C56.5393 3.05799 57.1334 3.22975 57.6242 3.57228C58.116 3.91482 58.4638 4.36955 58.6675 4.93449V3.15529H60.2531V10.8976C60.2531 11.6114 60.1051 12.2409 59.808 12.788C59.5209 13.344 59.1036 13.7798 58.5562 14.0946C58.0097 14.4093 57.36 14.5672 56.6088 14.5672C55.5338 14.5672 54.6615 14.312 53.9938 13.8027C53.3361 13.2933 52.9228 12.6023 52.7559 11.7316H54.3277C54.4578 12.1853 54.7082 12.5378 55.0788 12.788C55.4504 13.0471 55.9233 13.1772 56.4976 13.1772C57.1285 13.1772 57.6481 12.9826 58.0554 12.5934C58.4638 12.2042 58.6675 11.6392 58.6675 10.8976V9.03497C58.4638 9.5999 58.116 10.0546 57.6242 10.3972C57.1334 10.7397 56.5393 10.9115 55.8438 10.9115C55.1762 10.9115 54.578 10.7536 54.0495 10.4389C53.5309 10.1241 53.1225 9.66941 52.8254 9.07667C52.5294 8.48394 52.3803 7.78398 52.3803 6.97778C52.3803 6.18052 52.5294 5.48551 52.8254 4.89278C53.1225 4.30005 53.5309 3.84533 54.0495 3.53059C54.578 3.21586 55.1762 3.05799 55.8438 3.05799ZM56.3306 4.44798C55.6262 4.44798 55.0609 4.67535 54.6337 5.12909C54.2164 5.57389 54.0078 6.19045 54.0078 6.97778C54.0078 7.76511 54.2164 8.38663 54.6337 8.84037C55.0609 9.28517 55.6262 9.50758 56.3306 9.50758C56.7758 9.50758 57.1752 9.40532 57.5269 9.20178C57.8796 8.98832 58.1578 8.69243 58.3614 8.31217C58.5661 7.93191 58.6675 7.48712 58.6675 6.97778C58.6675 6.47738 58.5661 6.03755 58.3614 5.65728C58.1578 5.26808 57.8796 4.97122 57.5269 4.76769C57.1752 4.55423 56.7758 4.44798 56.3306 4.44798ZM66.0097 9.43807V10.8142H65.036C64.2194 10.8142 63.5984 10.6196 63.1722 10.2304C62.7549 9.83224 62.5462 9.17397 62.5462 8.25657V4.50358H61.4474V3.15529H62.5462V1.25099H64.1458V3.15529H65.9958V4.50358H64.1458V8.28437C64.1458 8.72023 64.2243 9.02107 64.3823 9.18787C64.5492 9.35467 64.8363 9.43807 65.2447 9.43807H66.0097ZM71.0002 3.05799C71.7414 3.05799 72.4091 3.21586 73.0032 3.53059C73.5964 3.84533 74.0603 4.30005 74.3942 4.89278C74.728 5.48551 74.8949 6.18052 74.8949 6.97778C74.8949 7.78398 74.728 8.48394 74.3942 9.07667C74.0603 9.66941 73.5964 10.1241 73.0032 10.4389C72.4091 10.7536 71.7414 10.9115 71.0002 10.9115C70.2581 10.9115 69.5904 10.7536 68.9973 10.4389C68.4131 10.1241 67.9491 9.66941 67.6063 9.07667C67.2725 8.47401 67.1056 7.77504 67.1056 6.97778C67.1056 6.18052 67.2725 5.48551 67.6063 4.89278C67.9491 4.30005 68.4131 3.84533 68.9973 3.53059C69.5904 3.21586 70.2581 3.05799 71.0002 3.05799ZM71.0002 4.43409C70.5919 4.43409 70.2163 4.52643 69.8736 4.71209C69.5298 4.89775 69.2516 5.18468 69.039 5.57388C68.8343 5.95415 68.733 6.42178 68.733 6.97778C68.733 7.54272 68.8343 8.01531 69.039 8.39557C69.2516 8.77583 69.5298 9.05781 69.8736 9.24347C70.2163 9.42914 70.5919 9.52147 71.0002 9.52147C71.4076 9.52147 71.7832 9.42914 72.1269 9.24347C72.4697 9.05781 72.7429 8.77583 72.9476 8.39557C73.1602 8.01531 73.2675 7.54272 73.2675 6.97778C73.2675 6.42178 73.1602 5.95415 72.9476 5.57388C72.7429 5.18468 72.4697 4.89775 72.1269 4.71209C71.7832 4.52643 71.4076 4.43409 71.0002 4.43409ZM80.7031 3.03019C81.5934 3.03019 82.3077 3.31712 82.8452 3.89199C83.3827 4.46685 83.652 5.28694 83.652 6.35228V10.8142H82.0663V6.51908C82.0663 5.83301 81.8904 5.30482 81.5377 4.93449C81.185 4.55422 80.7031 4.36458 80.0911 4.36458C79.4602 4.36458 78.9555 4.56812 78.575 4.97618C78.1945 5.37431 78.0047 5.96308 78.0047 6.74147V10.8142H76.419V3.15529H78.0047V4.83718C78.2084 4.26232 78.5521 3.81753 79.034 3.50279C79.5159 3.18806 80.0722 3.03019 80.7031 3.03019ZM97.1959 5.89359C97.1959 6.88545 96.9922 7.75122 96.5839 8.49288C96.1854 9.22461 95.5963 9.79451 94.8173 10.2026C94.0474 10.6106 93.1254 10.8142 92.0494 10.8142H88.7667V1.00079L92.0494 1.00079C93.1254 1.00079 94.0474 1.20433 94.8173 1.61239C95.5963 2.01052 96.1854 2.57646 96.5839 3.30819C96.9922 4.03993 97.1959 4.90173 97.1959 5.89359ZM91.9242 9.38247C93.1015 9.38247 94.0056 9.07668 94.6365 8.46508C95.2674 7.85348 95.5824 6.99665 95.5824 5.89359C95.5824 4.79053 95.2674 3.93368 94.6365 3.32208C94.0056 2.71049 93.1015 2.40469 91.9242 2.40469H90.3524V9.38247H91.9242ZM103.173 0.903501C104.378 0.903501 105.38 1.2093 106.177 1.82089C106.974 2.43249 107.513 3.26152 107.791 4.30898H106.108C105.875 3.71625 105.505 3.24762 104.995 2.90509C104.494 2.55262 103.877 2.37689 103.145 2.37689C102.561 2.37689 102.036 2.52086 101.573 2.8078C101.118 3.09473 100.757 3.50776 100.488 4.04489C100.228 4.57309 100.099 5.19362 100.099 5.90748C100.099 6.61141 100.228 7.23295 100.488 7.77008C100.757 8.29828 101.118 8.70634 101.573 8.99327C102.036 9.28021 102.561 9.42418 103.145 9.42418C103.877 9.42418 104.494 9.25241 104.995 8.90988C105.505 8.55741 105.875 8.08978 106.108 7.50598H107.791C107.513 8.55344 106.974 9.38247 106.177 9.99407C105.38 10.5967 104.378 10.8976 103.173 10.8976C102.245 10.8976 101.424 10.6891 100.711 10.2721C99.9967 9.84613 99.4453 9.25737 99.0558 8.50677C98.6663 7.74724 98.4716 6.88048 98.4716 5.90748C98.4716 4.93448 98.6663 4.07268 99.0558 3.32208C99.4453 2.56255 99.9967 1.96883 100.711 1.5429C101.424 1.11696 102.245 0.903501 103.173 0.903501ZM110.346 9.72998C110.513 10.1559 110.597 10.5967 110.597 11.0505C110.597 11.5697 110.463 11.9907 110.193 12.3154C109.924 12.649 109.517 12.8158 108.969 12.8158V12.1764C109.201 12.1764 109.373 12.1158 109.484 11.9957C109.595 11.8755 109.651 11.671 109.651 11.3841V11.259H108.844V9.72998H110.346ZM116.838 1.00079V6.82487C116.838 7.69561 117.029 8.34494 117.408 8.77088C117.798 9.19681 118.34 9.41027 119.036 9.41027C119.722 9.41027 120.256 9.19681 120.635 8.77088C121.025 8.34494 121.22 7.69561 121.22 6.82487V1.00079H122.805V6.82487C122.805 8.16821 122.458 9.18787 121.762 9.88287C121.067 10.5689 120.149 10.9115 119.008 10.9115C117.877 10.9115 116.968 10.5689 116.282 9.88287C115.596 9.18787 115.252 8.16821 115.252 6.82487V1.00079L116.838 1.00079ZM131.108 8.20097C131.108 8.68251 130.992 9.13227 130.761 9.54927C130.529 9.95733 130.176 10.286 129.703 10.5362C129.231 10.7864 128.651 10.9115 127.965 10.9115C127.297 10.9115 126.699 10.7953 126.17 10.564C125.642 10.3227 125.22 9.98911 124.905 9.56318C124.59 9.13724 124.409 8.64577 124.362 8.08977H126.059C126.106 8.51571 126.287 8.88207 126.602 9.18787C126.927 9.49367 127.358 9.64658 127.895 9.64658C128.377 9.64658 128.749 9.51651 129.008 9.25738C129.277 8.99825 129.411 8.66464 129.411 8.25657C129.411 7.90411 129.314 7.61718 129.119 7.39478C128.925 7.16344 128.683 6.98274 128.396 6.85267C128.109 6.72261 127.714 6.57468 127.214 6.40788C126.602 6.21328 126.101 6.01868 125.711 5.82408C125.331 5.62948 125.007 5.34651 124.738 4.97618C124.469 4.60585 124.334 4.11935 124.334 3.51668C124.334 2.98848 124.465 2.52483 124.724 2.12669C124.983 1.72856 125.355 1.42276 125.837 1.2093C126.318 0.9869 126.875 0.875701 127.506 0.875701C128.507 0.875701 129.3 1.11696 129.884 1.5985C130.477 2.08003 130.816 2.71049 130.9 3.48888H129.189C129.124 3.11855 128.947 2.80282 128.66 2.54369C128.382 2.27463 127.998 2.1406 127.506 2.1406C127.061 2.1406 126.704 2.25675 126.435 2.48809C126.165 2.71049 126.031 3.03515 126.031 3.46108C126.031 3.79468 126.124 4.07269 126.31 4.29509C126.495 4.50856 126.727 4.67932 127.005 4.80938C127.292 4.92952 127.682 5.07349 128.173 5.24029C128.794 5.43488 129.3 5.63445 129.69 5.83799C130.088 6.03259 130.422 6.31952 130.691 6.69978C130.969 7.08005 131.108 7.58044 131.108 8.20097ZM138.552 8.68748H134.407L133.656 10.8142H131.959L135.575 1.1537H137.397L141 10.8142H139.303L138.552 8.68748ZM138.107 7.46429L136.479 2.87729L134.852 7.46429H138.107Z" fill="white"/>
</svg>
