<svg width="26" height="26" viewBox="0 0 26 26" fill="none" xmlns="http://www.w3.org/2000/svg">
<path d="M23.7497 3.82756C23.7279 3.66966 23.661 3.52163 23.5572 3.40166C23.4534 3.28169 23.3171 3.195 23.1652 3.15226L13.2168 0.355128C13.075 0.315218 12.9251 0.315218 12.7832 0.355128L2.8348 3.15226C2.68288 3.19498 2.54662 3.28166 2.44278 3.40163C2.33894 3.52161 2.27205 3.66965 2.25034 3.82756C2.19264 4.24704 0.876281 14.1585 4.25264 19.0891C7.62501 24.0139 12.6 25.2759 12.8101 25.3273C12.9349 25.3578 13.0651 25.3578 13.1899 25.3273C13.4002 25.2759 18.3751 24.0139 21.7474 19.0891C25.1237 14.1586 23.8074 4.24715 23.7497 3.82756Z" fill="#6F9DF5"/>
<path d="M17.5507 11.7031C18.179 11.7035 18.6879 12.2131 18.6875 12.8413C18.6871 13.4695 18.1775 13.9785 17.5493 13.9781L8.44928 13.9722C7.82106 13.9718 7.31211 13.4622 7.31252 12.8339C7.31292 12.2057 7.82253 11.6968 8.45075 11.6972L17.5507 11.7031Z" fill="white"/>
<path d="M14.1346 17.3884C14.1342 18.0166 13.6246 18.5255 12.9963 18.5251C12.3681 18.5247 11.8592 18.0151 11.8596 17.3869L11.8655 8.28689C11.8659 7.65867 12.3755 7.14972 13.0037 7.15013C13.6319 7.15054 14.1409 7.66014 14.1405 8.28836L14.1346 17.3884Z" fill="white"/>
</svg>
