<svg width="133" height="11" viewBox="0 0 133 11" fill="none" xmlns="http://www.w3.org/2000/svg">
<path d="M4.71842 0.906766C5.92834 0.906766 6.93344 1.21367 7.73374 1.82747C8.53414 2.44128 9.07388 3.27331 9.35308 4.32456H7.66394C7.43131 3.72968 7.05908 3.25936 6.54716 2.91558C6.0446 2.56185 5.42579 2.38548 4.6905 2.38548C4.10419 2.38548 3.5784 2.52997 3.11304 2.81794C2.65705 3.10591 2.2941 3.52044 2.02418 4.05951C1.76363 4.58962 1.6333 5.21239 1.6333 5.92883C1.6333 6.63531 1.76363 7.25909 2.02418 7.79816C2.2941 8.32827 2.65705 8.7378 3.11304 9.02577C3.5784 9.31374 4.10419 9.45823 4.6905 9.45823C5.42579 9.45823 6.0446 9.28584 6.54716 8.94207C7.05908 8.58833 7.43131 8.11901 7.66394 7.5331H9.35308C9.07388 8.58435 8.53414 9.41637 7.73374 10.0302C6.93344 10.635 5.92834 10.9369 4.71842 10.9369C3.7878 10.9369 2.96417 10.7277 2.24753 10.3092C1.531 9.88171 0.977189 9.29082 0.586314 8.53751C0.195439 7.77523 0 6.90534 0 5.92883C0 4.95231 0.195439 4.0874 0.586314 3.33409C0.977189 2.57181 1.531 1.97595 2.24753 1.54847C2.96417 1.121 3.7878 0.906766 4.71842 0.906766ZM15.2405 3.04114C16.134 3.04114 16.8506 3.32911 17.3903 3.90605C17.9302 4.48299 18.2 5.30605 18.2 6.37523V10.8532H16.6086V6.54263C16.6086 5.85409 16.4318 5.32399 16.0781 4.95232C15.7245 4.57068 15.2405 4.38036 14.6263 4.38036C13.9935 4.38036 13.4863 4.58462 13.1047 4.99416C12.7232 5.39373 12.5323 5.98463 12.5323 6.76584V10.8532H10.9409V0.530105H12.5323V4.85466C12.7371 4.27772 13.0814 3.83132 13.5654 3.51545C14.0494 3.19958 14.6078 3.04114 15.2405 3.04114ZM23.1463 3.06904C23.8443 3.06904 24.4399 3.24142 24.9331 3.58519C25.4264 3.92896 25.7754 4.38534 25.9801 4.95232V3.16669H27.5715V10.8532H25.9801V9.06761C25.7754 9.63459 25.4264 10.091 24.9331 10.4347C24.4399 10.7785 23.8443 10.9509 23.1463 10.9509C22.4762 10.9509 21.8759 10.7925 21.3455 10.4766C20.8243 10.1607 20.4148 9.70435 20.117 9.10947C19.8192 8.5146 19.6703 7.81211 19.6703 7.003C19.6703 6.20285 19.8192 5.50534 20.117 4.91046C20.4148 4.31558 20.8243 3.85922 21.3455 3.54335C21.8759 3.22748 22.4762 3.06904 23.1463 3.06904ZM23.6349 4.46406C22.9276 4.46406 22.3598 4.69225 21.9318 5.14762C21.513 5.59403 21.3036 6.21282 21.3036 7.003C21.3036 7.79317 21.513 8.41694 21.9318 8.87231C22.3598 9.31872 22.9276 9.54193 23.6349 9.54193C24.0816 9.54193 24.4817 9.4393 24.8354 9.23503C25.1891 9.0208 25.4683 8.72385 25.673 8.34221C25.8777 7.96057 25.9801 7.51417 25.9801 7.003C25.9801 6.50079 25.8777 6.05936 25.673 5.67773C25.4683 5.28712 25.1891 4.98919 24.8354 4.78492C24.4817 4.57068 24.0816 4.46406 23.6349 4.46406ZM33.781 3.04114C34.6744 3.04114 35.3909 3.32911 35.9308 3.90605C36.4705 4.48299 36.7405 5.30605 36.7405 6.37523V10.8532H35.149V6.54263C35.149 5.85409 34.9721 5.32399 34.6186 4.95232C34.2649 4.57068 33.781 4.38036 33.1667 4.38036C32.5339 4.38036 32.0266 4.58462 31.6451 4.99416C31.2635 5.39373 31.0728 5.98463 31.0728 6.76584V10.8532H29.4814V3.16669H31.0728V4.85466C31.2775 4.27772 31.6218 3.83132 32.1058 3.51545C32.5897 3.19958 33.1481 3.04114 33.781 3.04114ZM42.0218 3.06904C43.0175 3.06904 43.8411 3.33409 44.4926 3.86419C45.1441 4.38533 45.5489 5.09681 45.7071 5.99859H44.018C43.9249 5.51531 43.6969 5.13865 43.334 4.86862C42.9803 4.58961 42.5336 4.45011 41.9938 4.45011C41.3796 4.45011 40.8677 4.66832 40.4583 5.10576C40.0487 5.53324 39.844 6.16598 39.844 7.003C39.844 7.84001 40.0487 8.47673 40.4583 8.91417C40.8677 9.35161 41.3796 9.56983 41.9938 9.56983C42.5336 9.56983 42.9803 9.43033 43.334 9.15133C43.6969 8.87233 43.9249 8.49068 44.018 8.0074H45.7071C45.5489 8.90918 45.1441 9.62563 44.4926 10.1557C43.8411 10.6858 43.0175 10.9509 42.0218 10.9509C41.2772 10.9509 40.6164 10.7925 40.0395 10.4766C39.4717 10.1607 39.025 9.70435 38.6993 9.10947C38.3736 8.5146 38.2107 7.81211 38.2107 7.003C38.2107 6.20285 38.3736 5.50534 38.6993 4.91046C39.025 4.31558 39.4717 3.85922 40.0395 3.54335C40.6164 3.22748 41.2772 3.06904 42.0218 3.06904ZM54.3921 6.64029C54.3921 6.90036 54.3735 7.12854 54.3362 7.32384H48.4172C48.4452 8.11402 48.6639 8.69993 49.0734 9.08157C49.4829 9.46321 49.9901 9.65353 50.595 9.65353C51.1255 9.65353 51.5722 9.51901 51.9351 9.24897C52.3074 8.97894 52.5354 8.62121 52.6192 8.17481H54.3223C54.2199 8.71388 54.0059 9.19317 53.6801 9.61168C53.3544 10.0302 52.931 10.36 52.4098 10.6021C51.8887 10.8343 51.3069 10.9509 50.6648 10.9509C49.9203 10.9509 49.2595 10.7925 48.6825 10.4766C48.1148 10.1607 47.6681 9.70435 47.3423 9.10947C47.0167 8.5146 46.8537 7.81211 46.8537 7.003C46.8537 6.20285 47.0167 5.50534 47.3423 4.91046C47.6681 4.31558 48.1148 3.85922 48.6825 3.54335C49.2595 3.22748 49.9203 3.06904 50.6648 3.06904C51.4186 3.06904 52.0747 3.22748 52.6331 3.54335C53.2009 3.85025 53.6336 4.27772 53.9314 4.82676C54.2385 5.36584 54.3921 5.97068 54.3921 6.64029ZM52.7867 6.59843C52.8053 6.09623 52.7169 5.67773 52.5214 5.34292C52.3354 4.99915 52.0747 4.74805 51.7397 4.58962C51.414 4.42221 51.0557 4.33851 50.6648 4.33851C50.0413 4.33851 49.5201 4.52882 49.1013 4.91046C48.6825 5.2921 48.4545 5.85409 48.4172 6.59843H52.7867ZM62.7183 3.06904C63.4631 3.06904 64.1332 3.22748 64.7285 3.54335C65.3238 3.85922 65.7894 4.31558 66.1245 4.91046C66.4595 5.50534 66.627 6.20285 66.627 7.003C66.627 7.81211 66.4595 8.5146 66.1245 9.10947C65.7894 9.70435 65.3238 10.1607 64.7285 10.4766C64.1332 10.7925 63.4631 10.9509 62.7183 10.9509C61.9734 10.9509 61.3034 10.7925 60.7082 10.4766C60.1219 10.1607 59.6565 9.70435 59.3122 9.10947C58.9771 8.50463 58.8096 7.80314 58.8096 7.003C58.8096 6.20285 58.9771 5.50534 59.3122 4.91046C59.6565 4.31558 60.1219 3.85922 60.7082 3.54335C61.3034 3.22748 61.9734 3.06904 62.7183 3.06904ZM62.7183 4.45011C62.3085 4.45011 61.9315 4.54278 61.5875 4.72912C61.2435 4.91545 60.9643 5.20342 60.7501 5.59402C60.5452 5.97566 60.4429 6.44499 60.4429 7.003C60.4429 7.56997 60.5452 8.04427 60.7501 8.42591C60.9643 8.80755 61.2435 9.09054 61.5875 9.27687C61.9315 9.46321 62.3085 9.55588 62.7183 9.55588C63.1281 9.55588 63.505 9.46321 63.849 9.27687C64.193 9.09054 64.4682 8.80755 64.6727 8.42591C64.887 8.04427 64.9937 7.56997 64.9937 7.003C64.9937 6.44499 64.887 5.97566 64.6727 5.59402C64.4682 5.20342 64.193 4.91545 63.849 4.72912C63.505 4.54278 63.1281 4.45011 62.7183 4.45011ZM71.7443 1.57637C71.1211 1.54847 70.6834 1.6511 70.4321 1.88328C70.1808 2.10648 70.0552 2.4921 70.0552 3.04114V3.16669H71.7443V4.53381H70.0552V10.8532H68.4498V4.53381H67.4028V3.16669H68.4498V2.91558C68.4498 1.97594 68.725 1.27445 69.2734 0.809107C69.8228 0.334801 70.6465 0.125543 71.7443 0.181344V1.57637ZM77.8876 4.67332C78.1479 4.17111 78.5198 3.77552 79.0044 3.48755C79.488 3.18961 80.0464 3.04114 80.6796 3.04114V4.77096H80.205C79.507 4.77096 78.9436 4.94335 78.5158 5.28712C78.097 5.62193 77.8876 6.17993 77.8876 6.96114V10.8532H76.2962V3.16669H77.8876V4.67332ZM84.9563 3.06904C85.6543 3.06904 86.2505 3.24142 86.7431 3.58519C87.2367 3.92896 87.5857 4.38534 87.7901 4.95232V3.16669L89.3815 3.16669V10.8532H87.7901V9.06761C87.5857 9.63459 87.2367 10.091 86.7431 10.4347C86.2505 10.7785 85.6543 10.9509 84.9563 10.9509C84.2862 10.9509 83.6859 10.7925 83.1555 10.4766C82.635 10.1607 82.2251 9.70435 81.927 9.10947C81.6298 8.5146 81.4803 7.81211 81.4803 7.003C81.4803 6.20285 81.6298 5.50534 81.927 4.91046C82.2251 4.31558 82.635 3.85922 83.1555 3.54335C83.6859 3.22748 84.2862 3.06904 84.9563 3.06904ZM85.4449 4.46406C84.7379 4.46406 84.1705 4.69225 83.7418 5.14762C83.323 5.59403 83.1136 6.21282 83.1136 7.003C83.1136 7.79317 83.323 8.41694 83.7418 8.87231C84.1705 9.31872 84.7379 9.54193 85.4449 9.54193C85.8916 9.54193 86.2924 9.4393 86.6454 9.23503C86.9994 9.0208 87.2786 8.72385 87.483 8.34221C87.6884 7.96057 87.7901 7.51417 87.7901 7.003C87.7901 6.50079 87.6884 6.05936 87.483 5.67773C87.2786 5.28712 86.9994 4.98919 86.6454 4.78492C86.2924 4.57068 85.8916 4.46406 85.4449 4.46406ZM91.0687 0.934666C91.0687 0.66463 91.1614 0.441415 91.3479 0.265045C91.5333 0.0886746 91.7806 0 92.0878 0C92.3949 0 92.6412 0.0886746 92.8276 0.265045C93.0231 0.441415 93.1208 0.66463 93.1208 0.934666C93.1208 1.2047 93.0231 1.42291 92.8276 1.59031C92.6412 1.75772 92.3949 1.84142 92.0878 1.84142C91.7806 1.84142 91.5333 1.75772 91.3479 1.59031C91.1614 1.42291 91.0687 1.2047 91.0687 0.934666ZM92.8835 3.16669V10.8532H91.292V3.16669H92.8835ZM99.1085 3.04114C100.002 3.04114 100.719 3.32911 101.258 3.90605C101.798 4.48299 102.068 5.30605 102.068 6.37523V10.8532H100.477V6.54263C100.477 5.85409 100.3 5.32399 99.9461 4.95232C99.5921 4.57068 99.1085 4.38036 98.4943 4.38036C97.8611 4.38036 97.3546 4.58462 96.9727 4.99416C96.5908 5.39373 96.4003 5.98463 96.4003 6.76584V10.8532L94.8089 10.8532V3.16669H96.4003V4.85466C96.6047 4.27772 96.9498 3.83132 97.4334 3.51545C97.917 3.19958 98.4754 3.04114 99.1085 3.04114ZM112.366 3.65495C112.199 2.55787 111.627 2.00882 110.649 2.00882C109.941 2.00882 109.411 2.29281 109.058 2.85978C108.704 3.41779 108.527 4.29665 108.527 5.49637L108.541 5.97069C108.681 5.46848 108.983 5.0689 109.449 4.77096C109.913 4.47302 110.463 4.32456 111.096 4.32456C112.063 4.32456 112.822 4.61252 113.371 5.18946C113.92 5.7664 114.195 6.57951 114.195 7.63076C114.195 8.2635 114.069 8.83047 113.818 9.33267C113.567 9.82591 113.19 10.2205 112.687 10.5184C112.185 10.8064 111.566 10.9509 110.831 10.9509C109.407 10.9509 108.43 10.5095 107.899 9.62564C107.369 8.74179 107.104 7.52812 107.104 5.98463C107.104 4.21794 107.387 2.89666 107.955 2.02278C108.522 1.1489 109.453 0.711464 110.747 0.711464C111.714 0.711464 112.454 0.985475 112.967 1.53451C113.487 2.08355 113.79 2.79004 113.874 3.65495H112.366ZM108.681 7.4494C108.681 8.05424 108.857 8.56043 109.211 8.96997C109.564 9.36954 110.086 9.56983 110.775 9.56983C111.361 9.56983 111.826 9.39744 112.171 9.05367C112.524 8.7099 112.701 8.23061 112.701 7.6168C112.701 6.95616 112.524 6.44997 112.171 6.09623C111.817 5.74249 111.337 5.56612 110.733 5.56612C110.184 5.56612 109.704 5.72855 109.295 6.05439C108.885 6.38022 108.681 6.84456 108.681 7.4494ZM115.661 5.85908C115.661 7.43047 115.94 8.66306 116.498 9.55588C117.057 10.4397 117.988 10.8811 119.29 10.8811C120.594 10.8811 121.524 10.4347 122.082 9.54193C122.641 8.64912 122.92 7.42151 122.92 5.85908C122.92 4.30563 122.641 3.08798 122.082 2.20414C121.524 1.31132 120.594 0.864908 119.29 0.864908C117.988 0.864908 117.057 1.30633 116.498 2.19018C115.94 3.07402 115.661 4.29666 115.661 5.85908ZM121.329 5.85908C121.329 6.99403 121.189 7.86293 120.91 8.46777C120.631 9.07261 120.091 9.37453 119.29 9.37453C118.481 9.37453 117.936 9.07261 117.657 8.46777C117.378 7.86293 117.238 6.99403 117.238 5.85908C117.238 4.7341 117.378 3.87316 117.657 3.27829C117.936 2.68341 118.481 2.38548 119.29 2.38548C120.091 2.38548 120.631 2.68741 120.91 3.29225C121.189 3.88712 121.329 4.74307 121.329 5.85908ZM126.188 0.864908C126.811 0.864908 127.318 1.06021 127.709 1.45081C128.1 1.83245 128.296 2.3526 128.296 3.01324C128.296 3.67388 128.1 4.19402 127.709 4.57566C127.318 4.95729 126.811 5.14762 126.188 5.14762C125.564 5.14762 125.052 4.95729 124.652 4.57566C124.261 4.19402 124.066 3.67388 124.066 3.01324C124.066 2.3526 124.261 1.83245 124.652 1.45081C125.052 1.06021 125.564 0.864908 126.188 0.864908ZM132.093 0.990467L126.523 10.8532H124.959L130.543 0.990467H132.093ZM125.155 3.01324C125.155 3.36698 125.247 3.64996 125.434 3.86419C125.62 4.06846 125.867 4.17111 126.174 4.17111C126.481 4.17111 126.727 4.06449 126.914 3.85025C127.109 3.63602 127.207 3.35702 127.207 3.01324C127.207 2.65951 127.109 2.37651 126.914 2.16228C126.727 1.94804 126.481 1.84142 126.174 1.84142C125.867 1.84142 125.62 1.94804 125.434 2.16228C125.247 2.37651 125.155 2.65951 125.155 3.01324ZM130.878 6.69609C131.501 6.69609 132.009 6.8864 132.4 7.26804C132.8 7.64968 133 8.16983 133 8.83047C133 9.49111 132.8 10.0162 132.4 10.4068C132.009 10.7885 131.501 10.9788 130.878 10.9788C130.264 10.9788 129.756 10.7885 129.356 10.4068C128.966 10.0162 128.77 9.49111 128.77 8.83047C128.77 8.17979 128.966 7.66364 129.356 7.282C129.756 6.89139 130.264 6.69609 130.878 6.69609ZM129.859 8.83047C129.859 9.18421 129.952 9.4672 130.138 9.68144C130.325 9.89567 130.571 10.0023 130.878 10.0023C131.185 10.0023 131.432 9.89567 131.618 9.68144C131.813 9.4672 131.911 9.18421 131.911 8.83047C131.911 8.4867 131.813 8.2077 131.618 7.99346C131.432 7.77923 131.185 7.6726 130.878 7.6726C130.571 7.6726 130.325 7.77923 130.138 7.99346C129.952 8.2077 129.859 8.4867 129.859 8.83047Z" fill="white"/>
</svg>
