<svg width="26" height="26" viewBox="0 0 26 26" fill="none" xmlns="http://www.w3.org/2000/svg">
<path d="M17.2531 1.94995H17.4103C17.5364 3.50849 16.9416 4.67303 16.2186 5.51635C15.5092 6.35384 14.5378 7.16611 12.9666 7.04286C12.8618 5.50664 13.4577 4.42847 14.1797 3.5871C14.8493 2.80297 16.0769 2.10522 17.2531 1.94995ZM22.0092 18.1719V18.2156C21.5677 19.5529 20.9379 20.699 20.1693 21.7626C19.4676 22.7282 18.6078 24.0276 17.0726 24.0276C15.746 24.0276 14.8648 23.1746 13.5052 23.1513C12.067 23.128 11.2761 23.8646 9.96114 24.05H9.51279C8.54719 23.9102 7.76792 23.1455 7.20021 22.4565C5.52619 20.4205 4.23258 17.7906 3.99191 14.4251V13.4362C4.09381 11.0275 5.26417 9.06915 6.8198 8.12006C7.6408 7.61542 8.76943 7.18551 10.0262 7.37766C10.5648 7.46112 11.115 7.64551 11.5973 7.82795C12.0544 8.0036 12.626 8.31512 13.1675 8.29862C13.5343 8.28794 13.8992 8.09677 14.269 7.96187C15.352 7.57078 16.4136 7.12244 17.813 7.33302C19.4948 7.58728 20.6885 8.33453 21.426 9.48742C20.0033 10.3928 18.8786 11.7573 19.0707 14.0873C19.2415 16.2039 20.4721 17.4422 22.0092 18.1719Z" fill="black"/>
</svg>
