<svg width="40" height="40" viewBox="0 0 40 40" fill="none" xmlns="http://www.w3.org/2000/svg">
<mask id="mask0_53_6622" style="mask-type:alpha" maskUnits="userSpaceOnUse" x="0" y="0" width="40" height="40">
<circle cx="20" cy="20" r="20" fill="#111334"/>
</mask>
<g mask="url(#mask0_53_6622)">
<rect x="-8" width="56" height="40" rx="2" fill="white"/>
<mask id="mask1_53_6622" style="mask-type:luminance" maskUnits="userSpaceOnUse" x="-8" y="0" width="56" height="40">
<rect x="-8" width="56" height="40" rx="2" fill="white"/>
</mask>
<g mask="url(#mask1_53_6622)">
<path fill-rule="evenodd" clip-rule="evenodd" d="M48 0H18.6667V2.66667H48V0ZM48 5.33335H18.6667V8.00002H48V5.33335ZM18.6667 10.6667H48V13.3333H18.6667V10.6667ZM48 16H18.6667V18.6667H48V16ZM-8 21.3334H48V24H-8V21.3334ZM48 26.6667H-8V29.3333H48V26.6667ZM-8 32H48V34.6667H-8V32ZM48 37.3333H-8V40H48V37.3333Z" fill="#E1244A"/>
<rect x="-8" width="32" height="21.3333" fill="#0C3F8E"/>
<path fill-rule="evenodd" clip-rule="evenodd" d="M5.33325 18.6665C7.22345 18.6665 8.96054 18.011 10.3296 16.9148C9.60437 17.1853 8.81941 17.3332 7.99992 17.3332C4.31802 17.3332 1.33325 14.3484 1.33325 10.6665C1.33325 6.98462 4.31802 3.99985 7.99992 3.99985C8.81944 3.99985 9.60443 4.14773 10.3297 4.41825C8.96061 3.32207 7.22349 2.6665 5.33325 2.6665C0.914974 2.6665 -2.66675 6.24823 -2.66675 10.6665C-2.66675 15.0848 0.914974 18.6665 5.33325 18.6665ZM11.0192 15.4717L13.3332 12.8532L15.6473 15.4717L15.0429 12.0299L18.5329 11.8533L15.4651 10.1799L17.503 7.34121L14.282 8.69637L13.3332 5.33315L12.3845 8.69637L9.16348 7.34121L11.2014 10.1799L8.13363 11.8533L11.6236 12.0299L11.0192 15.4717Z" fill="#FFD34F"/>
</g>
</g>
</svg>
