<svg width="17" height="16" viewBox="0 0 17 16" fill="none" xmlns="http://www.w3.org/2000/svg">
<path d="M4.18184 9.33335C4.36669 9.33335 4.54396 9.40358 4.67467 9.52861C4.80538 9.65363 4.87881 9.8232 4.87881 10C4.87881 10.1768 4.80538 10.3464 4.67467 10.4714C4.54396 10.5964 4.36669 10.6667 4.18184 10.6667C3.7242 10.6667 3.27105 10.5805 2.84825 10.4129C2.42544 10.2454 2.04128 9.9999 1.71768 9.69037C1.06414 9.06525 0.696991 8.2174 0.696991 7.33334C0.696991 6.44929 1.06414 5.60144 1.71768 4.97632C2.37121 4.3512 3.2576 4.00001 4.18184 4.00001C4.87881 2.43334 6.48184 1.33334 8.36366 1.33334C10.7543 1.33334 12.7127 3.10668 12.894 5.35334L13.2424 5.33334C13.9818 5.33334 14.6909 5.6143 15.2138 6.11439C15.7366 6.61449 16.0303 7.29277 16.0303 8.00001C16.0303 8.70726 15.7366 9.38553 15.2138 9.88563C14.6909 10.3857 13.9818 10.6667 13.2424 10.6667H12.5455C12.3606 10.6667 12.1833 10.5964 12.0526 10.4714C11.9219 10.3464 11.8485 10.1768 11.8485 10C11.8485 9.8232 11.9219 9.65363 12.0526 9.52861C12.1833 9.40358 12.3606 9.33335 12.5455 9.33335H13.2424C13.6121 9.33335 13.9667 9.19287 14.2281 8.94282C14.4895 8.69277 14.6364 8.35363 14.6364 8.00001C14.6364 7.64639 14.4895 7.30725 14.2281 7.0572C13.9667 6.80715 13.6121 6.66668 13.2424 6.66668H11.8485V6.00001C11.8485 5.11596 11.4814 4.26811 10.8278 3.64299C10.1743 3.01787 9.2879 2.66668 8.36366 2.66668C6.62123 2.66668 5.19244 3.88001 4.92063 5.46001C4.69063 5.38001 4.43972 5.33334 4.18184 5.33334C3.6273 5.33334 3.09546 5.54406 2.70334 5.91913C2.31122 6.2942 2.09093 6.80291 2.09093 7.33334C2.09093 7.86378 2.31122 8.37249 2.70334 8.74756C3.09546 9.12263 3.6273 9.33335 4.18184 9.33335ZM6.96972 12C7.33941 12 7.69397 12.1405 7.95538 12.3905C8.21679 12.6406 8.36366 12.9797 8.36366 13.3333C8.36366 13.687 8.21679 14.0261 7.95538 14.2762C7.69397 14.5262 7.33941 14.6667 6.96972 14.6667C6.60002 14.6667 6.24547 14.5262 5.98405 14.2762C5.72264 14.0261 5.57578 13.687 5.57578 13.3333C5.57578 12.9797 5.72264 12.6406 5.98405 12.3905C6.24547 12.1405 6.60002 12 6.96972 12ZM10.1061 10.6667C10.3834 10.6667 10.6493 10.772 10.8453 10.9596C11.0414 11.1471 11.1515 11.4015 11.1515 11.6667C11.1515 11.9319 11.0414 12.1862 10.8453 12.3738C10.6493 12.5613 10.3834 12.6667 10.1061 12.6667C9.82881 12.6667 9.56289 12.5613 9.36683 12.3738C9.17077 12.1862 9.06063 11.9319 9.06063 11.6667C9.06063 11.4015 9.17077 11.1471 9.36683 10.9596C9.56289 10.772 9.82881 10.6667 10.1061 10.6667ZM7.3182 8.00001C7.59547 8.00001 7.86139 8.10537 8.05745 8.2929C8.25351 8.48044 8.36366 8.7348 8.36366 9.00001C8.36366 9.26523 8.25351 9.51958 8.05745 9.70712C7.86139 9.89466 7.59547 10 7.3182 10C7.04093 10 6.77501 9.89466 6.57895 9.70712C6.38289 9.51958 6.27275 9.26523 6.27275 9.00001C6.27275 8.7348 6.38289 8.48044 6.57895 8.2929C6.77501 8.10537 7.04093 8.00001 7.3182 8.00001Z" fill="white"/>
</svg>
