<svg width="24" height="24" viewBox="0 0 24 24" fill="none" xmlns="http://www.w3.org/2000/svg">
<g clip-path="url(#clip0_53_4807)">
<path d="M20.678 7.39276C19.762 8.30876 19.971 10.2308 20.703 11.5598C20.9824 12.0867 21.0633 12.6964 20.931 13.2779C20.7987 13.8594 20.4621 14.3741 19.9822 14.7283C19.5024 15.0825 18.9114 15.2527 18.3167 15.2078C17.722 15.1629 17.1632 14.906 16.742 14.4838L9.51597 7.25776C9.09627 6.83601 8.84154 6.27787 8.79794 5.68447C8.75433 5.09107 8.92475 4.50168 9.27829 4.02312C9.63184 3.54455 10.1451 3.20846 10.7251 3.07576C11.3051 2.94306 11.9135 3.02253 12.44 3.29976C13.769 4.03076 15.691 4.24076 16.607 3.32476L19.086 0.842764C19.6343 0.319077 20.3633 0.0268555 21.1215 0.0268555C21.8797 0.0268555 22.6087 0.319077 23.157 0.842764C23.4247 1.11024 23.6371 1.42785 23.782 1.77746C23.9269 2.12707 24.0015 2.50181 24.0015 2.88026C24.0015 3.25872 23.9269 3.63346 23.782 3.98307C23.6371 4.33268 23.4247 4.65029 23.157 4.91776L20.678 7.39276ZM1.96897 17.3468C1.47601 17.8443 1.15374 18.4855 1.04861 19.1779C0.943475 19.8704 1.0609 20.5783 1.38397 21.1998L0.29297 22.2928C0.105499 22.4803 0.000183105 22.7346 0.000183105 22.9998C0.000183105 23.2649 0.105499 23.5192 0.29297 23.7068C0.480497 23.8942 0.734805 23.9996 0.99997 23.9996C1.26513 23.9996 1.51944 23.8942 1.70697 23.7068L2.79997 22.6158C3.42003 22.9459 4.13008 23.0673 4.82459 22.9617C5.51911 22.8561 6.16103 22.5293 6.65497 22.0298L14.055 14.6298L9.37297 9.94376L1.96897 17.3468Z" fill="#46BD84"/>
</g>
<defs>
<clipPath id="clip0_53_4807">
<rect width="24" height="24" fill="white"/>
</clipPath>
</defs>
</svg>
