<svg width="26" height="26" viewBox="0 0 26 26" fill="none" xmlns="http://www.w3.org/2000/svg">
<path d="M23.2156 11.0786L14.2012 11.0781C13.8031 11.0781 13.4805 11.4007 13.4805 11.7988V14.6785C13.4805 15.0765 13.8031 15.3991 14.2011 15.3991H19.2775C18.7216 16.8417 17.6841 18.0499 16.3605 18.8175L18.525 22.5645C21.9972 20.5564 24.05 17.033 24.05 13.0887C24.05 12.5271 24.0086 12.1256 23.9258 11.6736C23.8629 11.3301 23.5647 11.0786 23.2156 11.0786Z" fill="#167EE6"/>
<path d="M13 19.726C10.5158 19.726 8.34702 18.3687 7.18223 16.3601L3.43533 18.5198C5.34211 21.8245 8.9141 24.0499 13 24.0499C15.0044 24.0499 16.8957 23.5102 18.525 22.5697V22.5646L16.3605 18.8175C15.3704 19.3918 14.2246 19.726 13 19.726Z" fill="#12B347"/>
<path d="M18.525 22.5698V22.5647L16.3605 18.8176C15.3704 19.3918 14.2247 19.7261 13 19.7261V24.05C15.0044 24.05 16.8958 23.5103 18.525 22.5698Z" fill="#0F993E"/>
<path d="M6.27393 12.9998C6.27393 11.7753 6.60811 10.6297 7.18223 9.63965L3.43533 7.47998C2.48965 9.10411 1.95001 10.9903 1.95001 12.9998C1.95001 15.0094 2.48965 16.8956 3.43533 18.5197L7.18223 16.36C6.60811 15.37 6.27393 14.2244 6.27393 12.9998Z" fill="#FFD500"/>
<path d="M13 6.27387C14.62 6.27387 16.108 6.8495 17.2703 7.80701C17.5571 8.04321 17.9738 8.02616 18.2365 7.7635L20.2768 5.72314C20.5748 5.42513 20.5536 4.93734 20.2353 4.66117C18.2879 2.97177 15.7542 1.94995 13 1.94995C8.9141 1.94995 5.34211 4.17536 3.43533 7.48009L7.18223 9.63976C8.34701 7.63121 10.5157 6.27387 13 6.27387Z" fill="#FF4B26"/>
<path d="M17.2703 7.80701C17.557 8.04321 17.9738 8.02616 18.2364 7.7635L20.2768 5.72314C20.5748 5.42513 20.5535 4.93734 20.2352 4.66117C18.2879 2.97173 15.7542 1.94995 13 1.94995V6.27387C14.6199 6.27387 16.108 6.8495 17.2703 7.80701Z" fill="#D93F21"/>
</svg>
