<svg width="12" height="14" viewBox="0 0 12 14" fill="none" xmlns="http://www.w3.org/2000/svg">
<mask id="mask0_53_4893" style="mask-type:luminance" maskUnits="userSpaceOnUse" x="0" y="0" width="12" height="11">
<path fill-rule="evenodd" clip-rule="evenodd" d="M0 0H12V10.9989H0V0Z" fill="white"/>
</mask>
<g mask="url(#mask0_53_4893)">
<path fill-rule="evenodd" clip-rule="evenodd" d="M5.99906 0.951207C3.73165 0.951207 2.15128 2.68713 2.15128 4.2449C2.15128 5.56302 1.77695 6.1723 1.44608 6.70995C1.18074 7.14171 0.971189 7.48281 0.971189 8.22397C1.07953 9.41972 1.88724 10.048 5.99906 10.048C10.0882 10.048 10.9212 9.39182 11.0289 8.18276C11.0269 7.48281 10.8174 7.14171 10.552 6.70995C10.2212 6.1723 9.84684 5.56302 9.84684 4.2449C9.84684 2.68713 8.26647 0.951207 5.99906 0.951207ZM5.99907 10.9989C2.96548 10.9989 0.22383 10.7896 8.66395e-06 8.26436C-0.00193761 7.21951 0.324387 6.6882 0.612436 6.2203C0.903728 5.74606 1.17815 5.29908 1.17815 4.24472C1.17815 2.19495 3.11534 0 5.99907 0C8.8828 0 10.82 2.19495 10.82 4.24472C10.82 5.29908 11.0944 5.74606 11.3857 6.2203C11.6737 6.6882 12.0001 7.21951 12.0001 8.22378C11.7737 10.7896 9.03266 10.9989 5.99907 10.9989Z" fill="white"/>
</g>
<path fill-rule="evenodd" clip-rule="evenodd" d="M5.96775 13.6315H5.96645C5.23919 13.6309 4.55086 13.3177 4.02861 12.749C3.84891 12.5543 3.86513 12.2532 4.06494 12.0782C4.26476 11.9019 4.57227 11.9178 4.75198 12.1137C5.08803 12.4795 5.51946 12.6805 5.9671 12.6805H5.96775C6.41734 12.6805 6.85071 12.4795 7.18741 12.1131C7.36777 11.9184 7.67528 11.9026 7.87445 12.0782C8.07426 12.2538 8.09048 12.555 7.91078 12.7496C7.38658 13.3183 6.69695 13.6315 5.96775 13.6315Z" fill="white"/>
</svg>
