<svg width="40" height="40" viewBox="0 0 40 40" fill="none" xmlns="http://www.w3.org/2000/svg">
<mask id="mask0_53_6571" style="mask-type:alpha" maskUnits="userSpaceOnUse" x="0" y="0" width="40" height="40">
<circle cx="20" cy="20" r="20" fill="#111334"/>
</mask>
<g mask="url(#mask0_53_6571)">
<rect x="0.25" y="0.25" width="55.5" height="39.5" rx="1.75" fill="white" stroke="#F5F5F5" stroke-width="0.5"/>
<mask id="mask1_53_6571" style="mask-type:luminance" maskUnits="userSpaceOnUse" x="0" y="0" width="56" height="40">
<rect x="0.25" y="0.25" width="55.5" height="39.5" rx="1.75" fill="white" stroke="white" stroke-width="0.5"/>
</mask>
<g mask="url(#mask1_53_6571)">
<path fill-rule="evenodd" clip-rule="evenodd" d="M0.000244141 39.9998H56V18.6665H24.8887L26.6667 20L0.000244141 39.9998Z" fill="#DD1C34"/>
<path fill-rule="evenodd" clip-rule="evenodd" d="M56 18.6667H24.8889L0 0H56V18.6667Z" fill="#0D4BC3"/>
<path fill-rule="evenodd" clip-rule="evenodd" d="M3.99984 8.00016C4.73622 8.00016 5.33317 7.40321 5.33317 6.66683C5.33317 5.93045 4.73622 5.3335 3.99984 5.3335C3.26346 5.3335 2.6665 5.93045 2.6665 6.66683C2.6665 7.40321 3.26346 8.00016 3.99984 8.00016ZM19.9998 21.3337C20.7362 21.3337 21.3332 20.7367 21.3332 20.0003C21.3332 19.2639 20.7362 18.667 19.9998 18.667C19.2635 18.667 18.6665 19.2639 18.6665 20.0003C18.6665 20.7367 19.2635 21.3337 19.9998 21.3337ZM5.33317 33.3333C5.33317 34.0697 4.73622 34.6667 3.99984 34.6667C3.26346 34.6667 2.6665 34.0697 2.6665 33.3333C2.6665 32.597 3.26346 32 3.99984 32C4.73622 32 5.33317 32.597 5.33317 33.3333ZM9.06399 22.6534L6.78195 26.1594L7.64741 22.0665C7.50814 21.9527 7.38058 21.8252 7.26683 21.6859L3.17397 22.5514L6.67992 20.2693C6.67105 20.1808 6.6665 20.091 6.6665 20.0002C6.6665 19.9093 6.67105 19.8195 6.67992 19.731L3.17397 17.4489L7.26683 18.3144C7.38059 18.1751 7.50814 18.0476 7.64741 17.9338L6.78195 13.841L9.06399 17.3469C9.15251 17.338 9.24231 17.3335 9.33317 17.3335C9.42403 17.3335 9.51383 17.338 9.60235 17.3469L11.8844 13.841L11.0189 17.9338C11.1582 18.0476 11.2858 18.1751 11.3995 18.3144L15.4924 17.4489L11.9864 19.731C11.9953 19.8195 11.9998 19.9093 11.9998 20.0002C11.9998 20.091 11.9953 20.1808 11.9864 20.2693L15.4924 22.5514L11.3995 21.6859C11.2858 21.8252 11.1582 21.9527 11.0189 22.0665L11.8844 26.1594L9.60235 22.6534C9.51383 22.6623 9.42403 22.6668 9.33317 22.6668C9.24231 22.6668 9.15251 22.6623 9.06399 22.6534Z" fill="#FDD64D"/>
</g>
</g>
</svg>
