<svg width="17" height="10" viewBox="0 0 17 10" fill="none" xmlns="http://www.w3.org/2000/svg">
<path fill-rule="evenodd" clip-rule="evenodd" d="M0 1.21345C0 0.891687 0.127905 0.582962 0.355584 0.355441C0.583363 0.127818 0.892195 0 1.21428 0L15.7857 0C16.1077 0 16.4166 0.127818 16.6443 0.355441C16.872 0.582962 17 0.891687 17 1.21345C17 1.53532 16.872 1.84394 16.6443 2.07146C16.4166 2.29908 16.1077 2.4269 15.7857 2.4269L1.21428 2.4269C0.892195 2.4269 0.583363 2.29908 0.355584 2.07146C0.127905 1.84394 0 1.53532 0 1.21345ZM0 8.49414C0 8.17238 0.127905 7.86366 0.355584 7.63614C0.583363 7.40851 0.892195 7.2807 1.21428 7.2807H15.7857C16.1077 7.2807 16.4166 7.40851 16.6443 7.63614C16.872 7.86366 17 8.17238 17 8.49414C17 8.81601 16.872 9.12463 16.6443 9.35215C16.4166 9.57978 16.1077 9.70759 15.7857 9.70759H1.21428C0.892195 9.70759 0.583363 9.57978 0.355584 9.35215C0.127905 9.12463 0 8.81601 0 8.49414Z" fill="#363B64"/>
</svg>
