<svg width="56" height="14" viewBox="0 0 56 14" fill="none" xmlns="http://www.w3.org/2000/svg">
<path d="M9.89077 0.657959V10.36H8.6159V2.61798L5.51978 10.36H4.385L1.27488 2.646L1.27488 10.36H0L0 0.657959H1.52705L4.97341 8.80597L8.36373 0.657959H9.89077ZM15.4184 2.57599C16.1563 2.57599 16.8147 2.735 17.3937 3.052C17.9821 3.369 18.4398 3.82701 18.7667 4.42401C19.1029 5.02101 19.271 5.72099 19.271 6.52399C19.271 7.32699 19.1029 8.02696 18.7667 8.62396C18.4398 9.21196 17.9821 9.66499 17.3937 9.98199C16.8147 10.299 16.1563 10.458 15.4184 10.458C14.6806 10.458 14.0174 10.299 13.429 9.98199C12.85 9.66499 12.3923 9.21196 12.0561 8.62396C11.7198 8.02696 11.5517 7.32699 11.5517 6.52399C11.5517 5.72099 11.7198 5.02101 12.0561 4.42401C12.3923 3.82701 12.85 3.369 13.429 3.052C14.0174 2.735 14.6806 2.57599 15.4184 2.57599ZM15.4184 3.69598C14.9607 3.69598 14.5358 3.79897 14.1435 4.00397C13.7606 4.20897 13.4477 4.52699 13.2048 4.95599C12.9714 5.37599 12.8546 5.89899 12.8546 6.52399C12.8546 7.13999 12.9714 7.66298 13.2048 8.09198C13.4477 8.51198 13.7606 8.82497 14.1435 9.02997C14.5358 9.23497 14.9607 9.33801 15.4184 9.33801C15.8761 9.33801 16.2964 9.23497 16.6792 9.02997C17.0715 8.82497 17.3844 8.51198 17.6179 8.09198C17.8607 7.66298 17.9821 7.13999 17.9821 6.52399C17.9821 5.89899 17.8607 5.37599 17.6179 4.95599C17.3844 4.52699 17.0715 4.20897 16.6792 4.00397C16.2964 3.79897 15.8761 3.69598 15.4184 3.69598ZM24.981 2.54797C25.8776 2.54797 26.6015 2.83702 27.1525 3.41602C27.7036 3.98502 27.9791 4.81098 27.9791 5.89398V10.36H26.7042V6.00598C26.7042 5.24098 26.5081 4.653 26.1158 4.242C25.7235 3.831 25.1912 3.62598 24.5187 3.62598C23.8182 3.62598 23.2578 3.85501 22.8375 4.31201C22.4173 4.76001 22.2071 5.41801 22.2071 6.28601V10.36H20.9322V2.67401H22.2071V4.49396C22.4032 3.86896 22.7489 3.388 23.2438 3.052C23.7482 2.716 24.3273 2.54797 24.981 2.54797ZM33.0867 2.57599C33.8339 2.57599 34.4643 2.76299 34.978 3.13599C35.501 3.50899 35.8653 4.00897 36.0707 4.63397V0L37.3456 0V10.36H36.0707V8.39996C35.8653 9.02496 35.501 9.52501 34.978 9.89801C34.4643 10.271 33.8339 10.458 33.0867 10.458C32.4049 10.458 31.7978 10.299 31.2654 9.98199C30.7331 9.66499 30.3128 9.21196 30.0046 8.62396C29.7057 8.02696 29.5562 7.32699 29.5562 6.52399C29.5562 5.72099 29.7057 5.02101 30.0046 4.42401C30.3128 3.82701 30.7331 3.369 31.2654 3.052C31.7978 2.735 32.4049 2.57599 33.0867 2.57599ZM33.4509 3.70996C32.6664 3.70996 32.0359 3.962 31.5596 4.466C31.0926 4.961 30.8591 5.64699 30.8591 6.52399C30.8591 7.40099 31.0926 8.09201 31.5596 8.59601C32.0359 9.09101 32.6664 9.33801 33.4509 9.33801C33.9553 9.33801 34.4036 9.22098 34.7958 8.98798C35.1974 8.75498 35.5103 8.428 35.7345 8.008C35.9586 7.579 36.0707 7.08399 36.0707 6.52399C36.0707 5.96399 35.9586 5.46898 35.7345 5.03998C35.5103 4.61098 35.1974 4.284 34.7958 4.06C34.4036 3.827 33.9553 3.70996 33.4509 3.70996ZM42.5267 2.57599C43.2739 2.57599 43.9044 2.76299 44.418 3.13599C44.9411 3.50899 45.3053 4.00897 45.5108 4.63397V2.67401H46.7857V10.36H45.5108V8.39996C45.3053 9.02496 44.9411 9.52501 44.418 9.89801C43.9044 10.271 43.2739 10.458 42.5267 10.458C41.845 10.458 41.2378 10.299 40.7055 9.98199C40.1731 9.66499 39.7528 9.21196 39.4446 8.62396C39.1457 8.02696 38.9963 7.32699 38.9963 6.52399C38.9963 5.72099 39.1457 5.02101 39.4446 4.42401C39.7528 3.82701 40.1731 3.369 40.7055 3.052C41.2378 2.735 41.845 2.57599 42.5267 2.57599ZM42.891 3.70996C42.1064 3.70996 41.476 3.962 40.9997 4.466C40.5327 4.961 40.2992 5.64699 40.2992 6.52399C40.2992 7.40099 40.5327 8.09201 40.9997 8.59601C41.476 9.09101 42.1064 9.33801 42.891 9.33801C43.3953 9.33801 43.8436 9.22098 44.2359 8.98798C44.6375 8.75498 44.9504 8.428 45.1745 8.008C45.3987 7.579 45.5108 7.08399 45.5108 6.52399C45.5108 5.96399 45.3987 5.46898 45.1745 5.03998C44.9504 4.61098 44.6375 4.284 44.2359 4.06C43.8436 3.827 43.3953 3.70996 42.891 3.70996ZM49.347 2.67401L51.8407 8.72198L54.1523 2.67401H55.5673L51.0001 14H49.5571L51.1542 10.234L47.918 2.67401H49.347Z" fill="#363B64"/>
</svg>
