<svg width="20" height="20" viewBox="0 0 20 20" fill="none" xmlns="http://www.w3.org/2000/svg">
<g clip-path="url(#clip0_53_6372)">
<path d="M15.4842 1.78353L10.2634 0.0427007C10.0924 -0.0142336 9.90763 -0.0142336 9.73669 0.0427007L4.51586 1.78353C3.68578 2.05927 2.9637 2.58958 2.45223 3.29913C1.94075 4.00867 1.66589 4.86136 1.66669 5.73603V10.0002C1.66669 16.3027 9.33336 19.7835 9.66169 19.9285C9.76821 19.9759 9.88347 20.0003 10 20.0003C10.1166 20.0003 10.2318 19.9759 10.3384 19.9285C10.6667 19.7835 18.3334 16.3027 18.3334 10.0002V5.73603C18.3342 4.86136 18.0593 4.00867 17.5478 3.29913C17.0363 2.58958 16.3143 2.05927 15.4842 1.78353ZM16.6667 10.0002C16.6667 14.546 11.4009 17.5277 10 18.241C8.59752 17.5302 3.33336 14.5577 3.33336 10.0002V5.73603C3.3334 5.21127 3.49858 4.69982 3.80549 4.27415C4.1124 3.84849 4.54548 3.53019 5.04336 3.36437L10 1.71187L14.9567 3.36437C15.4546 3.53019 15.8876 3.84849 16.1946 4.27415C16.5015 4.69982 16.6666 5.21127 16.6667 5.73603V10.0002Z" fill="#6F9DF5"/>
<path d="M12.75 6.91673L9.25997 10.4167L7.38997 8.46673C7.31492 8.38468 7.22421 8.31847 7.12319 8.27202C7.02216 8.22556 6.91286 8.1998 6.80172 8.19624C6.69058 8.19268 6.57985 8.2114 6.47606 8.2513C6.37226 8.29119 6.27751 8.35146 6.19736 8.42854C6.11722 8.50562 6.05332 8.59797 6.00941 8.70013C5.96551 8.80229 5.9425 8.91221 5.94173 9.0234C5.94096 9.13459 5.96246 9.24482 6.00495 9.34757C6.04744 9.45033 6.11006 9.54355 6.18914 9.62173L8.1108 11.6217C8.25412 11.7765 8.42734 11.9006 8.61998 11.9866C8.81263 12.0725 9.02071 12.1185 9.23164 12.1217H9.25914C9.46585 12.1224 9.67064 12.082 9.86162 12.0029C10.0526 11.9238 10.226 11.8076 10.3716 11.6609L13.9316 8.1009C14.0094 8.02331 14.0711 7.93116 14.1132 7.82972C14.1554 7.72829 14.1771 7.61954 14.1773 7.5097C14.1774 7.39985 14.1558 7.29106 14.1139 7.18953C14.072 7.08801 14.0105 6.99573 13.9329 6.91798C13.8553 6.84023 13.7632 6.77852 13.6617 6.73637C13.5603 6.69423 13.4515 6.67248 13.3417 6.67236C13.2318 6.67225 13.1231 6.69377 13.0215 6.7357C12.92 6.77762 12.8277 6.83914 12.75 6.91673Z" fill="#6F9DF5"/>
</g>
<defs>
<clipPath id="clip0_53_6372">
<rect width="20" height="20" fill="white"/>
</clipPath>
</defs>
</svg>
