<svg width="19" height="19" viewBox="0 0 19 19" fill="none" xmlns="http://www.w3.org/2000/svg">
<path fill-rule="evenodd" clip-rule="evenodd" d="M14.3957 12.9615C15.6491 11.3467 16.2401 9.31554 16.0481 7.28105C15.8561 5.24666 14.8953 3.36172 13.3615 2.00981C11.8288 0.658004 9.83668 -0.0593312 7.79336 0.00384494C5.74902 0.0671215 3.80619 0.906091 2.35887 2.3501C0.910549 3.79512 0.068304 5.7376 0.0039788 7.78164C-0.0603464 9.82577 0.657291 11.8176 2.01113 13.3513C3.36397 14.885 5.2525 15.8451 7.2898 16.036C9.32811 16.2269 11.3614 15.6342 12.9766 14.3787L13.0198 14.4239L17.2833 18.6855C17.3768 18.7788 17.4884 18.8528 17.61 18.9034C17.7316 18.9539 17.8622 18.9798 17.9949 18.9798C18.1266 18.9798 18.2572 18.9539 18.3799 18.9034C18.5015 18.8528 18.612 18.7788 18.7055 18.6855C18.799 18.5922 18.8734 18.4814 18.9236 18.3595C18.9739 18.2375 19 18.1069 19 17.9749C19 17.8429 18.9739 17.7122 18.9236 17.5903C18.8734 17.4684 18.799 17.3576 18.7055 17.2643L14.441 13.0037C14.4269 12.9892 14.4118 12.9751 14.3957 12.9615ZM12.3092 3.77131C12.8771 4.32925 13.3283 4.99385 13.6379 5.72696C13.9465 6.46006 14.1073 7.24711 14.1103 8.04258C14.1143 8.83806 13.9595 9.6264 13.656 10.3619C13.3535 11.0975 12.9072 11.7659 12.3444 12.3284C11.7815 12.8909 11.1131 13.3365 10.3764 13.6394C9.6407 13.9424 8.85172 14.0966 8.0557 14.0934C7.25967 14.0902 6.47169 13.9295 5.73798 13.6206C5.00528 13.3116 4.33989 12.8606 3.78107 12.2936C2.66543 11.1603 2.04329 9.63233 2.04932 8.04258C2.05636 6.45283 2.69056 4.92998 3.81625 3.80586C4.94094 2.68175 6.46466 2.04728 8.0557 2.04085C9.64674 2.03432 11.1755 2.65634 12.3092 3.77131Z" fill="#363B64"/>
</svg>
