<svg width="14" height="14" viewBox="0 0 14 14" fill="none" xmlns="http://www.w3.org/2000/svg">
<path d="M2.33333 5.83334C2.17862 5.83334 2.03025 5.77188 1.92085 5.66248C1.81146 5.55309 1.75 5.40472 1.75 5.25001C1.75 5.0953 1.81146 4.94692 1.92085 4.83753C2.03025 4.72813 2.17862 4.66667 2.33333 4.66667H7C7.30942 4.66667 7.60617 4.54376 7.82496 4.32496C8.04375 4.10617 8.16667 3.80942 8.16667 3.50001C8.16667 3.19059 8.04375 2.89384 7.82496 2.67505C7.60617 2.45625 7.30942 2.33334 7 2.33334C6.67917 2.33334 6.3875 2.46167 6.1775 2.67751C6.12441 2.73416 6.06027 2.77932 5.98903 2.81019C5.91779 2.84107 5.84097 2.85699 5.76333 2.85699C5.68569 2.85699 5.60888 2.84107 5.53764 2.81019C5.4664 2.77932 5.40225 2.73416 5.34917 2.67751C5.12167 2.45001 5.12167 2.07667 5.34917 1.84917C5.775 1.42917 6.35833 1.16667 7 1.16667C7.61884 1.16667 8.21233 1.4125 8.64992 1.85009C9.0875 2.28767 9.33333 2.88117 9.33333 3.50001C9.33333 4.11884 9.0875 4.71234 8.64992 5.14992C8.21233 5.58751 7.61884 5.83334 7 5.83334H2.33333ZM11.0833 7.00001C11.238 7.00001 11.3864 6.93855 11.4958 6.82915C11.6052 6.71975 11.6667 6.57138 11.6667 6.41667C11.6667 6.26196 11.6052 6.11359 11.4958 6.00419C11.3864 5.8948 11.238 5.83334 11.0833 5.83334C10.92 5.83334 10.7742 5.89751 10.6692 6.00251C10.6152 6.05658 10.5511 6.09949 10.4805 6.12876C10.41 6.15803 10.3343 6.1731 10.2579 6.1731C10.1815 6.1731 10.1059 6.15803 10.0353 6.12876C9.96474 6.09949 9.90063 6.05658 9.84667 6.00251C9.625 5.77501 9.625 5.40751 9.84667 5.18001C10.1617 4.86501 10.5992 4.66667 11.0833 4.66667C11.5475 4.66667 11.9926 4.85105 12.3208 5.17923C12.649 5.50742 12.8333 5.95254 12.8333 6.41667C12.8333 6.8808 12.649 7.32592 12.3208 7.65411C11.9926 7.9823 11.5475 8.16667 11.0833 8.16667H2.91667C2.76196 8.16667 2.61358 8.10521 2.50419 7.99582C2.39479 7.88642 2.33333 7.73805 2.33333 7.58334C2.33333 7.42863 2.39479 7.28026 2.50419 7.17086C2.61358 7.06146 2.76196 7.00001 2.91667 7.00001H11.0833ZM10.5 10.5H2.33333C2.17862 10.5 2.03025 10.4385 1.92085 10.3292C1.81146 10.2198 1.75 10.0714 1.75 9.91667C1.75 9.76196 1.81146 9.61359 1.92085 9.50419C2.03025 9.3948 2.17862 9.33334 2.33333 9.33334H10.5C10.9641 9.33334 11.4092 9.51771 11.7374 9.8459C12.0656 10.1741 12.25 10.6192 12.25 11.0833C12.25 11.5475 12.0656 11.9926 11.7374 12.3208C11.4092 12.649 10.9641 12.8333 10.5 12.8333C10.0158 12.8333 9.57833 12.635 9.26333 12.32C9.04167 12.0925 9.04167 11.725 9.26333 11.4975C9.3173 11.4434 9.3814 11.4005 9.45197 11.3713C9.52254 11.342 9.59819 11.3269 9.67458 11.3269C9.75098 11.3269 9.82663 11.342 9.8972 11.3713C9.96777 11.4005 10.0319 11.4434 10.0858 11.4975C10.1908 11.6025 10.3367 11.6667 10.5 11.6667C10.6547 11.6667 10.8031 11.6052 10.9125 11.4958C11.0219 11.3864 11.0833 11.238 11.0833 11.0833C11.0833 10.9286 11.0219 10.7803 10.9125 10.6709C10.8031 10.5615 10.6547 10.5 10.5 10.5Z" fill="white"/>
</svg>
