<svg width="20" height="10" viewBox="0 0 20 10" fill="none" xmlns="http://www.w3.org/2000/svg">
<path d="M0 9.02373C1.58207 7.96376 2.84715 6.91276 3.79619 5.87172C4.74524 4.82071 5.21977 3.84442 5.21977 2.94285C5.21977 2.38497 5.0752 1.93867 4.78709 1.60395C4.50796 1.26025 4.0524 1.0879 3.41937 1.0879C2.7684 1.0879 2.27493 1.29711 1.93997 1.71552C1.60502 2.12497 1.4186 2.69182 1.38171 3.41706H0.125616C0.190414 2.32023 0.530359 1.47837 1.14445 0.892602C1.75853 0.297863 2.54908 0 3.51706 0C4.43819 0 5.16892 0.246069 5.70824 0.739194C6.24756 1.23232 6.51773 1.9297 6.51773 2.83128C6.51773 3.57545 6.27548 4.33255 5.79199 5.10461C5.31747 5.86672 4.71734 6.57804 3.9916 7.23853C3.27483 7.88905 2.53512 8.4429 1.77249 8.89817H6.76893V9.94418H0L0 9.02373ZM13.9755 1.0879L10.2491 10H8.90927L12.6915 1.2134L7.52758 1.2134V0.111575L13.9755 0.111575V1.0879ZM17.2254 0.237135C17.9701 0.237135 18.5612 0.460284 18.9978 0.906587C19.4445 1.35289 19.6678 1.94762 19.6678 2.69179C19.6678 3.43596 19.4494 4.03565 19.0118 4.49092C18.5752 4.93722 17.989 5.16043 17.2533 5.16043C16.5096 5.16043 15.9095 4.93722 15.4529 4.49092C15.0063 4.03565 14.783 3.43596 14.783 2.69179C14.783 1.94762 15.0063 1.35289 15.4529 0.906587C15.8995 0.460284 16.4907 0.237135 17.2254 0.237135ZM17.2393 0.976329C16.8116 0.976329 16.4627 1.12972 16.1926 1.43655C15.9234 1.73442 15.7878 2.1568 15.7878 2.70571C15.7878 3.24467 15.9234 3.6681 16.1926 3.97494C16.4627 4.2728 16.8166 4.42124 17.2533 4.42124C17.672 4.42124 18.0069 4.2728 18.2581 3.97494C18.5193 3.6681 18.6489 3.24467 18.6489 2.70571C18.6489 2.1568 18.5193 1.73442 18.2581 1.43655C17.998 1.12972 17.658 0.976329 17.2393 0.976329Z" fill="#363B64"/>
</svg>
