<svg width="24" height="24" viewBox="0 0 24 24" fill="none" xmlns="http://www.w3.org/2000/svg">
<path d="M16.04 4C15.3842 4.00157 14.7469 4.21734 14.225 4.61447C13.7031 5.01161 13.3253 5.56836 13.149 6.2L9.09999 20.768C9.00318 21.1192 8.7947 21.4294 8.50605 21.6516C8.21741 21.8739 7.86427 21.9962 7.49999 22C7.14369 21.9953 6.79736 21.8817 6.50744 21.6746C6.21753 21.4674 5.99789 21.1765 5.87799 20.841L3.08499 13.161C2.90296 12.6377 2.59797 12.1658 2.19564 11.7849C1.79332 11.4039 1.30543 11.1252 0.772987 10.972C0.515197 10.9095 0.292776 10.7472 0.154656 10.5208C0.0165351 10.2943 -0.0259713 10.0223 0.0364871 9.7645C0.0989456 9.50671 0.261253 9.28429 0.487703 9.14617C0.714153 9.00805 0.986197 8.96554 1.24399 9.028C2.09811 9.2569 2.88348 9.69079 3.53191 10.292C4.18035 10.8932 4.67227 11.6436 4.96499 12.478L7.43899 19.278L11.223 5.662C11.5176 4.61035 12.1475 3.68363 13.017 3.02266C13.8864 2.3617 14.9478 2.00262 16.04 2H23C23.2652 2 23.5196 2.10536 23.7071 2.29289C23.8946 2.48043 24 2.73478 24 3C24 3.26522 23.8946 3.51957 23.7071 3.70711C23.5196 3.89464 23.2652 4 23 4H16.04ZM23.6 12.2C23.3878 12.0409 23.1211 11.9725 22.8586 12.01C22.596 12.0476 22.3591 12.1878 22.2 12.4L20 15.333L17.8 12.4C17.6409 12.1878 17.404 12.0476 17.1414 12.01C16.8789 11.9725 16.6122 12.0409 16.4 12.2C16.1878 12.3591 16.0475 12.596 16.01 12.8586C15.9725 13.1211 16.0409 13.3878 16.2 13.6L18.75 17L16.2 20.4C16.0409 20.6122 15.9725 20.8789 16.01 21.1414C16.0475 21.404 16.1878 21.6409 16.4 21.8C16.6122 21.9591 16.8789 22.0275 17.1414 21.9899C17.404 21.9524 17.6409 21.8122 17.8 21.6L20 18.667L22.2 21.6C22.2788 21.7051 22.3775 21.7936 22.4905 21.8605C22.6035 21.9274 22.7286 21.9714 22.8586 21.9899C22.9886 22.0085 23.121 22.0013 23.2482 21.9687C23.3754 21.9361 23.4949 21.8788 23.6 21.8C23.705 21.7212 23.7936 21.6225 23.8605 21.5095C23.9274 21.3965 23.9714 21.2714 23.9899 21.1414C24.0085 21.0114 24.0013 20.879 23.9687 20.7518C23.9361 20.6246 23.8788 20.5051 23.8 20.4L21.25 17L23.8 13.6C23.8788 13.4949 23.9361 13.3754 23.9687 13.2482C24.0013 13.121 24.0085 12.9886 23.9899 12.8586C23.9714 12.7286 23.9274 12.6035 23.8605 12.4905C23.7936 12.3775 23.705 12.2788 23.6 12.2Z" fill="#86242E"/>
</svg>
