<svg width="89" height="62" viewBox="0 0 89 62" fill="none" xmlns="http://www.w3.org/2000/svg">
<g filter="url(#filter0_d_4_214)">
<path d="M32.7105 13.6025L26.6361 27.6863H22.3864L28.5328 14.0823H21.33V10.5554H32.7105V13.6025ZM33.9533 24.4232C39.0433 20.7923 41.5883 17.9052 41.5883 15.7618C41.5883 14.4502 41.0201 13.7944 39.8836 13.7944C39.2434 13.7944 38.7712 14.0183 38.4671 14.4662C38.179 14.9141 38.0189 15.6099 37.9869 16.5536H33.9773C34.0734 14.4902 34.6976 12.9387 35.8501 11.899C37.0025 10.8593 38.4591 10.3395 40.2198 10.3395C42.0605 10.3395 43.445 10.8033 44.3734 11.731C45.3178 12.6588 45.79 13.8664 45.79 15.3539C45.79 17.0015 45.1577 18.617 43.8932 20.2005C42.6287 21.768 41.1161 23.0956 39.3554 24.1833H46.0541V27.4943H33.9533V24.4232Z" fill="white"/>
<path d="M67.67 8.53198V9.41972H63.9725V12.3468H67.1058V13.1986H63.9725V16.9894H62.8801V8.53198H67.67Z" fill="white"/>
<path d="M56.8286 15.0701C58.4177 15.0701 59.7439 13.8324 59.7439 12.2609C59.7439 10.6894 58.4177 9.45172 56.8286 9.45172C55.2395 9.45172 53.9133 10.6894 53.9133 12.2609C53.9133 13.8324 55.2395 15.0701 56.8286 15.0701Z" stroke="white"/>
</g>
<defs>
<filter id="filter0_d_4_214" x="9.61618e-06" y="2.88485e-06" width="89" height="61.8143" filterUnits="userSpaceOnUse" color-interpolation-filters="sRGB">
<feFlood flood-opacity="0" result="BackgroundImageFix"/>
<feColorMatrix in="SourceAlpha" type="matrix" values="0 0 0 0 0 0 0 0 0 0 0 0 0 0 0 0 0 0 127 0" result="hardAlpha"/>
<feOffset dy="12.6923"/>
<feGaussianBlur stdDeviation="10.5769"/>
<feColorMatrix type="matrix" values="0 0 0 0 0.121569 0 0 0 0 0.141176 0 0 0 0 0.294118 0 0 0 0.25 0"/>
<feBlend mode="normal" in2="BackgroundImageFix" result="effect1_dropShadow_4_214"/>
<feBlend mode="normal" in="SourceGraphic" in2="effect1_dropShadow_4_214" result="shape"/>
</filter>
</defs>
</svg>
