<svg width="129" height="17" viewBox="0 0 129 17" fill="none" xmlns="http://www.w3.org/2000/svg">
<path d="M6.29331 6.79976C6.97515 6.93813 7.51823 7.26266 7.92255 7.77344C8.33784 8.27354 8.54548 8.86413 8.54548 9.54521C8.54548 10.4922 8.22603 11.2424 7.58712 11.7958C6.95918 12.3385 6.04374 12.6099 4.83978 12.6099H0L0 1.3408L4.74394 1.3408C5.884 1.3408 6.75653 1.5909 7.3635 2.09101C7.98145 2.59111 8.28992 3.29344 8.28992 4.19798C8.28992 4.9003 8.10424 5.47492 7.73087 5.92186C7.36949 6.36879 6.8903 6.66139 6.29331 6.79976ZM2.25218 6.06552H4.28073C4.84578 6.06552 5.27105 5.94311 5.55856 5.69839C5.85706 5.443 6.0058 5.08117 6.0058 4.61298C6.0058 4.1448 5.86204 3.78297 5.57453 3.52758C5.28702 3.27219 4.84578 3.14449 4.24879 3.14449H2.25218V6.06552ZM4.39254 10.7743C4.98953 10.7743 5.44675 10.6466 5.7662 10.3912C6.08566 10.1251 6.2454 9.74204 6.2454 9.24193C6.2454 8.74182 6.08068 8.35874 5.75024 8.09267C5.43078 7.81603 4.97355 7.67766 4.37657 7.67766H2.25218L2.25218 10.7743H4.39254ZM18.4936 7.85325C18.4936 8.07671 18.4667 8.3321 18.4137 8.61942H11.9287C11.9607 9.40684 12.1733 9.98685 12.5677 10.3593C12.962 10.7317 13.4512 10.9179 14.0372 10.9179C14.5593 10.9179 14.9906 10.7902 15.331 10.5348C15.6824 10.2794 15.906 9.93357 16.0018 9.49732H18.3818C18.265 10.1145 18.0144 10.6678 17.6311 11.1574C17.2477 11.6469 16.7526 12.03 16.1456 12.3066C15.5496 12.5832 14.8837 12.7216 14.149 12.7216C13.2864 12.7216 12.5197 12.5408 11.8489 12.1789C11.178 11.8065 10.6559 11.2798 10.2835 10.5987C9.91118 9.91762 9.72448 9.11423 9.72448 8.18845C9.72448 7.26266 9.91118 6.45927 10.2835 5.7782C10.6559 5.08655 11.178 4.55981 11.8489 4.19798C12.5197 3.83614 13.2864 3.65527 14.149 3.65527C15.0225 3.65527 15.7832 3.83614 16.4331 4.19798C17.093 4.55981 17.5991 5.05991 17.9505 5.69839C18.3129 6.32619 18.4936 7.04448 18.4936 7.85325ZM16.2255 7.62978C16.2574 6.90621 16.0657 6.35812 15.6504 5.98571C15.2461 5.6133 14.745 5.42704 14.149 5.42704C13.542 5.42704 13.0309 5.6133 12.6156 5.98571C12.2003 6.35812 11.9717 6.90621 11.9287 7.62978L16.2255 7.62978ZM22.392 5.45896C22.7224 4.89501 23.1587 4.45336 23.7018 4.13412C24.2448 3.80421 24.8518 3.63931 25.5227 3.63931V6.04956H24.8678C23.2176 6.04956 22.392 6.81572 22.392 8.34806V12.6099H20.1398V3.76701H22.392V5.45896ZM29.0696 0.798093V12.6099H26.8175V0.798093H29.0696ZM30.8995 1.22906C30.8995 0.867227 31.0273 0.574629 31.2829 0.351163C31.5385 0.117022 31.8739 0 32.2892 0C32.7045 0 33.0399 0.117022 33.2955 0.351163C33.551 0.574629 33.6788 0.867227 33.6788 1.22906C33.6788 1.58022 33.551 1.87283 33.2955 2.10697C33.0399 2.33043 32.7045 2.44217 32.2892 2.44217C31.8739 2.44217 31.5385 2.33043 31.2829 2.10697C31.0273 1.87283 30.8995 1.58022 30.8995 1.22906ZM33.4073 3.76701V12.6099L31.1551 12.6099V3.76701H33.4073ZM40.7638 3.63931C41.7861 3.63931 42.6007 3.97451 43.2076 4.64491C43.8146 5.31531 44.1181 6.25706 44.1181 7.47016V12.6099H41.8819V7.72555C41.8819 7.02322 41.7002 6.48052 41.3388 6.09744C40.9764 5.70368 40.4813 5.50685 39.8533 5.50685C39.2144 5.50685 38.7033 5.71435 38.3199 6.12936C37.9366 6.54437 37.7449 7.14025 37.7449 7.91709V12.6099H35.4927V3.76701H37.7449V5.53877C37.9785 4.9429 38.3619 4.48 38.895 4.15009C39.438 3.8096 40.061 3.63931 40.7638 3.63931ZM47.5692 11.1574C47.8248 11.732 47.9526 12.3119 47.9526 12.8972C47.9526 13.5569 47.7769 14.0996 47.4255 14.5253C47.0841 14.951 46.552 15.1638 45.8282 15.1638V14.3018C46.1047 14.3018 46.3074 14.2327 46.4352 14.0943C46.563 13.9666 46.6268 13.7325 46.6268 13.392V13.2324H45.6046V11.1574H47.5692ZM58.3609 1.22906C59.7346 1.22906 60.8737 1.56955 61.7791 2.25063C62.6846 2.92102 63.2646 3.83085 63.5202 4.9801H61.1562C60.9326 4.46932 60.5762 4.06499 60.086 3.76701C59.6068 3.45844 59.0368 3.30411 58.3769 3.30411C57.727 3.30411 57.152 3.45306 56.6518 3.75104C56.1517 4.04903 55.7623 4.47462 55.4858 5.02799C55.2093 5.58137 55.0705 6.23042 55.0705 6.97534C55.0705 8.15652 55.385 9.07703 56.0129 9.73675C56.6518 10.3965 57.5193 10.7264 58.6165 10.7264C59.4261 10.7264 60.1179 10.487 60.693 10.0081C61.279 9.52924 61.6563 8.86413 61.827 8.01286H58.0095V6.40071H63.7118V8.57153C63.5521 9.31645 63.2376 10.0028 62.7694 10.6306C62.3112 11.2584 61.7042 11.7639 60.9485 12.147C60.2028 12.5194 59.3462 12.7057 58.3769 12.7057C57.2698 12.7057 56.2894 12.4662 55.4379 11.9874C54.5963 11.4978 53.9414 10.8222 53.4732 9.96022C53.015 9.0876 52.7864 8.09267 52.7864 6.97534C52.7864 5.85801 53.015 4.86837 53.4732 4.00643C53.9414 3.13382 54.5963 2.45284 55.4379 1.96331C56.2794 1.47378 57.2538 1.22906 58.3609 1.22906ZM73.7678 7.85325C73.7678 8.07671 73.7418 8.3321 73.6879 8.61942H67.2029C67.2349 9.40684 67.4485 9.98685 67.8418 10.3593C68.2362 10.7317 68.7263 10.9179 69.3113 10.9179C69.8334 10.9179 70.2647 10.7902 70.6051 10.5348C70.9565 10.2794 71.1802 9.93357 71.276 9.49732H73.656C73.5392 10.1145 73.2886 10.6678 72.9052 11.1574C72.5219 11.6469 72.0267 12.03 71.4197 12.3066C70.8238 12.5832 70.1579 12.7216 69.4231 12.7216C68.5606 12.7216 67.7939 12.5408 67.123 12.1789C66.4522 11.8065 65.9311 11.2798 65.5577 10.5987C65.1853 9.91762 64.9987 9.11423 64.9987 8.18845C64.9987 7.26266 65.1853 6.45927 65.5577 5.7782C65.9311 5.08655 66.4522 4.55981 67.123 4.19798C67.7939 3.83614 68.5606 3.65527 69.4231 3.65527C70.2967 3.65527 71.0584 3.83614 71.7073 4.19798C72.3682 4.55981 72.8733 5.05991 73.2247 5.69839C73.5871 6.32619 73.7678 7.04448 73.7678 7.85325ZM71.4996 7.62978C71.5316 6.90621 71.3399 6.35812 70.9246 5.98571C70.5203 5.6133 70.0201 5.42704 69.4231 5.42704C68.8162 5.42704 68.305 5.6133 67.8897 5.98571C67.4745 6.35812 67.2458 6.90621 67.2029 7.62978H71.4996ZM77.6672 5.45896C77.9966 4.89501 78.4338 4.45336 78.9769 4.13412C79.52 3.80421 80.127 3.63931 80.7978 3.63931V6.04956H80.1429C78.4917 6.04956 77.6672 6.81572 77.6672 8.34806V12.6099H75.415V3.76701H77.6672V5.45896ZM93.3525 3.63931C94.4287 3.63931 95.2753 3.97451 95.8922 4.64491C96.5211 5.30463 96.8346 6.24638 96.8346 7.47016V12.6099L94.5984 12.6099V7.72555C94.5984 7.04447 94.4227 6.52312 94.0713 6.16129C93.7309 5.78888 93.2567 5.60262 92.6497 5.60262C92.0218 5.60262 91.5216 5.79945 91.1483 6.19321C90.7759 6.58697 90.5892 7.16159 90.5892 7.91709V12.6099H88.353V7.72555C88.353 7.04447 88.1773 6.52312 87.8259 6.16129C87.4855 5.78888 87.0113 5.60262 86.4043 5.60262C85.7764 5.60262 85.2762 5.79945 84.9029 6.19321C84.5305 6.58697 84.3438 7.16159 84.3438 7.91709V12.6099H82.0916V3.76701H84.3438V5.443C84.5784 4.86838 84.9458 4.42673 85.4459 4.11816C85.9571 3.79893 86.5481 3.63931 87.2189 3.63931C87.9327 3.63931 88.5507 3.8096 89.0718 4.15009C89.6049 4.49057 90.0042 4.9801 90.2697 5.61858C90.5473 5.01203 90.9566 4.53318 91.4997 4.18201C92.0537 3.82018 92.6717 3.63931 93.3525 3.63931ZM102.327 3.65527C103.073 3.65527 103.712 3.83085 104.244 4.18201C104.777 4.53318 105.154 5.00674 105.378 5.60262V3.76701H107.614V12.6099H105.378V10.7583C105.154 11.3542 104.777 11.833 104.244 12.1949C103.712 12.546 103.073 12.7216 102.327 12.7216C101.583 12.7216 100.912 12.5408 100.315 12.1789C99.7187 11.8171 99.2505 11.2957 98.9091 10.6147C98.5797 9.923 98.4139 9.11423 98.4139 8.18845C98.4139 7.26266 98.5797 6.45927 98.9091 5.7782C99.2505 5.08655 99.7187 4.55981 100.315 4.19798C100.912 3.83614 101.583 3.65527 102.327 3.65527ZM103.03 5.61858C102.327 5.61858 101.763 5.84734 101.337 6.30494C100.912 6.76255 100.698 7.39035 100.698 8.18845C100.698 8.98654 100.912 9.61434 101.337 10.0719C101.763 10.5189 102.327 10.7423 103.03 10.7423C103.712 10.7423 104.271 10.5136 104.707 10.056C105.154 9.58781 105.378 8.96529 105.378 8.18845C105.378 7.40103 105.154 6.77851 104.707 6.3209C104.271 5.85272 103.712 5.61858 103.03 5.61858ZM114.975 3.63931C115.997 3.63931 116.812 3.97451 117.419 4.64491C118.026 5.31531 118.329 6.25706 118.329 7.47016V12.6099H116.093V7.72555C116.093 7.02322 115.912 6.48052 115.55 6.09744C115.187 5.70368 114.692 5.50685 114.064 5.50685C113.425 5.50685 112.914 5.71435 112.531 6.12936C112.148 6.54437 111.956 7.14025 111.956 7.91709V12.6099H109.704V3.76701H111.956V5.53877C112.191 4.9429 112.574 4.48 113.106 4.15009C113.649 3.8096 114.272 3.63931 114.975 3.63931ZM121.876 3.76701L124.288 9.76867L126.524 3.76701H129L123.585 16.8238H121.093L123.09 12.3545L119.368 3.76701L121.876 3.76701Z" fill="#363B64"/>
</svg>
