<svg width="92" height="13" viewBox="0 0 92 13" fill="none" xmlns="http://www.w3.org/2000/svg">
<path d="M0 1.73991L0 0.72694L2.40892 0.72694L2.40892 9.12854H1.26408L1.26408 1.73991H0ZM3.93665 7.19799V6.29224L8.25361 0.667356H9.42229V6.25648H10.6625V7.19799H9.42229V9.12854H8.32516V7.19799H3.93665ZM8.39672 1.99019L5.08148 6.25648H8.39672V1.99019ZM23.4248 2.4788C24.188 2.4788 24.8002 2.72504 25.2613 3.21761C25.7304 3.70224 25.9649 4.40538 25.9649 5.32697V9.12854H24.8797V5.42232C24.8797 4.77879 24.7207 4.28624 24.4027 3.94462C24.0926 3.60299 23.6633 3.43213 23.1148 3.43213C22.5423 3.43213 22.0812 3.62285 21.7314 4.0042C21.3896 4.3776 21.2186 4.92973 21.2186 5.66065V9.12854H20.1334V5.42232C20.1334 4.77879 19.9744 4.28624 19.6564 3.94462C19.3384 3.60299 18.9091 3.43213 18.3685 3.43213C17.7881 3.43213 17.323 3.62285 16.9732 4.0042C16.6314 4.3776 16.4604 4.92973 16.4604 5.66065V9.12854H15.3752V2.58602H16.4604V4.07566C16.6194 3.55925 16.9017 3.166 17.3071 2.89588C17.7205 2.61781 18.1936 2.4788 18.7262 2.4788C19.2828 2.4788 19.7637 2.62181 20.1692 2.90782C20.5826 3.18588 20.8768 3.599 21.0517 4.14719C21.2345 3.61489 21.5406 3.20571 21.9699 2.9197C22.3992 2.62574 22.8842 2.4788 23.4248 2.4788ZM27.7573 0.667356C27.7573 0.468737 27.8249 0.309862 27.96 0.190691C28.0952 0.0635745 28.274 0 28.4967 0C28.7193 0 28.8981 0.0635745 29.0333 0.190691C29.1684 0.309862 29.236 0.468737 29.236 0.667356C29.236 0.865975 29.1684 1.02885 29.0333 1.15596C28.8981 1.27513 28.7193 1.33471 28.4967 1.33471C28.274 1.33471 28.0952 1.27513 27.96 1.15596C27.8249 1.02885 27.7573 0.865975 27.7573 0.667356ZM29.0333 2.58602V9.12854H27.9481V2.58602H29.0333ZM34.5226 2.4788C35.2858 2.4788 35.902 2.72504 36.371 3.21761C36.8401 3.70224 37.0746 4.40538 37.0746 5.32697V9.12854H35.9894V5.42232C35.9894 4.77085 35.8225 4.2703 35.4886 3.92073C35.1547 3.57116 34.7015 3.39643 34.1291 3.39643C33.5328 3.39643 33.0558 3.59102 32.698 3.98032C32.3403 4.36166 32.1614 4.92179 32.1614 5.66065V9.12854L31.0762 9.12854V2.58602H32.1614V4.13525C32.3284 3.60295 32.6225 3.19383 33.0439 2.90782C33.4732 2.62181 33.9661 2.4788 34.5226 2.4788ZM44.8568 2.58602V9.12854H43.7716V7.59125C43.6046 8.12355 43.3065 8.53267 42.8772 8.81868C42.4558 9.09675 41.9629 9.23576 41.3985 9.23576C40.6432 9.23576 40.031 8.99345 39.562 8.50882C39.0929 8.01625 38.8584 7.31318 38.8584 6.39953V2.58602H39.9436V6.29224C39.9436 6.94371 40.1105 7.44825 40.4444 7.80577C40.7783 8.15533 41.2315 8.33007 41.8039 8.33007C42.4002 8.33007 42.8772 8.13941 43.235 7.75806C43.5927 7.36877 43.7716 6.80471 43.7716 6.06585V2.58602H44.8568ZM50.018 8.17514V9.12854H49.2071C48.5393 9.12854 48.0384 8.96966 47.7045 8.65187C47.3785 8.33408 47.2155 7.80175 47.2155 7.05494V3.52747H46.2377V2.58602H47.2155V0.953392H48.3127V2.58602H50.0061V3.52747H48.3127V7.07877C48.3127 7.49984 48.3882 7.78986 48.5392 7.94875C48.6983 8.0997 48.9686 8.17514 49.3502 8.17514H50.018ZM57.6626 5.49384C57.6626 5.72424 57.6467 5.92283 57.6149 6.08967H52.3797C52.4036 6.83648 52.6142 7.3966 53.0117 7.77C53.4172 8.14341 53.9101 8.33007 54.4905 8.33007C55.0152 8.33007 55.4525 8.19899 55.8023 7.93681C56.16 7.66669 56.3787 7.30916 56.4582 6.86425H57.6149C57.5354 7.3171 57.3565 7.72229 57.0783 8.0798C56.808 8.43731 56.4542 8.71541 56.0169 8.91402C55.5797 9.11264 55.0867 9.21194 54.5382 9.21194C53.9101 9.21194 53.3536 9.07692 52.8686 8.8068C52.3837 8.53668 52.0021 8.15136 51.7238 7.65084C51.4535 7.14237 51.3183 6.54647 51.3183 5.86322C51.3183 5.17997 51.4535 4.58413 51.7238 4.07566C52.0021 3.5672 52.3837 3.17794 52.8686 2.90782C53.3536 2.6377 53.9101 2.50262 54.5382 2.50262C55.1742 2.50262 55.7267 2.6377 56.1958 2.90782C56.6728 3.17794 57.0346 3.53941 57.281 3.99226C57.5354 4.44511 57.6626 4.94565 57.6626 5.49384ZM56.5655 5.5653C56.5893 5.08067 56.5098 4.67549 56.327 4.34976C56.1441 4.02402 55.8937 3.78171 55.5757 3.62282C55.2577 3.46392 54.9118 3.38448 54.5382 3.38448C53.9419 3.38448 53.4411 3.57121 53.0356 3.94462C52.6301 4.31007 52.4115 4.85028 52.3797 5.5653H56.5655ZM61.4313 2.50262C62.1707 2.50262 62.7631 2.69728 63.2083 3.08657C63.6615 3.46792 63.9357 3.98432 64.0311 4.63579H62.9936C62.9459 4.2465 62.783 3.92869 62.5047 3.6824C62.2344 3.42817 61.8686 3.30108 61.4075 3.30108C61.0179 3.30108 60.7118 3.39638 60.4892 3.58706C60.2746 3.76978 60.1672 4.02009 60.1672 4.33788C60.1672 4.57622 60.2388 4.77082 60.3819 4.92177C60.5329 5.06477 60.7158 5.176 60.9305 5.25545C61.1531 5.32695 61.4552 5.40645 61.8368 5.49384C62.3218 5.60507 62.7114 5.72023 63.0056 5.8394C63.3077 5.95062 63.5621 6.13336 63.7688 6.38759C63.9834 6.64182 64.0908 6.98343 64.0908 7.41244C64.0908 7.94474 63.888 8.37777 63.4826 8.71145C63.0851 9.04513 62.5524 9.21194 61.8845 9.21194C61.1054 9.21194 60.4693 9.02527 59.9764 8.65187C59.4835 8.27847 59.1933 7.75807 59.1059 7.09071H60.1553C60.1951 7.48794 60.366 7.80969 60.6681 8.05598C60.9782 8.30227 61.3836 8.42542 61.8845 8.42542C62.2582 8.42542 62.5484 8.33012 62.7551 8.13944C62.9698 7.94877 63.0771 7.69847 63.0771 7.38862C63.0771 7.13439 63.0016 6.9318 62.8505 6.78085C62.6995 6.6299 62.5126 6.51474 62.29 6.43529C62.0673 6.35584 61.7613 6.27241 61.3717 6.18502C60.8867 6.07379 60.4972 5.96257 60.203 5.85134C59.9168 5.74011 59.6703 5.56531 59.4636 5.32697C59.2649 5.08068 59.1655 4.751 59.1655 4.33788C59.1655 3.78969 59.3682 3.34872 59.7737 3.01504C60.1792 2.67342 60.7317 2.50262 61.4313 2.50262ZM71.7667 2.50262C72.4027 2.50262 72.9394 2.66149 73.3766 2.97928C73.8218 3.29707 74.1319 3.72211 74.3068 4.25441V2.58602H75.392V9.12854H74.3068V7.46015C74.1319 7.99244 73.8218 8.41749 73.3766 8.73528C72.9394 9.05307 72.4027 9.21194 71.7667 9.21194C71.1863 9.21194 70.6696 9.07692 70.2164 8.8068C69.7632 8.53668 69.4055 8.15136 69.1431 7.65084C68.8887 7.14237 68.7615 6.54647 68.7615 5.86322C68.7615 5.17997 68.8887 4.58413 69.1431 4.07566C69.4055 3.5672 69.7632 3.17794 70.2164 2.90782C70.6696 2.6377 71.1863 2.50262 71.7667 2.50262ZM72.0768 3.46789C71.4089 3.46789 70.8723 3.68241 70.4668 4.11142C70.0693 4.5325 69.8706 5.11641 69.8706 5.86322C69.8706 6.61003 70.0693 7.19794 70.4668 7.62696C70.8723 8.04803 71.4089 8.25861 72.0768 8.25861C72.5061 8.25861 72.8877 8.15925 73.2216 7.96063C73.5635 7.76201 73.8298 7.48398 74.0206 7.12647C74.2114 6.76101 74.3068 6.3399 74.3068 5.86322C74.3068 5.38653 74.2114 4.96549 74.0206 4.60003C73.8298 4.23457 73.5635 3.95648 73.2216 3.7658C72.8877 3.56719 72.5061 3.46789 72.0768 3.46789ZM80.1005 2.50262C80.7365 2.50262 81.2732 2.66149 81.7104 2.97928C82.1556 3.29707 82.4657 3.72211 82.6406 4.25441V2.58602H83.7258V9.23576C83.7258 9.83956 83.5986 10.3759 83.3442 10.8446C83.0898 11.3134 82.732 11.6788 82.2709 11.9409C81.8098 12.2031 81.2732 12.3343 80.661 12.3343C79.7785 12.3343 79.059 12.1198 78.5025 11.6907C77.946 11.2697 77.5922 10.6976 77.4412 9.97464H78.5145C78.6417 10.4116 78.8802 10.7532 79.23 10.9995C79.5877 11.2537 80.0449 11.3809 80.6014 11.3809C81.1897 11.3809 81.6747 11.1902 82.0563 10.8089C82.4458 10.4355 82.6406 9.91107 82.6406 9.23576V7.46015C82.4657 7.99244 82.1556 8.41749 81.7104 8.73528C81.2732 9.05307 80.7365 9.21194 80.1005 9.21194C79.5201 9.21194 79.0034 9.07692 78.5502 8.8068C78.0971 8.53668 77.7393 8.15136 77.4769 7.65084C77.2225 7.14237 77.0953 6.54647 77.0953 5.86322C77.0953 5.17997 77.2225 4.58413 77.4769 4.07566C77.7393 3.5672 78.0971 3.17794 78.5502 2.90782C79.0034 2.6377 79.5201 2.50262 80.1005 2.50262ZM80.4106 3.46789C79.7428 3.46789 79.2061 3.68241 78.8007 4.11142C78.4031 4.5325 78.2044 5.11641 78.2044 5.86322C78.2044 6.61003 78.4031 7.19794 78.8007 7.62696C79.2061 8.04803 79.7428 8.25861 80.4106 8.25861C80.8399 8.25861 81.2215 8.15925 81.5554 7.96063C81.8973 7.76201 82.1636 7.48398 82.3544 7.12647C82.5452 6.76101 82.6406 6.3399 82.6406 5.86322C82.6406 5.38653 82.5452 4.96549 82.3544 4.60003C82.1636 4.23457 81.8973 3.95648 81.5554 3.7658C81.2215 3.56719 80.8399 3.46789 80.4106 3.46789ZM88.7205 2.50262C89.3486 2.50262 89.9091 2.6377 90.402 2.90782C90.9029 3.17794 91.2924 3.5672 91.5707 4.07566C91.8569 4.58413 92 5.17997 92 5.86322C92 6.54647 91.8569 7.14237 91.5707 7.65084C91.2924 8.15136 90.9029 8.53668 90.402 8.8068C89.9091 9.07692 89.3486 9.21194 88.7205 9.21194C88.0925 9.21194 87.528 9.07692 87.0271 8.8068C86.5342 8.53668 86.1447 8.15136 85.8585 7.65084C85.5723 7.14237 85.4291 6.54647 85.4291 5.86322C85.4291 5.17997 85.5723 4.58413 85.8585 4.07566C86.1447 3.5672 86.5342 3.17794 87.0271 2.90782C87.528 2.6377 88.0925 2.50262 88.7205 2.50262ZM88.7205 3.45601C88.331 3.45601 87.9692 3.54338 87.6353 3.71816C87.3094 3.89295 87.043 4.16305 86.8363 4.52851C86.6376 4.88602 86.5382 5.33092 86.5382 5.86322C86.5382 6.38757 86.6376 6.83253 86.8363 7.19799C87.043 7.55551 87.3094 7.82161 87.6353 7.9964C87.9692 8.17118 88.331 8.25861 88.7205 8.25861C89.1101 8.25861 89.4679 8.17118 89.7938 7.9964C90.1277 7.82161 90.3941 7.55551 90.5928 7.19799C90.7995 6.83253 90.9029 6.38757 90.9029 5.86322C90.9029 5.33092 90.7995 4.88602 90.5928 4.52851C90.3941 4.16305 90.1277 3.89295 89.7938 3.71816C89.4679 3.54338 89.1101 3.45601 88.7205 3.45601Z" fill="#A098AE"/>
</svg>
