<svg width="211" height="15" viewBox="0 0 211 15" fill="none" xmlns="http://www.w3.org/2000/svg">
<g filter="url(#filter0_d_4_224)">
<path d="M3.46286 7.9437C3.64569 7.9437 3.82256 8.01419 3.95173 8.13831C4.0819 8.26243 4.15543 8.43025 4.15543 8.606C4.15543 8.78176 4.0819 8.94958 3.95173 9.0737C3.82256 9.19782 3.64569 9.2683 3.46286 9.2683C3.00777 9.2683 2.55765 9.18191 2.13734 9.01609C1.71702 8.84927 1.33546 8.606 1.01352 8.29819C0.364665 7.67758 0 6.83556 0 5.95778C0 5.08 0.364665 4.23797 1.01352 3.61737C1.66336 2.99677 2.54374 2.64822 3.46286 2.64822C4.15543 1.09225 5.74825 0 7.6173 0C9.99311 0 11.9387 1.76151 12.1195 3.9917L12.4653 3.97185C13.2006 3.97185 13.9051 4.25088 14.4238 4.74736C14.9435 5.24384 15.2356 5.91805 15.2356 6.62008C15.2356 7.3221 14.9435 7.99631 14.4238 8.49279C13.9051 8.98927 13.2006 9.2683 12.4653 9.2683H11.7727C11.5889 9.2683 11.413 9.19782 11.2829 9.0737C11.1537 8.94958 11.0802 8.78176 11.0802 8.606C11.0802 8.43025 11.1537 8.26243 11.2829 8.13831C11.413 8.01419 11.5889 7.9437 11.7727 7.9437H12.4653C12.8329 7.9437 13.1847 7.80467 13.445 7.55643C13.7044 7.30819 13.8504 6.97158 13.8504 6.62008C13.8504 6.26857 13.7044 5.93196 13.445 5.68372C13.1847 5.43548 12.8329 5.29645 12.4653 5.29645H11.0802V4.63415C11.0802 3.75637 10.7155 2.91434 10.0666 2.29374C9.41679 1.67314 8.53642 1.3246 7.6173 1.3246C5.88636 1.3246 4.46644 2.52906 4.19617 4.09794C3.96763 4.0185 3.71823 3.97185 3.46286 3.97185C2.91139 3.97185 2.38276 4.18137 1.99325 4.55373C1.60374 4.92609 1.38514 5.43151 1.38514 5.95778C1.38514 6.48504 1.60374 6.98944 1.99325 7.3628C2.38276 7.73516 2.91139 7.9437 3.46286 7.9437ZM6.23215 10.5919C6.5998 10.5919 6.95254 10.7309 7.21188 10.9802C7.47222 11.2284 7.6173 11.565 7.6173 11.9156C7.6173 12.2671 7.47222 12.6037 7.21188 12.8519C6.95254 13.1002 6.5998 13.2402 6.23215 13.2402C5.86549 13.2402 5.51275 13.1002 5.25341 12.8519C4.99307 12.6037 4.84701 12.2671 4.84701 11.9156C4.84701 11.565 4.99307 11.2284 5.25341 10.9802C5.51275 10.7309 5.86549 10.5919 6.23215 10.5919ZM9.34922 9.2683C9.62446 9.2683 9.88877 9.37256 10.0835 9.55924C10.2783 9.74492 10.3876 9.99713 10.3876 10.2613C10.3876 10.5244 10.2783 10.7766 10.0835 10.9633C9.88877 11.149 9.62446 11.2542 9.34922 11.2542C9.07398 11.2542 8.80967 11.149 8.61492 10.9633C8.41917 10.7766 8.30987 10.5244 8.30987 10.2613C8.30987 9.99713 8.41917 9.74492 8.61492 9.55924C8.80967 9.37256 9.07398 9.2683 9.34922 9.2683ZM6.57893 6.62008C6.85417 6.62008 7.11849 6.72434 7.31324 6.91101C7.50799 7.0967 7.6173 7.3499 7.6173 7.61304C7.6173 7.87617 7.50799 8.12938 7.31324 8.31506C7.11849 8.50174 6.85417 8.606 6.57893 8.606C6.30369 8.606 6.03938 8.50174 5.84463 8.31506C5.64987 8.12938 5.53958 7.87617 5.53958 7.61304C5.53958 7.3499 5.64987 7.0967 5.84463 6.91101C6.03938 6.72434 6.30369 6.62008 6.57893 6.62008Z" fill="white"/>
<path d="M22.3044 3.75238V2.17955H25.333V10.5919H23.5683V3.75238H22.3044ZM26.9556 6.31421C26.9556 9.166 28.0288 10.5919 30.1751 10.5919C31.3118 10.5919 32.1306 10.2106 32.6313 9.44801C33.1321 8.68541 33.3825 7.64081 33.3825 6.31421C33.3825 4.99556 33.1321 3.95495 32.6313 3.19236C32.1306 2.42976 31.3118 2.04846 30.1751 2.04846C28.0288 2.04846 26.9556 3.47037 26.9556 6.31421ZM31.7251 6.31421C31.7251 7.18008 31.6178 7.84737 31.4032 8.31605C31.1965 8.77678 30.7871 9.00713 30.1751 9.00713C29.555 9.00713 29.1377 8.77678 28.9231 8.31605C28.7164 7.84737 28.613 7.18008 28.613 6.31421C28.613 5.45629 28.7164 4.79699 28.9231 4.33626C29.1377 3.86758 29.555 3.63323 30.1751 3.63323C30.7871 3.63323 31.1965 3.86758 31.4032 4.33626C31.6178 4.79699 31.7251 5.45629 31.7251 6.31421ZM36.4569 2.04846C37.0133 2.04846 37.4664 2.21924 37.8162 2.56082C38.1739 2.89445 38.3528 3.35918 38.3528 3.95496C38.3528 4.55073 38.1739 5.0194 37.8162 5.36098C37.4664 5.69461 37.0133 5.86143 36.4569 5.86143C35.9005 5.86143 35.4434 5.69461 35.0857 5.36098C34.7359 5.0194 34.561 4.55073 34.561 3.95496C34.561 3.35918 34.7359 2.89445 35.0857 2.56082C35.4434 2.21924 35.9005 2.04846 36.4569 2.04846ZM41.8464 2.1557L37.1604 10.5919H35.5388L40.2248 2.1557H41.8464ZM35.6938 3.95496C35.6938 4.22504 35.7613 4.4435 35.8965 4.61032C36.0316 4.76919 36.2144 4.84862 36.445 4.84862C36.6755 4.84862 36.8623 4.76919 37.0054 4.61032C37.1485 4.4435 37.22 4.22504 37.22 3.95496C37.22 3.68487 37.1485 3.47038 37.0054 3.31151C36.8623 3.14469 36.6755 3.06127 36.445 3.06127C36.2144 3.06127 36.0316 3.14469 35.8965 3.31151C35.7613 3.47038 35.6938 3.68487 35.6938 3.95496ZM40.9402 6.88618C41.4967 6.88618 41.9498 7.05696 42.2995 7.39854C42.6493 7.73217 42.8242 8.19687 42.8242 8.79265C42.8242 9.38843 42.6493 9.85712 42.2995 10.1987C41.9498 10.5323 41.4967 10.6992 40.9402 10.6992C40.3838 10.6992 39.9267 10.5323 39.569 10.1987C39.2192 9.85712 39.0443 9.38843 39.0443 8.79265C39.0443 8.19687 39.2192 7.73217 39.569 7.39854C39.9267 7.05696 40.3838 6.88618 40.9402 6.88618ZM40.1771 8.79265C40.1771 9.07068 40.2447 9.2931 40.3798 9.45992C40.5149 9.61879 40.6978 9.69825 40.9283 9.69825C41.1588 9.69825 41.3456 9.61879 41.4887 9.45992C41.6318 9.2931 41.7033 9.07068 41.7033 8.79265C41.7033 8.52256 41.6318 8.30414 41.4887 8.13732C41.3456 7.9705 41.1588 7.88708 40.9283 7.88708C40.6978 7.88708 40.5149 7.9705 40.3798 8.13732C40.2447 8.2962 40.1771 8.51462 40.1771 8.79265Z" fill="white"/>
<path d="M78.5508 1.65526L77.8056 3.84076L77.0603 1.65526C77.0196 1.5371 77.0087 1.41099 77.0265 1.28687C77.0454 1.16375 77.0931 1.04558 77.1657 0.9443C77.2382 0.843018 77.3346 0.760591 77.4459 0.702999C77.5571 0.6464 77.6804 0.616636 77.8056 0.616636C77.9308 0.616636 78.054 0.6464 78.1653 0.702999C78.2756 0.760591 78.3719 0.843018 78.4445 0.9443C78.518 1.04558 78.5657 1.16375 78.5836 1.28687C78.6025 1.41099 78.5905 1.5371 78.5508 1.65526ZM71.8437 6.86831L74.0297 7.61304L71.8437 8.35776C71.7244 8.39748 71.5982 8.40938 71.475 8.39052C71.3508 8.37264 71.2336 8.325 71.1322 8.25252C71.0309 8.17904 70.9474 8.0837 70.8908 7.97249C70.8331 7.86128 70.8033 7.73815 70.8033 7.61304C70.8033 7.48792 70.8331 7.3648 70.8908 7.25358C70.9474 7.14237 71.0309 7.04704 71.1322 6.97356C71.2336 6.90107 71.3508 6.85343 71.475 6.83556C71.5982 6.81669 71.7244 6.8286 71.8437 6.86831ZM77.0603 13.5708L77.8056 11.3863L78.5508 13.5708C78.5905 13.689 78.6025 13.8151 78.5836 13.9392C78.5657 14.0623 78.518 14.1805 78.4445 14.2818C78.3719 14.3831 78.2756 14.4665 78.1653 14.5231C78.054 14.5807 77.9308 14.6094 77.8056 14.6094C77.6804 14.6094 77.5571 14.5807 77.4459 14.5231C77.3346 14.4665 77.2382 14.3831 77.1657 14.2818C77.0931 14.1805 77.0454 14.0623 77.0265 13.9392C77.0087 13.8151 77.0196 13.689 77.0603 13.5708ZM83.7674 8.35676L81.5804 7.61204L83.7674 6.86731C83.8857 6.8266 84.0119 6.81568 84.1351 6.83356C84.2593 6.85242 84.3766 6.89911 84.4789 6.97259C84.5803 7.04507 84.6627 7.14137 84.7204 7.25258C84.777 7.3638 84.8068 7.48692 84.8068 7.61204C84.8068 7.73616 84.777 7.85928 84.7204 7.97049C84.6627 8.0817 84.5803 8.17803 84.4789 8.25052C84.3766 8.324 84.2593 8.37068 84.1351 8.38955C84.0119 8.40742 83.8857 8.39648 83.7674 8.35676ZM74.1161 2.87362L75.1346 4.94494L73.0629 3.92716C72.9496 3.87155 72.8522 3.79014 72.7767 3.68985C72.7022 3.58957 72.6525 3.47238 72.6316 3.34925C72.6108 3.22513 72.6207 3.09905 72.6585 2.97989C72.6972 2.85974 72.7628 2.75151 72.8522 2.66314C72.9407 2.57476 73.049 2.50823 73.1682 2.4695C73.2875 2.43177 73.4146 2.42282 73.5378 2.44268C73.6621 2.46353 73.7793 2.51319 73.8797 2.58865C73.98 2.66312 74.0615 2.76141 74.1161 2.87362ZM73.0629 11.2989L75.1346 10.2811L74.1161 12.3515C74.0615 12.4647 73.98 12.5619 73.8797 12.6364C73.7793 12.7119 73.6621 12.7615 73.5378 12.7824C73.4146 12.8032 73.2875 12.7933 73.1682 12.7556C73.049 12.7168 72.9407 12.6513 72.8522 12.562C72.7628 12.4736 72.6972 12.3653 72.6585 12.2462C72.6207 12.127 72.6108 11.9999 72.6316 11.8758C72.6525 11.7527 72.7022 11.6355 72.7767 11.5352C72.8522 11.435 72.9496 11.3535 73.0629 11.2989ZM81.493 12.3515L80.4745 10.2811L82.5473 11.2989C82.6595 11.3535 82.7579 11.435 82.8324 11.5352C82.9079 11.6355 82.9576 11.7527 82.9775 11.8758C82.9984 11.9999 82.9894 12.127 82.9507 12.2462C82.9129 12.3653 82.8463 12.4736 82.7579 12.562C82.6695 12.6513 82.5612 12.7168 82.4409 12.7556C82.3217 12.7933 82.1955 12.8032 82.0713 12.7824C81.9481 12.7615 81.8308 12.7119 81.7305 12.6364C81.6301 12.5619 81.5486 12.4647 81.493 12.3515ZM82.5463 3.92519L80.4735 4.94397L81.493 2.87265C81.5476 2.75945 81.6291 2.66212 81.7295 2.58665C81.8298 2.51218 81.9471 2.46253 82.0703 2.44168C82.1945 2.42083 82.3207 2.42978 82.4409 2.4685C82.5602 2.50723 82.6685 2.57276 82.7569 2.66114C82.8463 2.7505 82.9119 2.85874 82.9507 2.97789C82.9884 3.09705 82.9974 3.22415 82.9775 3.34728C82.9566 3.4714 82.9069 3.58757 82.8314 3.68885C82.7569 3.78914 82.6595 3.87057 82.5463 3.92519ZM77.8056 10.9643C75.9564 10.9643 74.452 9.46094 74.452 7.61304C74.452 5.76513 75.9564 4.26179 77.8056 4.26179C79.6537 4.26179 81.1591 5.76513 81.1591 7.61304C81.1591 9.46094 79.6537 10.9643 77.8056 10.9643ZM77.8056 5.75123C76.7771 5.75123 75.9425 6.58631 75.9425 7.61304C75.9425 8.63976 76.7771 9.47484 77.8056 9.47484C78.833 9.47484 79.6687 8.63976 79.6687 7.61304C79.6687 6.58631 78.833 5.75123 77.8056 5.75123Z" fill="white"/>
<path d="M93.2708 7.30717C93.2708 10.1589 94.3439 11.5848 96.4902 11.5848C97.6269 11.5848 98.4457 11.2035 98.9465 10.441C99.4473 9.67836 99.6977 8.63376 99.6977 7.30717C99.6977 5.98852 99.4473 4.94792 98.9465 4.18532C98.4457 3.42273 97.6269 3.04143 96.4902 3.04143C94.3439 3.04143 93.2708 4.46333 93.2708 7.30717ZM98.0402 7.30717C98.0402 8.17303 97.9329 8.84032 97.7183 9.309C97.5116 9.76973 97.1022 10.0001 96.4902 10.0001C95.8701 10.0001 95.4528 9.76973 95.2382 9.309C95.0315 8.84032 94.9282 8.17303 94.9282 7.30717C94.9282 6.44925 95.0315 5.78995 95.2382 5.32922C95.4528 4.86054 95.8701 4.6262 96.4902 4.6262C97.1022 4.6262 97.5116 4.86054 97.7183 5.32922C97.9329 5.78995 98.0402 6.44925 98.0402 7.30717ZM102.7 9.83326V11.5848H100.888V9.83326H102.7ZM109.937 4.4832H105.943V6.60418C106.126 6.3897 106.376 6.21889 106.694 6.09179C107.02 5.95675 107.378 5.88924 107.767 5.88924C108.347 5.88924 108.828 6.01635 109.21 6.27054C109.599 6.5168 109.886 6.85043 110.068 7.27144C110.259 7.68451 110.355 8.14524 110.355 8.65364C110.355 9.55127 110.1 10.2702 109.591 10.8103C109.091 11.3505 108.371 11.6206 107.433 11.6206C106.821 11.6206 106.289 11.5134 105.835 11.2989C105.382 11.0765 105.029 10.7706 104.774 10.3814C104.52 9.98419 104.381 9.52346 104.357 8.99918H105.99C106.054 9.35665 106.201 9.64263 106.432 9.85711C106.662 10.0636 106.968 10.1669 107.35 10.1669C107.811 10.1669 108.153 10.0279 108.375 9.74987C108.606 9.4639 108.721 9.08656 108.721 8.61788C108.721 8.17304 108.602 7.82748 108.363 7.58123C108.125 7.33497 107.787 7.21187 107.35 7.21187C107.032 7.21187 106.761 7.28336 106.539 7.42635C106.316 7.56139 106.153 7.7441 106.05 7.97446H104.416V3.00567H109.937V4.4832Z" fill="white"/>
<path d="M137.755 6.45423C137.601 6.45423 137.454 6.39364 137.346 6.28441C137.237 6.17618 137.176 6.02923 137.176 5.87532C137.176 5.72141 137.237 5.57447 137.346 5.46624C137.454 5.35701 137.601 5.29642 137.755 5.29642H142.393C142.7 5.29642 142.995 5.17431 143.212 4.95685C143.429 4.73939 143.551 4.44447 143.551 4.13764C143.551 3.83082 143.429 3.5359 143.212 3.31844C142.995 3.10098 142.7 2.97886 142.393 2.97886C142.074 2.97886 141.784 3.10695 141.575 3.32044C141.522 3.37704 141.459 3.42171 141.388 3.4525C141.317 3.48328 141.241 3.49916 141.164 3.49916C141.086 3.49916 141.011 3.48328 140.939 3.4525C140.868 3.42171 140.805 3.37704 140.752 3.32044C140.526 3.09503 140.526 2.72466 140.752 2.49826C141.175 2.08122 141.755 1.82106 142.393 1.82106C143.008 1.82106 143.597 2.06435 144.032 2.49926C144.466 2.93418 144.711 3.523 144.711 4.13764C144.711 4.75228 144.466 5.3411 144.032 5.77602C143.597 6.20995 143.008 6.45423 142.393 6.45423H137.755ZM146.45 7.61301C146.604 7.61301 146.751 7.55245 146.86 7.44322C146.968 7.33499 147.029 7.18702 147.029 7.0341C147.029 6.88019 146.968 6.73324 146.86 6.62401C146.751 6.51578 146.604 6.45423 146.45 6.45423C146.288 6.45423 146.143 6.51778 146.038 6.62204C145.985 6.67666 145.921 6.71835 145.851 6.74813C145.781 6.77693 145.706 6.79183 145.63 6.79183C145.553 6.79183 145.479 6.77693 145.408 6.74813C145.338 6.71835 145.274 6.67666 145.221 6.62204C145.001 6.39664 145.001 6.03121 145.221 5.80581C145.534 5.49303 145.969 5.29642 146.45 5.29642C146.911 5.29642 147.353 5.47912 147.679 5.80481C148.006 6.1305 148.189 6.57337 148.189 7.0341C148.189 7.49484 148.006 7.9367 147.679 8.26239C147.353 8.58809 146.911 8.77178 146.45 8.77178H138.335C138.182 8.77178 138.034 8.71023 137.925 8.602C137.816 8.49277 137.755 8.34582 137.755 8.19191C137.755 8.03899 137.816 7.89102 137.925 7.78279C138.034 7.67357 138.182 7.61301 138.335 7.61301H146.45ZM145.87 11.0884H137.755C137.601 11.0884 137.454 11.0278 137.346 10.9186C137.237 10.8103 137.176 10.6624 137.176 10.5095C137.176 10.3556 137.237 10.2086 137.346 10.0994C137.454 9.99115 137.601 9.92959 137.755 9.92959H145.87C146.331 9.92959 146.774 10.1133 147.1 10.439C147.426 10.7647 147.609 11.2065 147.609 11.6673C147.609 12.128 147.426 12.5709 147.1 12.8966C146.774 13.2223 146.331 13.405 145.87 13.405C145.39 13.405 144.954 13.2083 144.641 12.8956C144.421 12.6692 144.421 12.3048 144.641 12.0784C144.695 12.0247 144.759 11.983 144.829 11.9532C144.899 11.9244 144.974 11.9095 145.05 11.9095C145.126 11.9095 145.201 11.9244 145.271 11.9532C145.341 11.983 145.405 12.0247 145.459 12.0784C145.563 12.1826 145.707 12.2471 145.87 12.2471C146.023 12.2471 146.172 12.1856 146.28 12.0774C146.389 11.9681 146.45 11.8212 146.45 11.6673C146.45 11.5144 146.389 11.3664 146.28 11.2582C146.172 11.1489 146.023 11.0884 145.87 11.0884Z" fill="white"/>
<path d="M155.685 4.74536V3.17252H158.713V11.5849H156.949V4.74536H155.685ZM160.217 10.2623C162.912 8.39549 164.259 6.84648 164.259 5.6152C164.259 5.24185 164.168 4.94793 163.985 4.73345C163.81 4.51897 163.532 4.41173 163.15 4.41173C162.363 4.41173 161.946 4.94792 161.898 6.02032H160.264C160.312 5.02736 160.614 4.27667 161.171 3.76828C161.727 3.25193 162.431 2.99377 163.281 2.99377C164.148 2.99377 164.811 3.22018 165.272 3.67297C165.741 4.11782 165.976 4.71359 165.976 5.46029C165.976 6.04813 165.801 6.63993 165.451 7.23571C165.109 7.82354 164.672 8.3677 164.14 8.86815C163.607 9.36066 163.047 9.78564 162.458 10.1431H166.143V11.5134H160.217V10.2623ZM167.293 9.89287V8.49876L171.323 3.07719H173.123V8.43918H174.22V9.89287H173.123V11.5849H171.43V9.89287H167.293ZM171.561 5.04324L169.01 8.43918H171.561V5.04324ZM186.968 4.88836C187.771 4.88836 188.403 5.13857 188.864 5.63902C189.333 6.13153 189.567 6.83454 189.567 7.74807V11.5849H187.898V7.93873C187.898 7.43033 187.767 7.0411 187.504 6.77101C187.25 6.49298 186.896 6.35395 186.443 6.35395C185.974 6.35395 185.6 6.50091 185.322 6.79483C185.044 7.08875 184.905 7.5177 184.905 8.0817V11.5849H183.236V7.93873C183.236 7.43033 183.104 7.0411 182.842 6.77101C182.588 6.49298 182.234 6.35395 181.781 6.35395C181.312 6.35395 180.938 6.50091 180.66 6.79483C180.382 7.08875 180.243 7.5177 180.243 8.0817V11.5849H178.561V4.98366H180.243V6.2348C180.418 5.80584 180.692 5.47618 181.065 5.24581C181.447 5.0075 181.888 4.88836 182.389 4.88836C182.922 4.88836 183.383 5.01546 183.772 5.26966C184.17 5.52386 184.468 5.88924 184.666 6.36586C184.873 5.91307 185.179 5.55562 185.585 5.29348C185.998 5.02339 186.459 4.88836 186.968 4.88836ZM195.29 4.90027C195.846 4.90027 196.347 5.0353 196.792 5.30539C197.237 5.57547 197.583 5.9687 197.829 6.48504C198.084 6.99344 198.211 7.59317 198.211 8.28427C198.211 8.97538 198.084 9.5791 197.829 10.0954C197.583 10.6038 197.237 10.9931 196.792 11.2632C196.347 11.5332 195.846 11.6683 195.29 11.6683C194.733 11.6683 194.256 11.5372 193.859 11.2751C193.469 11.005 193.191 10.6475 193.024 10.2027V14.7306H191.343V4.98366H193.024V6.35395C193.191 5.90911 193.469 5.55562 193.859 5.29348C194.256 5.03133 194.733 4.90027 195.29 4.90027ZM194.765 6.36586C194.256 6.36586 193.835 6.54064 193.501 6.89016C193.175 7.23174 193.012 7.69644 193.012 8.28427C193.012 8.86416 193.175 9.32886 193.501 9.67839C193.835 10.02 194.256 10.1908 194.765 10.1908C195.29 10.1908 195.711 10.024 196.029 9.69032C196.347 9.34875 196.506 8.88005 196.506 8.28427C196.506 7.6885 196.347 7.21983 196.029 6.87825C195.711 6.53667 195.29 6.36586 194.765 6.36586ZM203.669 0.300845L200.438 13.7416H198.816L202.047 0.300845L203.669 0.300845ZM208.496 4.88836C209.259 4.88836 209.867 5.13857 210.32 5.63902C210.774 6.13947 211 6.84248 211 7.74807V11.5849H209.331V7.93873C209.331 7.41445 209.196 7.00932 208.925 6.72335C208.655 6.42943 208.285 6.28247 207.816 6.28247C207.34 6.28247 206.958 6.43736 206.672 6.74716C206.386 7.05697 206.243 7.50181 206.243 8.0817V11.5849H204.561V2.76737H206.243V6.30629C206.417 5.86144 206.704 5.51591 207.101 5.26966C207.506 5.01546 207.971 4.88836 208.496 4.88836Z" fill="white"/>
</g>
<defs>
<filter id="filter0_d_4_224" x="-21.1862" y="-8.47447" width="253.373" height="57.1031" filterUnits="userSpaceOnUse" color-interpolation-filters="sRGB">
<feFlood flood-opacity="0" result="BackgroundImageFix"/>
<feColorMatrix in="SourceAlpha" type="matrix" values="0 0 0 0 0 0 0 0 0 0 0 0 0 0 0 0 0 0 127 0" result="hardAlpha"/>
<feOffset dy="12.6923"/>
<feGaussianBlur stdDeviation="10.5769"/>
<feColorMatrix type="matrix" values="0 0 0 0 0.121569 0 0 0 0 0.141176 0 0 0 0 0.294118 0 0 0 0.25 0"/>
<feBlend mode="normal" in2="BackgroundImageFix" result="effect1_dropShadow_4_224"/>
<feBlend mode="normal" in="SourceGraphic" in2="effect1_dropShadow_4_224" result="shape"/>
</filter>
</defs>
</svg>
