<svg width="32" height="32" viewBox="0 0 32 32" fill="none" xmlns="http://www.w3.org/2000/svg">
<path d="M28 16.5652V14.6665C28 11.4839 26.7357 8.43166 24.4853 6.18122C22.2348 3.93079 19.1826 2.6665 16 2.6665C12.8174 2.6665 9.76513 3.93079 7.51469 6.18122C5.26426 8.43166 3.99997 11.4839 3.99997 14.6665V16.5652C2.60152 17.1809 1.45704 18.2584 0.758137 19.6173C0.0592317 20.9761 -0.151677 22.5337 0.160718 24.0295C0.473114 25.5252 1.28985 26.8683 2.4742 27.8338C3.65855 28.7993 5.13862 29.3286 6.66664 29.3332C7.37389 29.3332 8.05216 29.0522 8.55226 28.5521C9.05236 28.052 9.33331 27.3737 9.33331 26.6665V18.6665C9.33331 17.9593 9.05236 17.281 8.55226 16.7809C8.05216 16.2808 7.37389 15.9998 6.66664 15.9998V14.6665C6.66664 12.1912 7.64997 9.81718 9.40031 8.06684C11.1507 6.3165 13.5246 5.33317 16 5.33317C18.4753 5.33317 20.8493 6.3165 22.5996 8.06684C24.35 9.81718 25.3333 12.1912 25.3333 14.6665V15.9998C24.6261 15.9998 23.9478 16.2808 23.4477 16.7809C22.9476 17.281 22.6666 17.9593 22.6666 18.6665V26.6665H18.6666C18.313 26.6665 17.9739 26.807 17.7238 27.057C17.4738 27.3071 17.3333 27.6462 17.3333 27.9998C17.3333 28.3535 17.4738 28.6926 17.7238 28.9426C17.9739 29.1927 18.313 29.3332 18.6666 29.3332H25.3333C26.8613 29.3286 28.3414 28.7993 29.5257 27.8338C30.7101 26.8683 31.5268 25.5252 31.8392 24.0295C32.1516 22.5337 31.9407 20.9761 31.2418 19.6173C30.5429 18.2584 29.3984 17.1809 28 16.5652ZM6.66664 26.6665C5.60578 26.6665 4.58836 26.2451 3.83821 25.4949C3.08807 24.7448 2.66664 23.7274 2.66664 22.6665C2.66664 21.6056 3.08807 20.5882 3.83821 19.8381C4.58836 19.0879 5.60578 18.6665 6.66664 18.6665V26.6665ZM25.3333 26.6665V18.6665C26.3942 18.6665 27.4116 19.0879 28.1617 19.8381C28.9119 20.5882 29.3333 21.6056 29.3333 22.6665C29.3333 23.7274 28.9119 24.7448 28.1617 25.4949C27.4116 26.2451 26.3942 26.6665 25.3333 26.6665Z" fill="white"/>
</svg>
