<svg width="59" height="14" viewBox="0 0 59 14" fill="none" xmlns="http://www.w3.org/2000/svg">
<path d="M6.85073 0.48999V1.526H4.0628V10.36H2.78792L2.78792 1.526H0L0 0.48999L6.85073 0.48999ZM14.9547 2.67401V10.36H13.6798V8.55395C13.4837 9.17896 13.1335 9.65997 12.6291 9.99597C12.1341 10.323 11.5551 10.486 10.8919 10.486C10.0046 10.486 9.2855 10.201 8.73442 9.63196C8.18334 9.05296 7.90785 8.22699 7.90785 7.15399V2.67401L9.18273 2.67401V7.02802C9.18273 7.79302 9.37887 8.38597 9.77114 8.80597C10.1634 9.21697 10.6958 9.422 11.3682 9.422C12.0687 9.422 12.6291 9.198 13.0494 8.75C13.4697 8.293 13.6798 7.62996 13.6798 6.76196V2.67401H14.9547ZM24.0721 6.08997C24.0721 6.36097 24.0534 6.59398 24.0161 6.78998H17.8658C17.8938 7.66698 18.1413 8.32498 18.6083 8.76398C19.0847 9.20298 19.6637 9.422 20.3455 9.422C20.962 9.422 21.4756 9.26796 21.8866 8.95996C22.3069 8.64296 22.5637 8.22301 22.6571 7.70001H24.0161C23.9226 8.23201 23.7125 8.70799 23.3856 9.12799C23.068 9.54799 22.6524 9.87497 22.1388 10.108C21.625 10.341 21.046 10.458 20.4016 10.458C19.6637 10.458 19.0099 10.299 18.4402 9.982C17.8704 9.665 17.4221 9.21196 17.0953 8.62396C16.7777 8.02696 16.619 7.32699 16.619 6.52399C16.619 5.72099 16.7777 5.02101 17.0953 4.42401C17.4221 3.82701 17.8704 3.369 18.4402 3.052C19.0099 2.735 19.6637 2.57599 20.4016 2.57599C21.1487 2.57599 21.7978 2.735 22.3489 3.052C22.9093 3.369 23.3342 3.79399 23.6238 4.32599C23.9226 4.85799 24.0721 5.44597 24.0721 6.08997ZM22.7832 6.17401C22.8112 5.60501 22.7178 5.12897 22.503 4.74597C22.2882 4.36297 21.994 4.07897 21.6204 3.89197C21.2468 3.70497 20.8405 3.612 20.4016 3.612C19.7011 3.612 19.1127 3.83096 18.6364 4.26996C18.16 4.69896 17.9031 5.33401 17.8658 6.17401H22.7832ZM28.1492 2.57599C29.0178 2.57599 29.7136 2.80496 30.2367 3.26196C30.769 3.70996 31.0912 4.31697 31.2033 5.08197H29.9845C29.9284 4.62497 29.7369 4.25098 29.4101 3.96198C29.0925 3.66298 28.6629 3.51398 28.1212 3.51398C27.6635 3.51398 27.3039 3.62598 27.0424 3.84998C26.7903 4.06498 26.6642 4.35899 26.6642 4.73199C26.6642 5.01199 26.7482 5.24097 26.9164 5.41797C27.0938 5.58597 27.3086 5.717 27.5608 5.81C27.8223 5.894 28.1772 5.98697 28.6255 6.08997C29.1952 6.22097 29.6529 6.35597 29.9985 6.49597C30.3533 6.62697 30.6522 6.84101 30.8951 7.14001C31.1473 7.43902 31.2734 7.83999 31.2734 8.34399C31.2734 8.96899 31.0352 9.478 30.5589 9.87C30.0919 10.262 29.4661 10.458 28.6816 10.458C27.7662 10.458 27.019 10.239 26.44 9.79999C25.8609 9.36099 25.52 8.75 25.4173 7.966H26.6502C26.6968 8.433 26.8976 8.81098 27.2526 9.09998C27.6168 9.38898 28.0932 9.534 28.6816 9.534C29.1205 9.534 29.4614 9.422 29.7043 9.198C29.9565 8.974 30.0825 8.67998 30.0825 8.31598C30.0825 8.01698 29.9938 7.77899 29.8164 7.60199C29.6388 7.42499 29.4194 7.28898 29.1579 7.19598C28.8963 7.10298 28.5368 7.00498 28.0792 6.90198C27.5094 6.77098 27.0518 6.64101 26.7062 6.51001C26.37 6.37901 26.0804 6.17398 25.8376 5.89398C25.6041 5.60498 25.4874 5.21699 25.4874 4.73199C25.4874 4.08799 25.7255 3.56998 26.2019 3.17798C26.6782 2.77698 27.3272 2.57599 28.1492 2.57599ZM36.1291 2.57599C36.8763 2.57599 37.5068 2.76299 38.0204 3.13599C38.5435 3.50899 38.9077 4.00897 39.1132 4.63397V0L40.3881 0V10.36H39.1132V8.39996C38.9077 9.02496 38.5435 9.52501 38.0204 9.89801C37.5068 10.271 36.8763 10.458 36.1291 10.458C35.4473 10.458 34.8402 10.299 34.3079 9.982C33.7755 9.665 33.3552 9.21196 33.047 8.62396C32.7481 8.02696 32.5987 7.32699 32.5987 6.52399C32.5987 5.72099 32.7481 5.02101 33.047 4.42401C33.3552 3.82701 33.7755 3.369 34.3079 3.052C34.8402 2.735 35.4473 2.57599 36.1291 2.57599ZM36.4934 3.70996C35.7088 3.70996 35.0784 3.962 34.6021 4.466C34.135 4.961 33.9016 5.64699 33.9016 6.52399C33.9016 7.40099 34.135 8.09201 34.6021 8.59601C35.0784 9.09101 35.7088 9.33801 36.4934 9.33801C36.9977 9.33801 37.446 9.22098 37.8383 8.98798C38.2399 8.75498 38.5528 8.428 38.7769 8.008C39.0011 7.579 39.1132 7.08399 39.1132 6.52399C39.1132 5.96399 39.0011 5.46898 38.7769 5.03998C38.5528 4.61098 38.2399 4.284 37.8383 4.06C37.446 3.827 36.9977 3.70996 36.4934 3.70996ZM45.5692 2.57599C46.3164 2.57599 46.9469 2.76299 47.4605 3.13599C47.9836 3.50899 48.3478 4.00897 48.5533 4.63397V2.67401H49.8282V10.36H48.5533V8.39996C48.3478 9.02496 47.9836 9.52501 47.4605 9.89801C46.9469 10.271 46.3164 10.458 45.5692 10.458C44.8875 10.458 44.2803 10.299 43.748 9.982C43.2156 9.665 42.7953 9.21196 42.4871 8.62396C42.1882 8.02696 42.0388 7.32699 42.0388 6.52399C42.0388 5.72099 42.1882 5.02101 42.4871 4.42401C42.7953 3.82701 43.2156 3.369 43.748 3.052C44.2803 2.735 44.8875 2.57599 45.5692 2.57599ZM45.9335 3.70996C45.1489 3.70996 44.5185 3.962 44.0422 4.466C43.5751 4.961 43.3417 5.64699 43.3417 6.52399C43.3417 7.40099 43.5751 8.09201 44.0422 8.59601C44.5185 9.09101 45.1489 9.33801 45.9335 9.33801C46.4378 9.33801 46.8861 9.22098 47.2784 8.98798C47.68 8.75498 47.9929 8.428 48.2171 8.008C48.4412 7.579 48.5533 7.08399 48.5533 6.52399C48.5533 5.96399 48.4412 5.46898 48.2171 5.03998C47.9929 4.61098 47.68 4.284 47.2784 4.06C46.8861 3.827 46.4378 3.70996 45.9335 3.70996ZM52.3895 2.67401L54.8832 8.72199L57.1948 2.67401H58.6098L54.0427 14H52.5997L54.1968 10.234L50.9605 2.67401H52.3895Z" fill="#363B64"/>
</svg>
