<svg width="18" height="18" viewBox="0 0 18 18" fill="none" xmlns="http://www.w3.org/2000/svg">
<path d="M9.75002 2.99999L9.00002 5.20049L8.25002 2.99999C8.20959 2.88081 8.19813 2.75371 8.21661 2.62922C8.23509 2.50473 8.28297 2.38644 8.35628 2.28414C8.42959 2.18185 8.52623 2.0985 8.63818 2.041C8.75013 1.9835 8.87417 1.95351 9.00002 1.95351C9.12588 1.95351 9.24992 1.9835 9.36187 2.041C9.47382 2.0985 9.57046 2.18185 9.64377 2.28414C9.71708 2.38644 9.76496 2.50473 9.78344 2.62922C9.80192 2.75371 9.79046 2.88081 9.75002 2.99999ZM3.00002 8.24999L5.20052 8.99999L3.00002 9.74999C2.88085 9.79043 2.75374 9.80189 2.62925 9.78341C2.50476 9.76493 2.38647 9.71705 2.28418 9.64374C2.18188 9.57043 2.09853 9.47379 2.04103 9.36184C1.98353 9.24989 1.95354 9.12585 1.95354 8.99999C1.95354 8.87414 1.98353 8.7501 2.04103 8.63815C2.09853 8.5262 2.18188 8.42956 2.28418 8.35625C2.38647 8.28293 2.50476 8.23505 2.62925 8.21658C2.75374 8.1981 2.88085 8.20955 3.00002 8.24999ZM8.25002 15L9.00002 12.7995L9.75002 15C9.79046 15.1192 9.80192 15.2463 9.78344 15.3708C9.76496 15.4953 9.71708 15.6135 9.64377 15.7158C9.57046 15.8181 9.47382 15.9015 9.36187 15.959C9.24992 16.0165 9.12588 16.0465 9.00002 16.0465C8.87417 16.0465 8.75013 16.0165 8.63818 15.959C8.52623 15.9015 8.42959 15.8181 8.35628 15.7158C8.28297 15.6135 8.23509 15.4953 8.21661 15.3708C8.19813 15.2463 8.20959 15.1192 8.25002 15ZM15 9.74849L12.7995 8.99849L15 8.24849C15.1192 8.20805 15.2463 8.1966 15.3708 8.21508C15.4953 8.23355 15.6136 8.28143 15.7159 8.35475C15.8182 8.42806 15.9015 8.5247 15.959 8.63665C16.0165 8.7486 16.0465 8.87264 16.0465 8.99849C16.0465 9.12435 16.0165 9.24839 15.959 9.36034C15.9015 9.47229 15.8182 9.56893 15.7159 9.64224C15.6136 9.71555 15.4953 9.76343 15.3708 9.78191C15.2463 9.80039 15.1192 9.78893 15 9.74849ZM5.28752 4.22699L6.31277 6.31274L4.22703 5.28749C4.11368 5.23203 4.01521 5.15031 3.9398 5.04913C3.8644 4.94795 3.81423 4.83023 3.79349 4.70576C3.77274 4.58129 3.782 4.45367 3.82051 4.3335C3.85902 4.21333 3.92566 4.10409 4.01489 4.01486C4.10412 3.92563 4.21336 3.85899 4.33353 3.82048C4.4537 3.78197 4.58132 3.77271 4.70579 3.79346C4.83026 3.8142 4.94798 3.86437 5.04916 3.93977C5.15035 4.01518 5.23206 4.11365 5.28752 4.22699ZM4.22703 12.7117L6.31277 11.6865L5.28752 13.7722C5.23206 13.8856 5.15035 13.9841 5.04916 14.0595C4.94798 14.1349 4.83026 14.185 4.70579 14.2058C4.58132 14.2265 4.4537 14.2173 4.33353 14.1788C4.21336 14.1402 4.10412 14.0736 4.01489 13.9844C3.92566 13.8952 3.85902 13.7859 3.82051 13.6657C3.782 13.5456 3.77274 13.4179 3.79349 13.2935C3.81423 13.169 3.8644 13.0513 3.9398 12.9501C4.01521 12.8489 4.11368 12.7672 4.22703 12.7117ZM12.7118 13.7722L11.6865 11.6865L13.7723 12.7117C13.8856 12.7672 13.9841 12.8489 14.0595 12.9501C14.1349 13.0513 14.1851 13.169 14.2058 13.2935C14.2266 13.4179 14.2173 13.5456 14.1788 13.6657C14.1403 13.7859 14.0736 13.8952 13.9844 13.9844C13.8952 14.0736 13.7859 14.1402 13.6658 14.1788C13.5456 14.2173 13.418 14.2265 13.2935 14.2058C13.169 14.185 13.0513 14.1349 12.9501 14.0595C12.849 13.9841 12.7672 13.8856 12.7118 13.7722ZM13.7715 5.28599L11.685 6.31199L12.711 4.22549C12.7665 4.11215 12.8482 4.01368 12.9494 3.93827C13.0506 3.86287 13.1683 3.8127 13.2928 3.79196C13.4172 3.77121 13.5449 3.78047 13.665 3.81898C13.7852 3.85749 13.8944 3.92413 13.9837 4.01336C14.0729 4.10259 14.1395 4.21183 14.178 4.332C14.2165 4.45216 14.2258 4.57979 14.2051 4.70426C14.1843 4.82873 14.1342 4.94645 14.0587 5.04763C13.9833 5.14881 13.8849 5.23053 13.7715 5.28599ZM9.00002 12.375C7.13927 12.375 5.62502 10.8607 5.62502 8.99999C5.62502 7.13924 7.13927 5.62499 9.00002 5.62499C10.8608 5.62499 12.375 7.13924 12.375 8.99999C12.375 10.8607 10.8608 12.375 9.00002 12.375ZM9.00002 7.12499C7.96578 7.12499 7.12502 7.96574 7.12502 8.99999C7.12502 10.0342 7.96578 10.875 9.00002 10.875C10.0343 10.875 10.875 10.0342 10.875 8.99999C10.875 7.96574 10.0343 7.12499 9.00002 7.12499Z" fill="white"/>
</svg>
