<svg width="56" height="40" viewBox="0 0 56 40" fill="none" xmlns="http://www.w3.org/2000/svg">
<rect width="56" height="40" rx="2" fill="white"/>
<mask id="mask0_53_6556" style="mask-type:luminance" maskUnits="userSpaceOnUse" x="0" y="0" width="56" height="40">
<rect width="56" height="40" rx="2" fill="white"/>
</mask>
<g mask="url(#mask0_53_6556)">
<rect width="56" height="40" fill="#0A17A7"/>
<path d="M0 -0.333333H-0.901086L-0.21693 0.253086L9 8.15331V10.4951L-0.193746 17.0621L-0.333333 17.1618V17.3333V18.6667V19.2681L0.176666 18.9493L10.7623 12.3333H13.2265L22.386 18.8758C22.4991 18.9566 22.6345 19 22.7735 19H23.0989C23.7179 19 24.0027 18.23 23.5328 17.8272L15 10.5134V8.17154L24.0542 1.70428C24.2294 1.57914 24.3333 1.37709 24.3333 1.16179V0V-0.601416L23.8233 -0.282666L13.2377 6.33333H10.7735L1.52708 -0.271245L1.44016 -0.333333H1.33333H0Z" fill="#FF2E3B" stroke="white" stroke-width="0.666667"/>
<path fill-rule="evenodd" clip-rule="evenodd" d="M0 6.66667V12H9.33333V19.3333C9.33333 19.7015 9.63181 20 10 20H14C14.3682 20 14.6667 19.7015 14.6667 19.3333V12H24.6667C25.0349 12 25.3333 11.7015 25.3333 11.3333V7.33333C25.3333 6.96514 25.0349 6.66667 24.6667 6.66667H14.6667V0H9.33333V6.66667H0Z" fill="white"/>
<path fill-rule="evenodd" clip-rule="evenodd" d="M0 8H10.6667V6.66667V0H13.3333V6.66667V8H24V10.6667H13.3333V12V18.6667H10.6667V12V10.6667H0V8Z" fill="#FF2E3B"/>
<path fill-rule="evenodd" clip-rule="evenodd" d="M39.9999 34.667L38.1143 35.2193L38.6666 33.3337L38.1143 31.448L39.9999 32.0003L41.8855 31.448L41.3333 33.3337L41.8855 35.2193L39.9999 34.667Z" fill="#CA1931"/>
<path fill-rule="evenodd" clip-rule="evenodd" d="M39.9999 9.33301L38.1143 9.88529L38.6666 7.99968L38.1143 6.11406L39.9999 6.66634L41.8855 6.11406L41.3333 7.99968L41.8855 9.88529L39.9999 9.33301Z" fill="#CA1931"/>
<path fill-rule="evenodd" clip-rule="evenodd" d="M47.9999 17.333L46.1143 17.8853L46.6666 15.9997L46.1143 14.1141L47.9999 14.6663L49.8855 14.1141L49.3333 15.9997L49.8855 17.8853L47.9999 17.333Z" fill="#CA1931"/>
<path fill-rule="evenodd" clip-rule="evenodd" d="M31.9999 20L30.1143 20.5523L30.6666 18.6667L30.1143 16.781L31.9999 17.3333L33.8855 16.781L33.3333 18.6667L33.8855 20.5523L31.9999 20Z" fill="#CA1931"/>
</g>
</svg>
