<svg width="83" height="14" viewBox="0 0 83 14" fill="none" xmlns="http://www.w3.org/2000/svg">
<path d="M12.7067 0.48999L10.199 10.36H8.64392L6.36036 2.29596L4.07679 10.36H2.52173L0 0.48999L1.41497 0.48999L3.30627 8.87598L5.64587 0.48999L7.06084 0.48999L9.40044 8.84796L11.3057 0.48999H12.7067ZM21.2754 6.08997C21.2754 6.36097 21.2567 6.59398 21.2193 6.78998L15.0691 6.78998C15.0971 7.66698 15.3446 8.32498 15.8116 8.76398C16.288 9.20298 16.8671 9.422 17.5488 9.422C18.1652 9.422 18.6789 9.26796 19.0899 8.95996C19.5102 8.64296 19.767 8.22301 19.8604 7.70001H21.2193C21.126 8.23201 20.9158 8.70799 20.5889 9.12799C20.2714 9.54799 19.8557 9.87497 19.3421 10.108C18.8284 10.341 18.2493 10.458 17.6049 10.458C16.8671 10.458 16.2132 10.299 15.6435 9.98199C15.0738 9.66499 14.6255 9.21196 14.2986 8.62396C13.9811 8.02696 13.8223 7.32699 13.8223 6.52399C13.8223 5.72099 13.9811 5.02101 14.2986 4.42401C14.6255 3.82701 15.0738 3.369 15.6435 3.052C16.2132 2.735 16.8671 2.57599 17.6049 2.57599C18.3521 2.57599 19.0011 2.735 19.5522 3.052C20.1126 3.369 20.5376 3.79399 20.8271 4.32599C21.126 4.85799 21.2754 5.44597 21.2754 6.08997ZM19.9865 6.17401C20.0145 5.60501 19.9211 5.12897 19.7063 4.74597C19.4915 4.36297 19.1973 4.07897 18.8237 3.89197C18.4501 3.70497 18.0439 3.612 17.6049 3.612C16.9044 3.612 16.316 3.83096 15.8397 4.26996C15.3633 4.69896 15.1064 5.33401 15.0691 6.17401L19.9865 6.17401ZM26.095 2.57599C26.8422 2.57599 27.4726 2.76299 27.9863 3.13599C28.5093 3.50899 28.8736 4.00897 29.079 4.63397V0L30.3539 0V10.36H29.079V8.39996C28.8736 9.02496 28.5093 9.52501 27.9863 9.89801C27.4726 10.271 26.8422 10.458 26.095 10.458C25.4132 10.458 24.8061 10.299 24.2737 9.98199C23.7414 9.66499 23.3211 9.21196 23.0129 8.62396C22.7141 8.02696 22.5646 7.32699 22.5646 6.52399C22.5646 5.72099 22.7141 5.02101 23.0129 4.42401C23.3211 3.82701 23.7414 3.369 24.2737 3.052C24.8061 2.735 25.4132 2.57599 26.095 2.57599ZM26.4592 3.70996C25.6747 3.70996 25.0443 3.962 24.5679 4.466C24.101 4.961 23.8675 5.64699 23.8675 6.52399C23.8675 7.40099 24.101 8.09201 24.5679 8.59601C25.0443 9.09101 25.6747 9.33801 26.4592 9.33801C26.9636 9.33801 27.4119 9.22098 27.8041 8.98798C28.2058 8.75498 28.5186 8.428 28.7428 8.008C28.9669 7.579 29.079 7.08399 29.079 6.52399C29.079 5.96399 28.9669 5.46898 28.7428 5.03998C28.5186 4.61098 28.2058 4.284 27.8041 4.06C27.4119 3.827 26.9636 3.70996 26.4592 3.70996ZM36.4317 2.54797C37.3283 2.54797 38.0522 2.83702 38.6031 3.41602C39.1542 3.98502 39.4297 4.81098 39.4297 5.89398V10.36H38.1548V6.00598C38.1548 5.24098 37.9587 4.653 37.5664 4.242C37.1742 3.831 36.6418 3.62598 35.9693 3.62598C35.2689 3.62598 34.7085 3.85501 34.2882 4.31201C33.8679 4.76001 33.6578 5.41801 33.6578 6.28601V10.36H32.3829V2.67401H33.6578V4.49396C33.8539 3.86896 34.1995 3.388 34.6945 3.052C35.1988 2.716 35.7779 2.54797 36.4317 2.54797ZM48.46 6.08997C48.46 6.36097 48.4414 6.59398 48.404 6.78998L42.2537 6.78998C42.2818 7.66698 42.5293 8.32498 42.9963 8.76398C43.4726 9.20298 44.0517 9.422 44.7334 9.422C45.3499 9.422 45.8636 9.26796 46.2745 8.95996C46.6948 8.64296 46.9517 8.22301 47.045 7.70001L48.404 7.70001C48.3106 8.23201 48.1005 8.70799 47.7735 9.12799C47.456 9.54799 47.0404 9.87497 46.5267 10.108C46.013 10.341 45.4339 10.458 44.7895 10.458C44.0517 10.458 43.3979 10.299 42.8281 9.98199C42.2584 9.66499 41.8101 9.21196 41.4832 8.62396C41.1657 8.02696 41.0069 7.32699 41.0069 6.52399C41.0069 5.72099 41.1657 5.02101 41.4832 4.42401C41.8101 3.82701 42.2584 3.369 42.8281 3.052C43.3979 2.735 44.0517 2.57599 44.7895 2.57599C45.5367 2.57599 46.1858 2.735 46.7368 3.052C47.2972 3.369 47.7222 3.79399 48.0117 4.32599C48.3106 4.85799 48.46 5.44597 48.46 6.08997ZM47.1711 6.17401C47.1991 5.60501 47.1058 5.12897 46.8909 4.74597C46.6762 4.36297 46.382 4.07897 46.0083 3.89197C45.6348 3.70497 45.2285 3.612 44.7895 3.612C44.089 3.612 43.5006 3.83096 43.0243 4.26996C42.5479 4.69896 42.2912 5.33401 42.2537 6.17401H47.1711ZM52.5372 2.57599C53.4058 2.57599 54.1016 2.80496 54.6246 3.26196C55.157 3.70996 55.4792 4.31697 55.5913 5.08197H54.3724C54.3164 4.62497 54.1249 4.25098 53.7981 3.96198C53.4804 3.66298 53.0508 3.51398 52.5092 3.51398C52.0515 3.51398 51.6919 3.62598 51.4304 3.84998C51.1783 4.06498 51.0522 4.35899 51.0522 4.73199C51.0522 5.01199 51.1362 5.24097 51.3043 5.41797C51.4818 5.58597 51.6966 5.717 51.9488 5.81C52.2103 5.894 52.5652 5.98697 53.0135 6.08997C53.5832 6.22097 54.0408 6.35597 54.3865 6.49597C54.7413 6.62697 55.0402 6.84101 55.2831 7.14001C55.5352 7.43901 55.6613 7.83999 55.6613 8.34399C55.6613 8.96899 55.4232 9.478 54.9468 9.87C54.4798 10.262 53.8541 10.458 53.0696 10.458C52.1542 10.458 51.407 10.239 50.828 9.79999C50.2489 9.36099 49.908 8.75 49.8053 7.966H51.0382C51.0848 8.433 51.2856 8.81098 51.6406 9.09998C52.0048 9.38898 52.4812 9.534 53.0696 9.534C53.5085 9.534 53.8494 9.422 54.0923 9.198C54.3444 8.974 54.4705 8.67998 54.4705 8.31598C54.4705 8.01698 54.3818 7.77899 54.2043 7.60199C54.0268 7.42499 53.8074 7.28898 53.5459 7.19598C53.2843 7.10298 52.9248 7.00498 52.4671 6.90198C51.8974 6.77098 51.4397 6.64101 51.0942 6.51001C50.758 6.37901 50.4684 6.17398 50.2256 5.89398C49.992 5.60498 49.8754 5.21699 49.8754 4.73199C49.8754 4.08799 50.1135 3.56998 50.5899 3.17798C51.0662 2.77698 51.7152 2.57599 52.5372 2.57599ZM60.5171 2.57599C61.2642 2.57599 61.8943 2.76299 62.4087 3.13599C62.931 3.50899 63.2953 4.00897 63.5014 4.63397V0L64.7763 0V10.36H63.5014V8.39996C63.2953 9.02496 62.931 9.52501 62.4087 9.89801C61.8943 10.271 61.2642 10.458 60.5171 10.458C59.8352 10.458 59.2282 10.299 58.6958 9.98199C58.1634 9.66499 57.7432 9.21196 57.4349 8.62396C57.136 8.02696 56.9866 7.32699 56.9866 6.52399C56.9866 5.72099 57.136 5.02101 57.4349 4.42401C57.7432 3.82701 58.1634 3.369 58.6958 3.052C59.2282 2.735 59.8352 2.57599 60.5171 2.57599ZM60.8813 3.70996C60.0968 3.70996 59.4663 3.962 58.99 4.466C58.523 4.961 58.2895 5.64699 58.2895 6.52399C58.2895 7.40099 58.523 8.09201 58.99 8.59601C59.4663 9.09101 60.0968 9.33801 60.8813 9.33801C61.386 9.33801 61.8343 9.22098 62.2265 8.98798C62.6278 8.75498 62.941 8.428 63.1652 8.008C63.3893 7.579 63.5014 7.08399 63.5014 6.52399C63.5014 5.96399 63.3893 5.46898 63.1652 5.03998C62.941 4.61098 62.6278 4.284 62.2265 4.06C61.8343 3.827 61.386 3.70996 60.8813 3.70996ZM69.9568 2.57599C70.7043 2.57599 71.3348 2.76299 71.8481 3.13599C72.3715 3.50899 72.7357 4.00897 72.9409 4.63397V2.67401H74.2157V10.36H72.9409V8.39996C72.7357 9.02496 72.3715 9.52501 71.8481 9.89801C71.3348 10.271 70.7043 10.458 69.9568 10.458C69.2754 10.458 68.6679 10.299 68.1356 9.98199C67.6032 9.66499 67.1829 9.21196 66.8747 8.62396C66.5765 8.02696 66.4264 7.32699 66.4264 6.52399C66.4264 5.72099 66.5765 5.02101 66.8747 4.42401C67.1829 3.82701 67.6032 3.369 68.1356 3.052C68.6679 2.735 69.2754 2.57599 69.9568 2.57599ZM70.3211 3.70996C69.5365 3.70996 68.9061 3.962 68.4298 4.466C67.9635 4.961 67.7293 5.64699 67.7293 6.52399C67.7293 7.40099 67.9635 8.09201 68.4298 8.59601C68.9061 9.09101 69.5365 9.33801 70.3211 9.33801C70.8254 9.33801 71.2737 9.22098 71.666 8.98798C72.0683 8.75498 72.3805 8.428 72.6046 8.008C72.8288 7.579 72.9409 7.08399 72.9409 6.52399C72.9409 5.96399 72.8288 5.46898 72.6046 5.03998C72.3805 4.61098 72.0683 4.284 71.666 4.06C71.2737 3.827 70.8254 3.70996 70.3211 3.70996ZM76.7775 2.67401L79.2712 8.72198L81.5828 2.67401H82.9978L78.4306 14H76.9876L78.5847 10.234L75.3485 2.67401H76.7775Z" fill="#363B64"/>
</svg>
