<svg width="77" height="12" viewBox="0 0 77 12" fill="none" xmlns="http://www.w3.org/2000/svg">
<path d="M5.43613 0.430136C6.839 0.430136 8.00274 0.791577 8.92736 1.51344C9.85198 2.2353 10.463 3.21805 10.7607 4.46064H8.40129C8.15688 3.85528 7.77428 3.37735 7.25348 3.02688C6.74335 2.6764 6.1269 2.50115 5.40424 2.50115C4.80912 2.50115 4.27238 2.6495 3.79413 2.9472C3.31588 3.24491 2.94394 3.66909 2.67821 4.22169C2.41248 4.77429 2.27966 5.42144 2.27966 6.1652C2.27966 6.89802 2.41248 7.54026 2.67821 8.09286C2.94394 8.64545 3.31588 9.06958 3.79413 9.36728C4.27238 9.66499 4.80912 9.81334 5.40424 9.81334C6.1269 9.81334 6.74335 9.63809 7.25348 9.28761C7.77428 8.93714 8.15688 8.45921 8.40129 7.85384H10.7607C10.463 9.09644 9.85198 10.0792 8.92736 10.801C8.00274 11.5229 6.839 11.8844 5.43613 11.8844C4.36275 11.8844 3.41153 11.6454 2.58256 11.1674C1.76425 10.6786 1.12658 9.99954 0.669551 9.12833C0.223183 8.25712 0 7.2694 0 6.1652C0 5.05005 0.223183 4.05737 0.669551 3.18616C1.12658 2.31494 1.76425 1.64089 2.58256 1.16297C3.40087 0.674098 4.35209 0.430136 5.43613 0.430136ZM16.2054 2.85161C16.9493 2.85161 17.587 3.02687 18.1184 3.37734C18.6498 3.72782 19.027 4.20077 19.2502 4.79519V2.96313H21.4821V11.7888H19.2502V9.94078C19.027 10.5352 18.6498 11.0131 18.1184 11.3745C17.587 11.725 16.9493 11.9003 16.2054 11.9003C15.4615 11.9003 14.7919 11.72 14.1967 11.3586C13.6016 10.9972 13.134 10.4775 12.7938 9.79742C12.4644 9.10742 12.2996 8.29992 12.2996 7.37594C12.2996 6.45196 12.4644 5.65043 12.7938 4.97039C13.134 4.28039 13.6016 3.75469 14.1967 3.39326C14.7919 3.03183 15.4615 2.85161 16.2054 2.85161ZM16.9068 4.81111C16.2054 4.81111 15.6421 5.0391 15.217 5.49612C14.7919 5.95313 14.5793 6.57941 14.5793 7.37594C14.5793 8.17248 14.7919 8.79876 15.217 9.25577C15.6421 9.70183 16.2054 9.92485 16.9068 9.92485C17.587 9.92485 18.145 9.69686 18.5807 9.23985C19.027 8.77288 19.2502 8.15157 19.2502 7.37594C19.2502 6.59036 19.027 5.96905 18.5807 5.51204C18.145 5.04507 17.587 4.81111 16.9068 4.81111ZM26.0658 0V11.7888H23.818V0L26.0658 0ZM36.7038 7.0414C36.7038 7.26443 36.6772 7.51933 36.6241 7.80608H30.1518C30.1837 8.59166 30.3962 9.17116 30.7894 9.54255C31.1827 9.91393 31.6715 10.1001 32.2561 10.1001C32.7769 10.1001 33.2073 9.97264 33.5474 9.71775C33.8981 9.46286 34.1213 9.11738 34.2169 8.68227H36.5922C36.4754 9.29859 36.2256 9.8502 35.843 10.3391C35.4604 10.8279 34.9662 11.2103 34.3604 11.4861C33.7653 11.7619 33.101 11.9003 32.3677 11.9003C31.5068 11.9003 30.7416 11.72 30.0721 11.3586C29.4025 10.9872 28.8817 10.4615 28.5098 9.7815C28.1378 9.10145 27.9518 8.29992 27.9518 7.37594C27.9518 6.45196 28.1378 5.65043 28.5098 4.97039C28.8817 4.28039 29.4025 3.75469 30.0721 3.39326C30.7416 3.03183 31.5068 2.85161 32.3677 2.85161C33.2392 2.85161 33.999 3.03183 34.6473 3.39326C35.3062 3.75469 35.8111 4.25355 36.1618 4.89078C36.5232 5.51706 36.7038 6.23391 36.7038 7.0414ZM34.4401 6.81837C34.472 6.09651 34.2807 5.54888 33.8662 5.1775C33.4624 4.80611 32.9628 4.61992 32.3677 4.61992C31.7619 4.61992 31.2518 4.80611 30.8373 5.1775C30.4228 5.54888 30.1943 6.09651 30.1518 6.81837H34.4401ZM43.8592 2.83569C44.8794 2.83569 45.6925 3.17023 46.2982 3.83932C46.904 4.50841 47.2069 5.44835 47.2069 6.65909V11.7888H44.9751V6.91396C44.9751 6.21301 44.7944 5.67135 44.4331 5.28901C44.0717 4.89572 43.5775 4.69959 42.9505 4.69959C42.3128 4.69959 41.8027 4.90672 41.4201 5.32091C41.0375 5.73511 40.8462 6.32952 40.8462 7.10515V11.7888H38.5984V2.96313L40.8462 2.96313V4.73144C41.08 4.13702 41.4626 3.67506 41.994 3.3455C42.536 3.00597 43.1577 2.83569 43.8592 2.83569ZM52.943 2.85161C53.6869 2.85161 54.3192 3.02687 54.84 3.37734C55.3714 3.72782 55.754 4.20077 55.9878 4.79519V0L58.2197 0V11.7888H55.9878V9.94078C55.754 10.5352 55.3714 11.0131 54.84 11.3745C54.3192 11.725 53.6869 11.9003 52.943 11.9003C52.199 11.9003 51.5294 11.72 50.9343 11.3586C50.3392 10.9972 49.8715 10.4775 49.5314 9.79742C49.2019 9.10742 49.0372 8.29992 49.0372 7.37594C49.0372 6.45196 49.2019 5.65043 49.5314 4.97039C49.8715 4.28039 50.3392 3.75469 50.9343 3.39326C51.5294 3.03183 52.199 2.85161 52.943 2.85161ZM53.6444 4.81111C52.9429 4.81111 52.3797 5.0391 51.9546 5.49612C51.5294 5.95313 51.3169 6.57941 51.3169 7.37594C51.3169 8.17248 51.5294 8.79876 51.9546 9.25577C52.3797 9.70183 52.9429 9.92485 53.6444 9.92485C54.3246 9.92485 54.8826 9.69686 55.3183 9.23985C55.7646 8.77288 55.9878 8.15157 55.9878 7.37594C55.9878 6.59036 55.7646 5.96905 55.3183 5.51204C54.8826 5.04507 54.3246 4.81111 53.6444 4.81111ZM64.015 2.85161C64.7589 2.85161 65.3966 3.02687 65.928 3.37734C66.4593 3.72782 66.8367 4.20077 67.0598 4.79519V2.96313H69.2917V11.7888H67.0598V9.94078C66.8367 10.5352 66.4593 11.0131 65.928 11.3745C65.3966 11.725 64.7589 11.9003 64.015 11.9003C63.271 11.9003 62.6014 11.72 62.0063 11.3586C61.4112 10.9972 60.9435 10.4775 60.6035 9.79742C60.274 9.10742 60.1093 8.29992 60.1093 7.37594C60.1093 6.45196 60.274 5.65043 60.6035 4.97039C60.9435 4.28039 61.4112 3.75469 62.0063 3.39326C62.6014 3.03183 63.271 2.85161 64.015 2.85161ZM64.7164 4.81111C64.015 4.81111 63.4517 5.0391 63.0266 5.49612C62.6014 5.95313 62.3889 6.57941 62.3889 7.37594C62.3889 8.17248 62.6014 8.79876 63.0266 9.25577C63.4517 9.70183 64.015 9.92485 64.7164 9.92485C65.3966 9.92485 65.9546 9.69686 66.3903 9.23985C66.8367 8.77288 67.0598 8.15157 67.0598 7.37594C67.0598 6.59036 66.8367 5.96905 66.3903 5.51204C65.9546 5.04507 65.3966 4.81111 64.7164 4.81111ZM73.8754 4.65177C74.2049 4.08921 74.6406 3.64819 75.1827 3.32958C75.7247 3.00001 76.3304 2.83569 77 2.83569V5.24124H76.3464C74.6991 5.24124 73.8754 6.00593 73.8754 7.53528V11.7888H71.6276V2.96313L73.8754 2.96313V4.65177Z" fill="#363B64"/>
</svg>
