<svg width="33" height="37" viewBox="0 0 33 37" fill="none" xmlns="http://www.w3.org/2000/svg">
<path d="M32.5515 5.17832C32.5191 4.94487 32.4192 4.726 32.2641 4.54862C32.1091 4.37124 31.9057 4.24307 31.6788 4.17988L16.8237 0.0442566C16.6119 -0.0147522 16.3881 -0.0147522 16.1763 0.0442566L1.32117 4.17988C1.09432 4.24304 0.890858 4.37119 0.735806 4.54858C0.580753 4.72597 0.480872 4.94485 0.448449 5.17832C0.362288 5.79853 -1.60331 20.4528 3.43832 27.7429C8.47398 35.0242 15.9027 36.8902 16.2164 36.9661C16.4028 37.0113 16.5972 37.0113 16.7836 36.9661C17.0975 36.8902 24.5262 35.0242 29.5617 27.7429C34.6033 20.453 32.6377 5.79869 32.5515 5.17832Z" fill="white"/>
</svg>
