<svg width="298" height="37" viewBox="0 0 298 37" fill="none" xmlns="http://www.w3.org/2000/svg">
<path d="M10.1977 1.84133V13.0479H7.94214V8.17479H3.14509V13.0479H0.905402L0.905402 1.84133H3.14509V6.38109H7.94214V1.84133H10.1977ZM20.8026 8.31763C20.8026 8.53986 20.7762 8.79384 20.7232 9.07956H14.2742C14.306 9.86231 14.5178 10.4397 14.9096 10.8097C15.3014 11.1798 15.7886 11.3653 16.3709 11.3653C16.8898 11.3653 17.3187 11.2383 17.6576 10.9844C18.007 10.7304 18.2294 10.3861 18.3247 9.9526H20.6915C20.575 10.5667 20.3261 11.1163 19.9449 11.6034C19.5637 12.0905 19.0713 12.4715 18.4677 12.7463C17.8747 13.0211 17.2128 13.159 16.4821 13.159C15.6244 13.159 14.8619 12.9794 14.1948 12.6193C13.5276 12.2493 13.0088 11.7255 12.6381 11.0479C12.2675 10.3703 12.0822 9.57162 12.0822 8.65097C12.0822 7.73032 12.2675 6.9317 12.6381 6.25411C13.0088 5.5666 13.5276 5.04276 14.1948 4.68264C14.8619 4.32251 15.6244 4.14294 16.4821 4.14294C17.3505 4.14294 18.1077 4.32251 18.7536 4.68264C19.4102 5.04276 19.9131 5.53979 20.2626 6.17473C20.6227 6.79875 20.8026 7.51305 20.8026 8.31763ZM18.5471 8.09541C18.5788 7.37615 18.3882 6.83049 17.9752 6.46044C17.5729 6.09039 17.0752 5.90488 16.4821 5.90488C15.8785 5.90488 15.3702 6.09039 14.9572 6.46044C14.5442 6.83049 14.3166 7.37615 14.2742 8.09541H18.5471ZM24.9301 5.93664C25.2584 5.37611 25.6925 4.93661 26.2326 4.61915C26.7727 4.29077 27.3763 4.12707 28.0434 4.12707V6.52396H27.3921C25.7508 6.52396 24.9301 7.28587 24.9301 8.80971V13.0479H22.6904V4.25405H24.9301V5.93664ZM37.8566 8.31763C37.8566 8.53986 37.8301 8.79384 37.7772 9.07956L31.3282 9.07956C31.3599 9.86231 31.5717 10.4397 31.9635 10.8097C32.3553 11.1798 32.8424 11.3653 33.4249 11.3653C33.9437 11.3653 34.3726 11.2383 34.7115 10.9844C35.061 10.7304 35.2833 10.3861 35.3786 9.9526H37.7454C37.6289 10.5667 37.3801 11.1163 36.9988 11.6034C36.6176 12.0905 36.1252 12.4715 35.5216 12.7463C34.9285 13.0211 34.2668 13.159 33.5361 13.159C32.6783 13.159 31.9159 12.9794 31.2487 12.6193C30.5816 12.2493 30.0627 11.7255 29.6921 11.0479C29.3214 10.3703 29.1361 9.57162 29.1361 8.65097C29.1361 7.73032 29.3214 6.9317 29.6921 6.25411C30.0627 5.5666 30.5816 5.04276 31.2487 4.68264C31.9159 4.32251 32.6783 4.14294 33.5361 4.14294C34.4044 4.14294 35.1615 4.32251 35.8075 4.68264C36.464 5.04276 36.9671 5.53979 37.3165 6.17473C37.6765 6.79875 37.8566 7.51305 37.8566 8.31763ZM35.601 8.09541C35.6328 7.37615 35.4422 6.83049 35.0292 6.46044C34.6267 6.09039 34.1291 5.90488 33.5361 5.90488C32.9325 5.90488 32.4242 6.09039 32.0112 6.46044C31.5982 6.83049 31.3705 7.37615 31.3282 8.09541L35.601 8.09541ZM41.2533 0C41.4227 0.560527 41.5075 1.13196 41.5075 1.71432C41.5075 2.40183 41.338 2.94154 40.9992 3.33342C40.6709 3.71438 40.1785 3.90485 39.522 3.90485V3.01594C39.7973 3.01594 39.9985 2.93659 40.1256 2.77785C40.2632 2.61912 40.3321 2.37009 40.3321 2.03179V1.73021H39.4108V0L41.2533 0ZM46.5197 4.14294C47.5892 4.14294 48.4469 4.41279 49.0929 4.95249C49.7389 5.49218 50.1413 6.21143 50.3001 7.11125H48.2034C48.1187 6.68763 47.9281 6.34935 47.6316 6.09537C47.335 5.8414 46.9486 5.71441 46.472 5.71441C46.0908 5.71441 45.7943 5.80469 45.5825 5.98426C45.3708 6.16383 45.2648 6.40787 45.2648 6.71443C45.2648 6.95749 45.3495 7.15393 45.519 7.30175C45.6884 7.44957 45.9002 7.56663 46.1543 7.65095C46.4085 7.73528 46.7738 7.83649 47.2504 7.95256C47.9175 8.10038 48.4576 8.2591 48.8706 8.42874C49.2942 8.58748 49.6541 8.84641 49.9507 9.20653C50.2577 9.55575 50.4113 10.032 50.4113 10.6351C50.4113 11.3861 50.1148 11.9953 49.5218 12.4606C48.9394 12.9259 48.1505 13.159 47.1551 13.159C46.0114 13.159 45.0954 12.905 44.4071 12.3971C43.7188 11.8782 43.3004 11.1431 43.1522 10.1907H45.2966C45.3495 10.6242 45.5401 10.9685 45.8684 11.2225C46.1967 11.4655 46.6256 11.5876 47.1551 11.5876C47.5363 11.5876 47.8275 11.4973 48.0287 11.3177C48.2299 11.1272 48.3305 10.8841 48.3305 10.5875C48.3305 10.3335 48.2404 10.1272 48.0605 9.96846C47.891 9.80973 47.674 9.68772 47.4092 9.60339C47.1551 9.51906 46.7897 9.41786 46.3132 9.30178C45.6567 9.15396 45.1219 9.00515 44.7089 8.85733C44.3065 8.6986 43.957 8.44957 43.6605 8.11127C43.3746 7.77297 43.2316 7.3067 43.2316 6.71443C43.2316 5.95251 43.5228 5.33344 44.1053 4.85724C44.6877 4.38104 45.4925 4.14294 46.5197 4.14294ZM68.7304 4.25405L66.3636 13.0479H63.8857L61.9955 6.65094L60.0576 13.0479H57.5797L55.2288 4.25405H57.4685L58.8981 11.0479L60.8519 4.25405H63.2185L65.1882 11.0479L66.6336 4.25405H68.7304ZM75.3869 4.12707C76.4035 4.12707 77.2136 4.46041 77.8172 5.12709C78.4208 5.79377 78.7226 6.7303 78.7226 7.93667V13.0479H76.4988V8.19065C76.4988 7.49223 76.3181 6.95252 75.9587 6.57156C75.5983 6.17968 75.1059 5.98426 74.4815 5.98426C73.8461 5.98426 73.3378 6.19061 72.9566 6.60331C72.5753 7.01602 72.3847 7.60829 72.3847 8.38112V13.0479H70.1451V1.30163H72.3847V6.01599C72.617 5.42372 72.9983 4.96339 73.5284 4.63501C74.0685 4.29671 74.688 4.12707 75.3869 4.12707ZM84.4379 4.14294C85.1785 4.14294 85.8139 4.31756 86.344 4.66677C86.8732 5.01598 87.2494 5.48724 87.4718 6.07951V4.25405H89.6956V13.0479H87.4718V11.2066C87.2494 11.7989 86.8732 12.2751 86.344 12.6352C85.8139 12.9844 85.1785 13.159 84.4379 13.159C83.6963 13.159 83.0292 12.9794 82.4365 12.6193C81.8428 12.2592 81.3772 11.7413 81.0387 11.0637C80.7101 10.3762 80.5463 9.57162 80.5463 8.65097C80.5463 7.73032 80.7101 6.9317 81.0387 6.25411C81.3772 5.5666 81.8428 5.04276 82.4365 4.68264C83.0292 4.32251 83.6963 4.14294 84.4379 4.14294ZM85.1368 6.09537C84.4379 6.09537 83.876 6.32255 83.4531 6.77792C83.0292 7.23328 82.8177 7.8573 82.8177 8.65097C82.8177 9.44464 83.0292 10.0687 83.4531 10.524C83.876 10.9685 84.4379 11.1907 85.1368 11.1907C85.8139 11.1907 86.3699 10.9635 86.8047 10.5082C87.2494 10.0429 87.4718 9.4238 87.4718 8.65097C87.4718 7.86822 87.2494 7.24918 86.8047 6.79381C86.3699 6.32852 85.8139 6.09537 85.1368 6.09537ZM96.7244 11.1272V13.0479L95.549 13.0479C94.5641 13.0479 93.8067 12.8098 93.2775 12.3336C92.7583 11.8574 92.4992 11.0637 92.4992 9.9526V6.143H91.2761V4.25405H92.4992V2.07942H94.7389V4.25405H96.7085V6.143H94.7389V9.98432C94.7389 10.4079 94.8233 10.7036 94.993 10.8733C95.1628 11.0429 95.4487 11.1272 95.8508 11.1272L96.7244 11.1272ZM107.093 11.1272V13.0479H105.917C104.933 13.0479 104.175 12.8098 103.646 12.3336C103.127 11.8574 102.868 11.0637 102.868 9.9526V6.143H101.645V4.25405H102.868V2.07942L105.107 2.07942V4.25405H107.077V6.143H105.107V9.98432C105.107 10.4079 105.192 10.7036 105.361 10.8733C105.531 11.0429 105.817 11.1272 106.219 11.1272H107.093ZM113.068 4.14294C113.926 4.14294 114.694 4.32251 115.372 4.68264C116.061 5.04276 116.601 5.5666 116.992 6.25411C117.384 6.9317 117.579 7.73032 117.579 8.65097C117.579 9.57162 117.384 10.3703 116.992 11.0479C116.601 11.7255 116.061 12.2493 115.372 12.6193C114.694 12.9794 113.926 13.159 113.068 13.159C112.211 13.159 111.438 12.9794 110.749 12.6193C110.072 12.2493 109.537 11.7255 109.145 11.0479C108.754 10.3703 108.557 9.57162 108.557 8.65097C108.557 7.73032 108.754 6.9317 109.145 6.25411C109.537 5.5666 110.072 5.04276 110.749 4.68264C111.438 4.32251 112.211 4.14294 113.068 4.14294ZM113.068 6.07951C112.444 6.07951 111.915 6.30173 111.48 6.74619C111.046 7.17973 110.829 7.81464 110.829 8.65097C110.829 9.4873 111.046 10.1272 111.48 10.5716C111.915 11.0052 112.444 11.2225 113.068 11.2225C113.694 11.2225 114.223 11.0052 114.657 10.5716C115.092 10.1272 115.308 9.4873 115.308 8.65097C115.308 7.81464 115.092 7.17973 114.657 6.74619C114.223 6.30173 113.694 6.07951 113.068 6.07951ZM131.493 8.31763C131.493 8.53986 131.466 8.79384 131.414 9.07956H124.965C124.996 9.86231 125.208 10.4397 125.6 10.8097C125.992 11.1798 126.479 11.3653 127.061 11.3653C127.581 11.3653 128.009 11.2383 128.348 10.9844C128.697 10.7304 128.92 10.3861 129.015 9.9526H131.382C131.266 10.5667 131.017 11.1163 130.635 11.6034C130.254 12.0905 129.762 12.4715 129.158 12.7463C128.565 13.0211 127.903 13.159 127.173 13.159C126.315 13.159 125.552 12.9794 124.885 12.6193C124.218 12.2493 123.699 11.7255 123.329 11.0479C122.958 10.3703 122.773 9.57162 122.773 8.65097C122.773 7.73032 122.958 6.9317 123.329 6.25411C123.699 5.5666 124.218 5.04276 124.885 4.68264C125.552 4.32251 126.315 4.14294 127.173 4.14294C128.041 4.14294 128.798 4.32251 129.444 4.68264C130.1 5.04276 130.604 5.53979 130.953 6.17473C131.313 6.79875 131.493 7.51305 131.493 8.31763ZM129.238 8.09541C129.269 7.37615 129.079 6.83049 128.666 6.46044C128.264 6.09039 127.765 5.90488 127.173 5.90488C126.569 5.90488 126.061 6.09039 125.648 6.46044C125.235 6.83049 125.007 7.37615 124.965 8.09541H129.238ZM138.734 13.0479L136.733 10.2224L135.049 13.0479H132.587L135.494 8.4605L132.524 4.25405H135.033L136.987 7.0319L138.671 4.25405H141.133L138.178 8.71446L141.244 13.0479H138.734ZM147.949 4.14294C148.69 4.14294 149.357 4.32251 149.951 4.68264C150.543 5.04276 151.004 5.5666 151.333 6.25411C151.671 6.9317 151.841 7.73032 151.841 8.65097C151.841 9.57162 151.671 10.3762 151.333 11.0637C151.004 11.7413 150.543 12.2592 149.951 12.6193C149.357 12.9794 148.69 13.159 147.949 13.159C147.208 13.159 146.572 12.9844 146.043 12.6352C145.524 12.2751 145.154 11.7989 144.931 11.2066V17.2385H142.692V4.25405L144.931 4.25405V6.07951C145.154 5.48724 145.524 5.01598 146.043 4.66677C146.572 4.31756 147.208 4.14294 147.949 4.14294ZM147.25 6.09537C146.572 6.09537 146.011 6.32852 145.567 6.79381C145.132 7.24918 144.915 7.86822 144.915 8.65097C144.915 9.4238 145.132 10.0429 145.567 10.5082C146.011 10.9635 146.572 11.1907 147.25 11.1907C147.949 11.1907 148.51 10.9685 148.934 10.524C149.357 10.0687 149.569 9.44464 149.569 8.65097C149.569 7.8573 149.357 7.23328 148.934 6.77792C148.51 6.32255 147.949 6.09537 147.25 6.09537ZM161.999 8.31763C161.999 8.53986 161.972 8.79384 161.919 9.07956L155.47 9.07956C155.502 9.86231 155.714 10.4397 156.106 10.8097C156.498 11.1798 156.984 11.3653 157.567 11.3653C158.086 11.3653 158.515 11.2383 158.854 10.9844C159.203 10.7304 159.426 10.3861 159.521 9.9526L161.888 9.9526C161.772 10.5667 161.522 11.1163 161.141 11.6034C160.76 12.0905 160.267 12.4715 159.664 12.7463C159.071 13.0211 158.409 13.159 157.678 13.159C156.821 13.159 156.058 12.9794 155.391 12.6193C154.724 12.2493 154.205 11.7255 153.834 11.0479C153.464 10.3703 153.278 9.57162 153.278 8.65097C153.278 7.73032 153.464 6.9317 153.834 6.25411C154.205 5.5666 154.724 5.04276 155.391 4.68264C156.058 4.32251 156.821 4.14294 157.678 4.14294C158.547 4.14294 159.304 4.32251 159.95 4.68264C160.606 5.04276 161.109 5.53979 161.459 6.17473C161.819 6.79875 161.999 7.51305 161.999 8.31763ZM159.743 8.09541C159.775 7.37615 159.584 6.83049 159.171 6.46044C158.769 6.09039 158.271 5.90488 157.678 5.90488C157.075 5.90488 156.566 6.09039 156.153 6.46044C155.74 6.83049 155.513 7.37615 155.47 8.09541H159.743ZM167.842 4.14294C168.975 4.14294 169.917 4.4495 170.67 5.0636C171.432 5.6777 171.909 6.51305 172.099 7.5716H169.732C169.637 7.10631 169.42 6.74122 169.081 6.47634C168.742 6.20153 168.313 6.06361 167.795 6.06361C167.201 6.06361 166.704 6.28584 166.302 6.73029C165.909 7.16383 165.714 7.80472 165.714 8.65097C165.714 9.49722 165.909 10.1431 166.302 10.5875C166.704 11.0211 167.201 11.2383 167.795 11.2383C168.313 11.2383 168.742 11.1064 169.081 10.8415C169.42 10.5667 169.637 10.1957 169.732 9.73037H172.099C171.909 10.7889 171.432 11.6242 170.67 12.2383C169.917 12.8524 168.975 13.159 167.842 13.159C166.985 13.159 166.222 12.9794 165.555 12.6193C164.888 12.2493 164.369 11.7255 163.998 11.0479C163.627 10.3703 163.442 9.57162 163.442 8.65097C163.442 7.73032 163.627 6.9317 163.998 6.25411C164.369 5.5666 164.888 5.04276 165.555 4.68264C166.222 4.32251 166.985 4.14294 167.842 4.14294ZM178.69 11.1272V13.0479H177.515C176.53 13.0479 175.773 12.8098 175.243 12.3336C174.724 11.8574 174.465 11.0637 174.465 9.9526V6.143H173.242V4.25405H174.465V2.07942H176.705V4.25405H178.674V6.143H176.705V9.98432C176.705 10.4079 176.789 10.7036 176.959 10.8733C177.128 11.0429 177.414 11.1272 177.817 11.1272H178.69ZM188.708 2.73023C188.052 2.68757 187.591 2.7828 187.326 3.01594C187.062 3.24908 186.929 3.65583 186.929 4.23818V4.25405H188.708V6.143H186.929V13.0479H184.69V6.143H183.562V4.25405H184.69V4.04772C184.69 3.00008 184.986 2.19549 185.579 1.63496C186.183 1.06352 187.072 0.77779 188.248 0.77779C188.449 0.77779 188.603 0.782772 188.708 0.793685V2.73023ZM192.587 5.93664C192.915 5.37611 193.349 4.93661 193.89 4.61915C194.43 4.29077 195.033 4.12707 195.7 4.12707V6.52396H195.049C193.407 6.52396 192.587 7.28587 192.587 8.80971V13.0479H190.347V4.25405H192.587V5.93664ZM201.304 4.14294C202.161 4.14294 202.93 4.32251 203.607 4.68264C204.296 5.04276 204.836 5.5666 205.227 6.25411C205.619 6.9317 205.815 7.73032 205.815 8.65097C205.815 9.57162 205.619 10.3703 205.227 11.0479C204.836 11.7255 204.296 12.2493 203.607 12.6193C202.93 12.9794 202.161 13.159 201.304 13.159C200.446 13.159 199.673 12.9794 198.984 12.6193C198.307 12.2493 197.772 11.7255 197.38 11.0479C196.989 10.3703 196.792 9.57162 196.792 8.65097C196.792 7.73032 196.989 6.9317 197.38 6.25411C197.772 5.5666 198.307 5.04276 198.984 4.68264C199.673 4.32251 200.446 4.14294 201.304 4.14294ZM201.304 6.07951C200.679 6.07951 200.15 6.30173 199.715 6.74619C199.281 7.17973 199.064 7.81464 199.064 8.65097C199.064 9.4873 199.281 10.1272 199.715 10.5716C200.15 11.0052 200.679 11.2225 201.304 11.2225C201.929 11.2225 202.458 11.0052 202.892 10.5716C203.327 10.1272 203.543 9.4873 203.543 8.65097C203.543 7.81464 203.327 7.17973 202.892 6.74619C202.458 6.30173 201.929 6.07951 201.304 6.07951ZM218.894 4.12707C219.964 4.12707 220.805 4.46041 221.42 5.12709C222.044 5.78285 222.357 6.71938 222.357 7.93667V13.0479H220.133V8.19065C220.133 7.51306 219.959 6.9952 219.609 6.63507C219.27 6.26503 218.799 6.07951 218.195 6.07951C217.57 6.07951 217.073 6.27493 216.702 6.6668C216.331 7.05868 216.146 7.63011 216.146 8.38112V13.0479H213.923V8.19065C213.923 7.51306 213.748 6.9952 213.398 6.63507C213.059 6.26503 212.588 6.07951 211.985 6.07951C211.359 6.07951 210.862 6.27493 210.492 6.6668C210.12 7.05868 209.936 7.63011 209.936 8.38112V13.0479H207.696V4.25405L209.936 4.25405V5.92077C210.168 5.34933 210.533 4.90984 211.032 4.60328C211.54 4.28582 212.128 4.12707 212.795 4.12707C213.504 4.12707 214.118 4.29671 214.637 4.63501C215.167 4.97331 215.564 5.46044 215.829 6.09537C216.104 5.49219 216.512 5.01598 217.052 4.66677C217.602 4.30665 218.216 4.12707 218.894 4.12707ZM236.004 1.84133V3.61913H232.906V13.0479H230.667V3.61913H227.585V1.84133L236.004 1.84133ZM245.953 4.25405V13.0479H243.714V11.2701C243.48 11.8624 243.094 12.3286 242.554 12.6669C242.025 12.9953 241.41 13.159 240.711 13.159C239.695 13.159 238.885 12.8257 238.281 12.159C237.677 11.4923 237.376 10.5607 237.376 9.36527V4.25405H239.599V9.11132C239.599 9.80974 239.779 10.3544 240.14 10.7463C240.5 11.1272 240.986 11.3177 241.601 11.3177C242.247 11.3177 242.76 11.1113 243.142 10.6986C243.523 10.2859 243.714 9.69365 243.714 8.92082V4.25405H245.953ZM256.563 8.31763C256.563 8.53986 256.537 8.79384 256.483 9.07956H250.034C250.066 9.86231 250.279 10.4397 250.67 10.8097C251.062 11.1798 251.549 11.3653 252.131 11.3653C252.65 11.3653 253.079 11.2383 253.418 10.9844C253.767 10.7304 253.99 10.3861 254.085 9.9526H256.452C256.336 10.5667 256.086 11.1163 255.705 11.6034C255.324 12.0905 254.832 12.4715 254.228 12.7463C253.635 13.0211 252.973 13.159 252.242 13.159C251.385 13.159 250.622 12.9794 249.955 12.6193C249.288 12.2493 248.77 11.7255 248.398 11.0479C248.028 10.3703 247.842 9.57162 247.842 8.65097C247.842 7.73032 248.028 6.9317 248.398 6.25411C248.77 5.5666 249.288 5.04276 249.955 4.68264C250.622 4.32251 251.385 4.14294 252.242 4.14294C253.111 4.14294 253.869 4.32251 254.514 4.68264C255.171 5.04276 255.673 5.53979 256.023 6.17473C256.383 6.79875 256.563 7.51305 256.563 8.31763ZM254.307 8.09541C254.339 7.37615 254.149 6.83049 253.736 6.46044C253.333 6.09039 252.836 5.90488 252.242 5.90488C251.639 5.90488 251.13 6.09039 250.717 6.46044C250.305 6.83049 250.077 7.37615 250.034 8.09541H254.307ZM261.485 4.14294C262.554 4.14294 263.412 4.41279 264.058 4.95249C264.704 5.49218 265.107 6.21143 265.266 7.11125H263.169C263.083 6.68763 262.893 6.34935 262.597 6.09537C262.3 5.8414 261.914 5.71441 261.437 5.71441C261.056 5.71441 260.759 5.80469 260.548 5.98426C260.335 6.16383 260.23 6.40787 260.23 6.71443C260.23 6.95749 260.315 7.15393 260.484 7.30175C260.653 7.44957 260.866 7.56663 261.12 7.65095C261.374 7.73528 261.739 7.83649 262.216 7.95256C262.883 8.10038 263.423 8.2591 263.836 8.42874C264.259 8.58748 264.619 8.84641 264.916 9.20653C265.223 9.55575 265.377 10.032 265.377 10.6351C265.377 11.3861 265.08 11.9953 264.487 12.4606C263.904 12.9259 263.115 13.159 262.12 13.159C260.977 13.159 260.06 12.905 259.372 12.3971C258.683 11.8782 258.266 11.1431 258.118 10.1907H260.262C260.315 10.6242 260.505 10.9685 260.834 11.2225C261.161 11.4655 261.59 11.5876 262.12 11.5876C262.502 11.5876 262.793 11.4973 262.994 11.3177C263.195 11.1272 263.296 10.8841 263.296 10.5875C263.296 10.3335 263.206 10.1272 263.026 9.96846C262.856 9.80973 262.639 9.68772 262.375 9.60339C262.12 9.51906 261.755 9.41786 261.279 9.30178C260.621 9.15396 260.087 9.00515 259.674 8.85733C259.271 8.6986 258.922 8.44957 258.626 8.11127C258.34 7.77297 258.197 7.3067 258.197 6.71443C258.197 5.95251 258.488 5.33344 259.071 4.85724C259.652 4.38104 260.458 4.14294 261.485 4.14294ZM270.789 4.14294C271.531 4.14294 272.16 4.31756 272.68 4.66677C273.209 5.01598 273.59 5.48724 273.823 6.07951V1.30163L276.047 1.30163V13.0479H273.823V11.2066C273.59 11.7989 273.209 12.2751 272.68 12.6352C272.16 12.9844 271.531 13.159 270.789 13.159C270.048 13.159 269.381 12.9794 268.788 12.6193C268.195 12.2592 267.729 11.7413 267.39 11.0637C267.061 10.3762 266.898 9.57162 266.898 8.65097C266.898 7.73032 267.061 6.9317 267.39 6.25411C267.729 5.5666 268.195 5.04276 268.788 4.68264C269.381 4.32251 270.048 4.14294 270.789 4.14294ZM271.488 6.09537C270.789 6.09537 270.228 6.32255 269.804 6.77792C269.38 7.23328 269.169 7.8573 269.169 8.65097C269.169 9.44464 269.38 10.0687 269.804 10.524C270.228 10.9685 270.789 11.1907 271.488 11.1907C272.166 11.1907 272.722 10.9635 273.156 10.5082C273.601 10.0429 273.823 9.4238 273.823 8.65097C273.823 7.86822 273.601 7.24918 273.156 6.79381C272.722 6.32852 272.166 6.09537 271.488 6.09537ZM281.822 4.14294C282.562 4.14294 283.198 4.31756 283.728 4.66677C284.257 5.01598 284.633 5.48724 284.856 6.07951V4.25405H287.08V13.0479H284.856V11.2066C284.633 11.7989 284.257 12.2751 283.728 12.6352C283.198 12.9844 282.562 13.159 281.822 13.159C281.08 13.159 280.413 12.9794 279.82 12.6193C279.227 12.2592 278.761 11.7413 278.423 11.0637C278.094 10.3762 277.93 9.57162 277.93 8.65097C277.93 7.73032 278.094 6.9317 278.423 6.25411C278.761 5.5666 279.227 5.04276 279.82 4.68264C280.413 4.32251 281.08 4.14294 281.822 4.14294ZM282.521 6.09537C281.822 6.09537 281.26 6.32255 280.837 6.77792C280.413 7.23328 280.202 7.8573 280.202 8.65097C280.202 9.44464 280.413 10.0687 280.837 10.524C281.26 10.9685 281.822 11.1907 282.521 11.1907C283.198 11.1907 283.754 10.9635 284.189 10.5082C284.633 10.0429 284.856 9.4238 284.856 8.65097C284.856 7.86822 284.633 7.24918 284.189 6.79381C283.754 6.32852 283.198 6.09537 282.521 6.09537ZM290.916 4.25405L293.314 10.2224L295.538 4.25405H298L292.615 17.2385H290.137L292.123 12.7939L288.422 4.25405H290.916ZM13.5016 28.0641L11.1349 36.8579H8.65693L6.7667 30.4609L4.82882 36.8579H2.35087L0 28.0641H2.23968L3.66927 34.8579L5.62303 28.0641H7.98979L9.95944 34.8579L11.4049 28.0641H13.5016ZM23.1915 32.1276C23.1915 32.3499 23.165 32.6038 23.1121 32.8896H16.6631C16.6949 33.6723 16.9066 34.2497 17.2985 34.6198C17.6902 34.9898 18.1774 35.1753 18.7598 35.1753C19.2786 35.1753 19.7075 35.0483 20.0465 34.7943C20.3959 34.5404 20.6183 34.1961 20.7136 33.7626H23.0803C22.9638 34.3767 22.715 34.9263 22.3338 35.4134C21.9526 35.9005 21.4602 36.2815 20.8565 36.5563C20.2635 36.8311 19.6017 36.969 18.871 36.969C18.0133 36.969 17.2508 36.7894 16.5837 36.4293C15.9165 36.0593 15.3976 35.5355 15.027 34.8579C14.6563 34.1803 14.4711 33.3816 14.4711 32.461C14.4711 31.5403 14.6563 30.7417 15.027 30.0641C15.3976 29.3766 15.9165 28.8528 16.5837 28.4926C17.2508 28.1325 18.0133 27.9529 18.871 27.9529C19.7393 27.9529 20.4965 28.1325 21.1425 28.4926C21.799 28.8528 22.302 29.3498 22.6515 29.9848C23.0115 30.6088 23.1915 31.3231 23.1915 32.1276ZM20.936 31.9054C20.9677 31.1862 20.7771 30.6405 20.3641 30.2704C19.9617 29.9004 19.464 29.7149 18.871 29.7149C18.2674 29.7149 17.7591 29.9004 17.3461 30.2704C16.9331 30.6405 16.7054 31.1862 16.6631 31.9054H20.936ZM28.5262 27.9529C29.2674 27.9529 29.9027 28.1276 30.4323 28.4768C30.9617 28.826 31.3377 29.2972 31.5601 29.8895V28.0641H33.7839V36.8579H31.5601V35.0166C31.3377 35.6088 30.9617 36.0851 30.4323 36.4452C29.9027 36.7944 29.2674 36.969 28.5262 36.969C27.7849 36.969 27.1177 36.7894 26.5248 36.4293C25.9317 36.0692 25.4658 35.5513 25.1269 34.8737C24.7986 34.1862 24.6345 33.3816 24.6345 32.461C24.6345 31.5403 24.7986 30.7417 25.1269 30.0641C25.4658 29.3766 25.9317 28.8528 26.5248 28.4926C27.1177 28.1325 27.7849 27.9529 28.5262 27.9529ZM29.2251 29.9054C28.5262 29.9054 27.9649 30.1326 27.5414 30.5879C27.1177 31.0433 26.906 31.6673 26.906 32.461C26.906 33.2546 27.1177 33.8787 27.5414 34.334C27.9649 34.7785 28.5262 35.0007 29.2251 35.0007C29.9027 35.0007 30.4587 34.7735 30.8929 34.3182C31.3377 33.8529 31.5601 33.2338 31.5601 32.461C31.5601 31.6782 31.3377 31.0592 30.8929 30.6038C30.4587 30.1385 29.9027 29.9054 29.2251 29.9054ZM40.8132 34.9372V36.8579H39.6377C38.6529 36.8579 37.8957 36.6198 37.3663 36.1436C36.8474 35.6674 36.5879 34.8737 36.5879 33.7626V29.953H35.3648V28.0641H36.5879V25.8894H38.8276V28.0641H40.7973V29.953H38.8276V33.7943C38.8276 34.218 38.9123 34.5136 39.0818 34.6832C39.2511 34.8529 39.5371 34.9372 39.9395 34.9372H40.8132ZM47.9645 27.9371C48.9811 27.9371 49.7911 28.2704 50.3948 28.9371C50.9984 29.6038 51.3002 30.5403 51.3002 31.7467V36.8579H49.0764V32.0007C49.0764 31.3022 48.8963 30.7625 48.5363 30.3816C48.1762 29.9897 47.6838 29.7943 47.0591 29.7943C46.4237 29.7943 45.9154 30.0006 45.5342 30.4134C45.1529 30.8261 44.9623 31.4183 44.9623 32.1912V36.8579H42.7226V25.1116H44.9623V29.826C45.1952 29.2337 45.5765 28.7734 46.106 28.445C46.6461 28.1067 47.2655 27.9371 47.9645 27.9371ZM61.8443 32.1276C61.8443 32.3499 61.8178 32.6038 61.7649 32.8896H55.3159C55.3477 33.6723 55.5594 34.2497 55.9513 34.6198C56.343 34.9898 56.8302 35.1753 57.4126 35.1753C57.9314 35.1753 58.3603 35.0483 58.6992 34.7943C59.0487 34.5404 59.2711 34.1961 59.3664 33.7626H61.7331C61.6166 34.3767 61.3678 34.9263 60.9866 35.4134C60.6054 35.9005 60.1129 36.2815 59.5093 36.5563C58.9163 36.8311 58.2545 36.969 57.5238 36.969C56.6661 36.969 55.9036 36.7894 55.2365 36.4293C54.5693 36.0593 54.0504 35.5355 53.6798 34.8579C53.3091 34.1803 53.1239 33.3816 53.1239 32.461C53.1239 31.5403 53.3091 30.7417 53.6798 30.0641C54.0504 29.3766 54.5693 28.8528 55.2365 28.4926C55.9036 28.1325 56.6661 27.9529 57.5238 27.9529C58.3921 27.9529 59.1493 28.1325 59.7953 28.4926C60.4518 28.8528 60.9548 29.3498 61.3043 29.9848C61.6642 30.6088 61.8443 31.3231 61.8443 32.1276ZM59.5888 31.9054C59.6205 31.1862 59.4299 30.6405 59.0169 30.2704C58.6145 29.9004 58.1168 29.7149 57.5238 29.7149C56.9202 29.7149 56.4119 29.9004 55.9989 30.2704C55.5859 30.6405 55.3582 31.1862 55.3159 31.9054H59.5888ZM65.9715 29.7466C66.3001 29.1861 66.7339 28.7467 67.274 28.4292C67.814 28.1008 68.4176 27.9371 69.0848 27.9371V30.334H68.4335C66.7925 30.334 65.9715 31.0959 65.9715 32.6197V36.8579H63.7318V28.0641L65.9715 28.0641V29.7466ZM78.7315 26.5402C78.0753 26.4975 77.6146 26.5928 77.3496 26.8259C77.0855 27.0591 76.9525 27.4658 76.9525 28.0482V28.0641H78.7315V29.953H76.9525V36.8579H74.7128V29.953H73.585V28.0641H74.7128V27.8577C74.7128 26.8101 75.0096 26.0055 75.6023 25.4449C76.2059 24.8735 77.0954 24.5878 78.2709 24.5878C78.4724 24.5878 78.6263 24.5928 78.7315 24.6037V26.5402ZM84.4369 27.9529C85.2947 27.9529 86.0621 28.1325 86.7402 28.4926C87.4281 28.8528 87.9682 29.3766 88.3603 30.0641C88.7515 30.7417 88.9481 31.5403 88.9481 32.461C88.9481 33.3816 88.7515 34.1803 88.3603 34.8579C87.9682 35.5355 87.4281 36.0593 86.7402 36.4293C86.0621 36.7894 85.2947 36.969 84.4369 36.969C83.5792 36.969 82.8058 36.7894 82.1178 36.4293C81.4398 36.0593 80.9047 35.5355 80.5135 34.8579C80.1214 34.1803 79.9258 33.3816 79.9258 32.461C79.9258 31.5403 80.1214 30.7417 80.5135 30.0641C80.9047 29.3766 81.4398 28.8528 82.1178 28.4926C82.8058 28.1325 83.5792 27.9529 84.4369 27.9529ZM84.4369 29.8895C83.8115 29.8895 83.2823 30.1117 82.8485 30.5562C82.4137 30.9897 82.1973 31.6247 82.1973 32.461C82.1973 33.2973 82.4137 33.9372 82.8485 34.3817C83.2823 34.8152 83.8115 35.0324 84.4369 35.0324C85.0614 35.0324 85.5905 34.8152 86.0254 34.3817C86.4592 33.9372 86.6766 33.2973 86.6766 32.461C86.6766 31.6247 86.4592 30.9897 86.0254 30.5562C85.5905 30.1117 85.0614 29.8895 84.4369 29.8895ZM93.0681 29.7466C93.3967 29.1861 93.8305 28.7467 94.3706 28.4292C94.9106 28.1008 95.5142 27.9371 96.1814 27.9371V30.334H95.5301C93.8891 30.334 93.0681 31.0959 93.0681 32.6197V36.8579H90.8284V28.0641H93.0681V29.7466ZM105.995 32.1276C105.995 32.3499 105.968 32.6038 105.915 32.8896H99.4664C99.4982 33.6723 99.7097 34.2497 100.102 34.6198C100.493 34.9898 100.98 35.1753 101.563 35.1753C102.081 35.1753 102.51 35.0483 102.85 34.7943C103.199 34.5404 103.422 34.1961 103.517 33.7626H105.884C105.767 34.3767 105.518 34.9263 105.137 35.4134C104.756 35.9005 104.263 36.2815 103.66 36.5563C103.066 36.8311 102.405 36.969 101.674 36.969C100.817 36.969 100.054 36.7894 99.387 36.4293C98.7199 36.0593 98.2007 35.5355 97.8304 34.8579C97.4591 34.1803 97.2744 33.3816 97.2744 32.461C97.2744 31.5403 97.4591 30.7417 97.8304 30.0641C98.2007 29.3766 98.7199 28.8528 99.387 28.4926C100.054 28.1325 100.817 27.9529 101.674 27.9529C102.542 27.9529 103.3 28.1325 103.946 28.4926C104.602 28.8528 105.105 29.3498 105.455 29.9848C105.814 30.6088 105.995 31.3231 105.995 32.1276ZM103.739 31.9054C103.771 31.1862 103.58 30.6405 103.167 30.2704C102.764 29.9004 102.267 29.7149 101.674 29.7149C101.071 29.7149 100.562 29.9004 100.149 30.2704C99.7365 30.6405 99.5081 31.1862 99.4664 31.9054H103.739ZM111.837 27.9529C112.97 27.9529 113.913 28.2595 114.665 28.8736C115.427 29.4877 115.904 30.323 116.094 31.3816H113.728C113.632 30.9163 113.415 30.5512 113.076 30.2863C112.738 30.0115 112.309 29.8737 111.79 29.8737C111.197 29.8737 110.699 30.0959 110.297 30.5403C109.904 30.9739 109.709 31.6147 109.709 32.461C109.709 33.3072 109.904 33.9531 110.297 34.3976C110.699 34.8311 111.197 35.0484 111.79 35.0484C112.309 35.0484 112.738 34.9164 113.076 34.6515C113.415 34.3767 113.632 34.0057 113.728 33.5404H116.094C115.904 34.5989 115.427 35.4343 114.665 36.0484C113.913 36.6625 112.97 36.969 111.837 36.969C110.98 36.969 110.217 36.7894 109.55 36.4293C108.883 36.0593 108.364 35.5355 107.993 34.8579C107.623 34.1803 107.437 33.3816 107.437 32.461C107.437 31.5403 107.623 30.7417 107.993 30.0641C108.364 29.3766 108.883 28.8528 109.55 28.4926C110.217 28.1325 110.98 27.9529 111.837 27.9529ZM121.43 27.9529C122.172 27.9529 122.807 28.1276 123.337 28.4768C123.866 28.826 124.242 29.2972 124.464 29.8895V28.0641H126.688V36.8579H124.464V35.0166C124.242 35.6088 123.866 36.0851 123.337 36.4452C122.807 36.7944 122.172 36.969 121.43 36.969C120.689 36.969 120.022 36.7894 119.429 36.4293C118.836 36.0692 118.37 35.5513 118.031 34.8737C117.703 34.1862 117.539 33.3816 117.539 32.461C117.539 31.5403 117.703 30.7417 118.031 30.0641C118.37 29.3766 118.836 28.8528 119.429 28.4926C120.022 28.1325 120.689 27.9529 121.43 27.9529ZM122.129 29.9054C121.43 29.9054 120.87 30.1326 120.446 30.5879C120.022 31.0433 119.81 31.6673 119.81 32.461C119.81 33.2546 120.022 33.8787 120.446 34.334C120.87 34.7785 121.43 35.0007 122.129 35.0007C122.807 35.0007 123.363 34.7735 123.797 34.3182C124.242 33.8529 124.464 33.2338 124.464 32.461C124.464 31.6782 124.242 31.0592 123.797 30.6038C123.363 30.1385 122.807 29.9054 122.129 29.9054ZM132.05 27.9529C133.119 27.9529 133.977 28.2228 134.623 28.7625C135.269 29.3022 135.672 30.0214 135.83 30.9213H133.734C133.648 30.4976 133.458 30.1594 133.162 29.9054C132.865 29.6514 132.479 29.5244 132.002 29.5244C131.621 29.5244 131.324 29.6147 131.113 29.7943C130.9 29.9738 130.795 30.2179 130.795 30.5245C130.795 30.7675 130.88 30.9639 131.049 31.1118C131.218 31.2596 131.431 31.3766 131.685 31.461C131.939 31.5453 132.304 31.6465 132.781 31.7626C133.448 31.9104 133.988 32.0691 134.401 32.2388C134.824 32.3975 135.184 32.6564 135.481 33.0165C135.788 33.3658 135.942 33.842 135.942 34.4451C135.942 35.1962 135.645 35.8053 135.052 36.2706C134.469 36.7359 133.68 36.969 132.685 36.969C131.542 36.969 130.625 36.715 129.937 36.2071C129.248 35.6882 128.83 34.9531 128.683 34.0007H130.827C130.88 34.4342 131.07 34.7785 131.399 35.0324C131.726 35.2755 132.155 35.3976 132.685 35.3976C133.067 35.3976 133.358 35.3073 133.559 35.1277C133.76 34.9372 133.861 34.6942 133.861 34.3976C133.861 34.1436 133.77 33.9372 133.591 33.7785C133.421 33.6197 133.204 33.4977 132.94 33.4134C132.685 33.3291 132.32 33.2279 131.844 33.1118C131.186 32.964 130.652 32.8152 130.239 32.6673C129.836 32.5086 129.487 32.2596 129.191 31.9213C128.905 31.583 128.762 31.1167 128.762 30.5245C128.762 29.7625 129.053 29.1435 129.636 28.6673C130.217 28.1911 131.023 27.9529 132.05 27.9529ZM142.609 34.9372V36.8579H141.434C140.449 36.8579 139.691 36.6198 139.162 36.1436C138.643 35.6674 138.384 34.8737 138.384 33.7626V29.953H137.161V28.0641H138.384V25.8894H140.624V28.0641H142.593V29.953H140.624V33.7943C140.624 34.218 140.708 34.5136 140.878 34.6832C141.048 34.8529 141.333 34.9372 141.735 34.9372H142.609Z" fill="#363B64"/>
</svg>
