<svg width="117" height="12" viewBox="0 0 117 12" fill="none" xmlns="http://www.w3.org/2000/svg">
<path d="M9.51304 11.7639H7.27L2.24304 4.13326L2.24304 11.7639H0L0 0.540509L2.24304 0.540509L7.27 8.23472V0.540509H9.51304V11.7639ZM20.1291 7.02653C20.1291 7.24909 20.1026 7.50345 20.0496 7.7896L13.5909 7.7896C13.6227 8.57353 13.8348 9.15178 14.2272 9.52238C14.6195 9.89298 15.1074 10.0788 15.6907 10.0788C16.2103 10.0788 16.6399 9.95163 16.9793 9.69727C17.3293 9.44292 17.552 9.09814 17.6474 8.66395H20.0177C19.901 9.27897 19.6519 9.82941 19.2701 10.3173C18.8883 10.8051 18.3951 11.1866 17.7906 11.4619C17.1966 11.7371 16.5339 11.8752 15.8021 11.8752C14.9431 11.8752 14.1795 11.6953 13.5113 11.3347C12.8432 10.9641 12.3235 10.4395 11.9523 9.76086C11.5811 9.08225 11.3956 8.28241 11.3956 7.36037C11.3956 6.43834 11.5811 5.63853 11.9523 4.95992C12.3235 4.27137 12.8432 3.74675 13.5113 3.38608C14.1795 3.02542 14.9431 2.84557 15.8021 2.84557C16.6717 2.84557 17.43 3.02542 18.077 3.38608C18.7345 3.74675 19.2382 4.24453 19.5882 4.88041C19.9487 5.50537 20.1291 6.22074 20.1291 7.02653ZM17.8702 6.80397C17.902 6.08363 17.7111 5.53716 17.2975 5.16656C16.8944 4.79595 16.396 4.61016 15.8021 4.61016C15.1976 4.61016 14.6885 4.79595 14.2749 5.16656C13.8613 5.53716 13.6332 6.08363 13.5909 6.80397L17.8702 6.80397ZM34.6348 2.95685L32.2645 11.7639L29.7828 11.7639L27.8898 5.35734L25.949 11.7639H23.4673L21.1129 2.95685H23.356L24.7877 9.76086L26.7444 2.95685H29.1147L31.0873 9.76086L32.5349 2.95685H34.6348ZM39.0896 2.84557C40.1607 2.84557 41.0197 3.11583 41.6667 3.65634C42.3135 4.19684 42.7166 4.91718 42.8757 5.81835H40.7758C40.6909 5.39409 40.5 5.05529 40.2031 4.80094C39.9061 4.54659 39.5191 4.41941 39.0418 4.41941C38.66 4.41941 38.3631 4.50982 38.151 4.68966C37.9388 4.8695 37.8328 5.11391 37.8328 5.42092C37.8328 5.66435 37.9176 5.86109 38.0873 6.00913C38.257 6.15717 38.4691 6.2744 38.7237 6.35885C38.9782 6.44331 39.3441 6.54467 39.8213 6.66092C40.4895 6.80896 41.0303 6.96791 41.444 7.13781C41.8681 7.29678 42.2287 7.5561 42.5257 7.91677C42.8332 8.26651 42.987 8.74342 42.987 9.34751C42.987 10.0996 42.6901 10.7097 42.0962 11.1757C41.5129 11.6417 40.7227 11.8752 39.7259 11.8752C38.5805 11.8752 37.6631 11.6208 36.9738 11.1121C36.2844 10.5925 35.8655 9.85623 35.717 8.9024H37.8646C37.9176 9.33659 38.1085 9.68137 38.4373 9.93572C38.766 10.1791 39.1955 10.3014 39.7259 10.3014C40.1077 10.3014 40.3993 10.2109 40.6008 10.0311C40.8023 9.84034 40.9031 9.5969 40.9031 9.29982C40.9031 9.04546 40.8129 8.83881 40.6326 8.67984C40.4629 8.52087 40.2455 8.39868 39.9804 8.31422C39.7259 8.22977 39.36 8.12841 38.8828 8.01216C38.2251 7.86412 37.6896 7.71508 37.276 7.56704C36.873 7.40807 36.523 7.15867 36.2261 6.81986C35.9398 6.48105 35.7966 6.01408 35.7966 5.42092C35.7966 4.65786 36.0882 4.03786 36.6715 3.56095C37.2548 3.08403 38.0608 2.84557 39.0896 2.84557ZM61.3336 2.95685L58.9633 11.7639H56.4817L54.5886 5.35734L52.6478 11.7639H50.1662L47.8118 2.95685H50.0548L51.4865 9.76086L53.4432 2.95685H55.8135L57.7861 9.76086L59.2338 2.95685H61.3336ZM71.0381 7.02653C71.0381 7.24909 71.0115 7.50345 70.9585 7.7896H64.4998C64.5317 8.57353 64.7437 9.15178 65.1362 9.52238C65.5286 9.89298 66.0164 10.0788 66.5997 10.0788C67.1194 10.0788 67.5489 9.95163 67.8883 9.69727C68.2382 9.44292 68.461 9.09814 68.5564 8.66395H70.9267C70.8101 9.27897 70.5608 9.82941 70.179 10.3173C69.7972 10.8051 69.3041 11.1866 68.6996 11.4619C68.1057 11.7371 67.4428 11.8752 66.7111 11.8752C65.852 11.8752 65.0884 11.6953 64.4203 11.3347C63.7522 10.9641 63.2325 10.4395 62.8613 9.76086C62.4902 9.08225 62.3045 8.28241 62.3045 7.36037C62.3045 6.43834 62.4902 5.63853 62.8613 4.95992C63.2325 4.27137 63.7522 3.74675 64.4203 3.38608C65.0884 3.02542 65.852 2.84557 66.7111 2.84557C67.5807 2.84557 68.339 3.02542 68.9859 3.38608C69.6434 3.74675 70.1472 4.24453 70.4972 4.88041C70.8578 5.50537 71.0381 6.22074 71.0381 7.02653ZM68.7791 6.80397C68.8109 6.08363 68.62 5.53716 68.2064 5.16656C67.8035 4.79595 67.3049 4.61016 66.7111 4.61016C66.1066 4.61016 65.5975 4.79595 65.1839 5.16656C64.7703 5.53716 64.5423 6.08363 64.4998 6.80397H68.7791ZM76.3807 2.84557C77.1234 2.84557 77.7597 3.02046 78.2897 3.37019C78.8196 3.71993 79.1964 4.19189 79.4191 4.78505V2.95685H81.6463V11.7639H79.4191V9.91983C79.1964 10.513 78.8196 10.9899 78.2897 11.3506C77.7597 11.7003 77.1234 11.8752 76.3807 11.8752C75.638 11.8752 74.9699 11.6953 74.3763 11.3347C73.7824 10.974 73.3157 10.4554 72.9764 9.77674C72.6476 9.0882 72.4832 8.28241 72.4832 7.36037C72.4832 6.43834 72.6476 5.63853 72.9764 4.95992C73.3157 4.27137 73.7824 3.74675 74.3763 3.38608C74.9699 3.02542 75.638 2.84557 76.3807 2.84557ZM77.0807 4.80094C76.3807 4.80094 75.8189 5.02846 75.3944 5.48451C74.9698 5.94056 74.7581 6.56551 74.7581 7.36037C74.7581 8.15523 74.9698 8.78019 75.3944 9.23624C75.8189 9.68135 76.3807 9.90391 77.0807 9.90391C77.7597 9.90391 78.3165 9.6764 78.751 9.22035C79.1964 8.75436 79.4191 8.13436 79.4191 7.36037C79.4191 6.57644 79.1964 5.95647 78.751 5.50042C78.3165 5.03444 77.7597 4.80094 77.0807 4.80094ZM88.6866 9.84033V11.7639H87.5094C86.5231 11.7639 85.7645 11.5254 85.2345 11.0485C84.7146 10.5716 84.4551 9.77675 84.4551 8.66395V4.84864H83.2301V2.95685H84.4551V0.778957L86.6981 0.778957V2.95685L88.6707 2.95685V4.84864H86.6981V8.69573C86.6981 9.11998 86.7826 9.41609 86.9526 9.58599C87.1216 9.75589 87.408 9.84033 87.8117 9.84033H88.6866ZM95.8482 2.82968C96.8663 2.82968 97.6777 3.16352 98.2822 3.8312C98.8867 4.49888 99.1889 5.43681 99.1889 6.645V11.7639H96.9618V6.89936C96.9618 6.19989 96.7818 5.65937 96.4209 5.27784C96.06 4.88537 95.5669 4.68966 94.9415 4.68966C94.3051 4.68966 93.7961 4.89632 93.4143 5.30964C93.0325 5.72297 92.8416 6.31612 92.8416 7.09012V11.7639H90.5986V0L92.8416 0V4.72144C93.0752 4.12828 93.457 3.66726 93.987 3.33839C94.5279 2.99958 95.1483 2.82968 95.8482 2.82968ZM109.749 7.02653C109.749 7.24909 109.722 7.50345 109.669 7.7896H103.211C103.242 8.57353 103.454 9.15178 103.847 9.52238C104.24 9.89298 104.727 10.0788 105.311 10.0788C105.831 10.0788 106.26 9.95163 106.599 9.69727C106.949 9.44292 107.172 9.09814 107.267 8.66395H109.638C109.521 9.27897 109.272 9.82941 108.89 10.3173C108.508 10.8051 108.015 11.1866 107.41 11.4619C106.817 11.7371 106.154 11.8752 105.422 11.8752C104.563 11.8752 103.799 11.6953 103.131 11.3347C102.463 10.9641 101.943 10.4395 101.572 9.76086C101.201 9.08225 101.015 8.28241 101.015 7.36037C101.015 6.43834 101.201 5.63853 101.572 4.95992C101.943 4.27137 102.463 3.74675 103.131 3.38608C103.799 3.02542 104.563 2.84557 105.422 2.84557C106.292 2.84557 107.05 3.02542 107.697 3.38608C108.354 3.74675 108.858 4.24453 109.208 4.88041C109.569 5.50537 109.749 6.22074 109.749 7.02653ZM107.49 6.80397C107.522 6.08363 107.331 5.53716 106.917 5.16656C106.515 4.79595 106.015 4.61016 105.422 4.61016C104.817 4.61016 104.308 4.79595 103.895 5.16656C103.481 5.53716 103.253 6.08363 103.211 6.80397H107.49ZM113.882 4.64197C114.211 4.0806 114.646 3.64044 115.187 3.3225C115.727 2.99363 116.332 2.82968 117 2.82968V5.23017H116.348C114.704 5.23017 113.882 5.99322 113.882 7.51935V11.7639H111.639V2.95685H113.882V4.64197Z" fill="#363B64"/>
</svg>
