<svg width="22" height="11" viewBox="0 0 22 11" fill="none" xmlns="http://www.w3.org/2000/svg">
<path d="M0 9.45064C1.63172 8.35742 2.93647 7.27344 3.9153 6.19974C4.89413 5.11576 5.38355 4.10884 5.38355 3.17898C5.38355 2.6036 5.23447 2.1433 4.93733 1.79807C4.64944 1.44359 4.17955 1.26583 3.52665 1.26583C2.85525 1.26583 2.34629 1.48161 2.00082 1.91314C1.65536 2.33543 1.46309 2.92007 1.42505 3.66807H0.129558C0.19639 2.53682 0.547003 1.66856 1.18036 1.0644C1.81372 0.451007 2.62904 0.143798 3.62741 0.143798C4.57745 0.143798 5.33113 0.397587 5.88738 0.906183C6.44363 1.41478 6.72224 2.13404 6.72224 3.0639C6.72224 3.83142 6.4724 4.61228 5.97373 5.40857C5.48432 6.19458 4.86535 6.92822 4.11684 7.60943C3.37757 8.28037 2.61465 8.85159 1.82809 9.32114H6.98136V10.4H0L0 9.45064ZM8.58429 2.70425C8.58429 2.20593 8.71898 1.74978 8.98733 1.33776C9.25671 0.92575 9.65461 0.598988 10.1821 0.359589C10.7105 0.120189 11.3388 0 12.0678 0C12.7978 0 13.4209 0.120189 13.9391 0.359589C14.4675 0.598988 14.8654 0.92575 15.1338 1.33776C15.4032 1.74978 15.5368 2.20593 15.5368 2.70425C15.5368 3.27039 15.3836 3.7595 15.0762 4.17152C14.7698 4.58353 14.3041 4.87636 13.6799 5.04898C14.3524 5.23084 14.8747 5.54725 15.249 5.99831C15.6232 6.44936 15.8103 7.00525 15.8103 7.66694C15.8103 8.62556 15.47 9.3787 14.7883 9.92531C14.1077 10.4719 13.2008 10.7453 12.0678 10.7453C10.9357 10.7453 10.0289 10.4719 9.3472 9.92531C8.66654 9.3787 8.32517 8.62556 8.32517 7.66694C8.32517 7.00525 8.5082 6.44936 8.87217 5.99831C9.24643 5.54725 9.76978 5.23084 10.4412 5.04898C9.8181 4.87636 9.35233 4.58353 9.04491 4.17152C8.73851 3.7595 8.58429 3.27039 8.58429 2.70425ZM9.8798 2.89126C9.8798 3.46664 10.0772 3.91256 10.47 4.22902C10.8637 4.53624 11.3964 4.68933 12.0678 4.68933C12.7402 4.68933 13.2677 4.53624 13.6512 4.22902C14.045 3.91256 14.2414 3.46664 14.2414 2.89126C14.2414 2.31588 14.045 1.87513 13.6512 1.56792C13.2584 1.25146 12.7299 1.09319 12.0678 1.09319C11.4056 1.09319 10.873 1.25146 10.47 1.56792C10.0772 1.87513 9.8798 2.31588 9.8798 2.89126ZM9.60628 7.59501C9.60628 8.24745 9.82736 8.75503 10.2684 9.11978C10.7106 9.47425 11.31 9.65201 12.0678 9.65201C12.8163 9.65201 13.4116 9.47017 13.8527 9.10542C14.2948 8.74067 14.5148 8.23717 14.5148 7.59501C14.5148 6.94256 14.2845 6.44936 13.8239 6.11338C13.3633 5.7774 12.7782 5.60993 12.0678 5.60993C11.348 5.60993 10.7578 5.7774 10.2972 6.11338C9.83659 6.44936 9.60628 6.94256 9.60628 7.59501ZM19.4809 0.388373C20.249 0.388373 20.8587 0.618523 21.3091 1.07883C21.7697 1.53913 22 2.15252 22 2.92004C22 3.68756 21.7748 4.30606 21.3234 4.77562C20.8731 5.23592 20.2685 5.46613 19.5097 5.46613C18.7427 5.46613 18.1238 5.23592 17.6529 4.77562C17.1922 4.30606 16.9619 3.68756 16.9619 2.92004C16.9619 2.15252 17.1922 1.53913 17.6529 1.07883C18.1135 0.618523 18.7232 0.388373 19.4809 0.388373ZM19.4953 1.15076C19.0543 1.15076 18.6944 1.30896 18.4158 1.62542C18.1382 1.93264 17.9983 2.36827 17.9983 2.9344C17.9983 3.49026 18.1382 3.92699 18.4158 4.24345C18.6944 4.55066 19.0594 4.70375 19.5097 4.70375C19.9416 4.70375 20.287 4.55066 20.5461 4.24345C20.8155 3.92699 20.9492 3.49026 20.9492 2.9344C20.9492 2.36827 20.8155 1.93264 20.5461 1.62542C20.2778 1.30896 19.9272 1.15076 19.4953 1.15076Z" fill="#363B64"/>
</svg>
