<svg width="143" height="119" viewBox="0 0 143 119" fill="none" xmlns="http://www.w3.org/2000/svg">
<path opacity="0.2" d="M3.88744 82.2133C-4.91545 61.8588 1.62057 31.6043 19.5602 15.1545C37.3569 -1.21286 66.5271 -3.66277 88.9497 4.64013C111.403 12.8303 127.221 31.8036 131.889 52.2579C136.557 72.7123 130.075 94.6478 116.425 106.812C102.776 118.976 81.8747 121.226 59.297 117.109C36.8321 113.022 12.6903 102.568 3.88744 82.2133Z" fill="#75A3F6"/>
<circle opacity="0.5" cx="21.9429" cy="114.631" r="4.05153" fill="#75A3F6"/>
<circle opacity="0.5" cx="134.035" cy="22.3462" r="8.10306" fill="#75A3F6"/>
<circle opacity="0.5" cx="6.63712" cy="11.0917" r="3.15119" fill="#75A3F6"/>
<path d="M19.3895 76.4972C12.693 61.1369 17.6135 38.3279 31.1946 25.9426C44.6675 13.6194 66.7781 11.8049 83.7858 18.092C100.816 24.2942 112.829 38.6208 116.392 54.0518C119.954 69.4827 115.065 86.018 104.731 95.1762C94.3968 104.334 78.5548 106.008 61.4343 102.877C44.3994 99.7692 26.086 91.8576 19.3895 76.4972Z" fill="#75A3F6"/>
<g clip-path="url(#clip0_53_6946)">
<path d="M60.2165 80.8683C56.9568 80.8662 53.8079 79.6852 51.3508 77.5432C48.8937 75.4012 47.2942 72.4428 46.8475 69.2139C46.4008 65.985 47.137 62.7034 48.9203 59.9748C50.7036 57.2462 53.4136 55.2546 56.5503 54.3677C58.8302 53.7148 61.2434 53.6849 63.5388 54.2812L77.7785 40.045C78.5345 39.2839 79.434 38.6804 80.425 38.2696C81.416 37.8588 82.4787 37.6488 83.5515 37.6519C85.2398 37.6534 86.8585 38.3247 88.0522 39.5184C89.246 40.7122 89.9173 42.3309 89.9187 44.0191C89.9215 45.092 89.7116 46.1547 89.3012 47.1459C88.8907 48.1371 88.2878 49.0371 87.5274 49.7939L86.3174 51.004C85.6403 51.6764 84.7255 52.0549 83.7712 52.0574H80.9153V53.8581C80.9153 54.8132 80.5359 55.7292 79.8605 56.4046C79.1851 57.08 78.2691 57.4594 77.314 57.4594H75.5133V60.3153C75.5146 60.7884 75.422 61.2571 75.2408 61.6941C75.0597 62.1312 74.7936 62.528 74.4581 62.8615L73.2876 64.0319C73.8872 66.3261 73.858 68.7395 73.203 71.0185C72.466 73.6151 70.9707 75.9326 68.9086 77.6742C66.8465 79.4158 64.3115 80.5023 61.6282 80.7944C61.1592 80.8432 60.688 80.8678 60.2165 80.8683ZM60.2165 57.4594C58.3729 57.4576 56.5654 57.9705 54.9974 58.9403C53.4294 59.9101 52.1633 61.2982 51.3415 62.9486C50.5197 64.5989 50.1749 66.4459 50.3459 68.2816C50.5168 70.1173 51.1968 71.8688 52.3092 73.339C53.4216 74.8092 54.9224 75.9397 56.6424 76.6032C58.3625 77.2668 60.2337 77.437 62.0453 77.0948C63.8568 76.7526 65.5369 75.9115 66.8964 74.6662C68.2559 73.4209 69.2408 71.8209 69.7403 70.0462C70.3021 68.0952 70.2391 66.0173 69.5602 64.1039C69.4494 63.7844 69.4309 63.4401 69.5067 63.1105C69.5825 62.7809 69.7495 62.4793 69.9888 62.2402L71.9119 60.3153V57.4594C71.9119 56.5043 72.2913 55.5883 72.9667 54.9129C73.6421 54.2375 74.5581 53.8581 75.5133 53.8581H77.314V52.0574C77.314 51.1022 77.6934 50.1862 78.3688 49.5108C79.0442 48.8354 79.9602 48.456 80.9153 48.456H83.7712L84.9813 47.246C85.4061 46.8231 85.743 46.3202 85.9723 45.7663C86.2017 45.2124 86.3189 44.6186 86.3174 44.0191C86.3169 43.2861 86.0256 42.5831 85.5074 42.0646C84.9892 41.546 84.2864 41.2543 83.5533 41.2533C82.9534 41.2518 82.3592 41.3693 81.805 41.599C81.2509 41.8286 80.7477 42.1659 80.3247 42.5912L65.3232 57.5909C65.0838 57.8301 64.7818 57.9971 64.4519 58.0726C64.1219 58.1481 63.7774 58.129 63.4577 58.0176C62.4135 57.65 61.3146 57.4612 60.2075 57.4594H60.2165ZM55.7058 70.0642C55.7058 70.4203 55.8114 70.7685 56.0093 71.0646C56.2071 71.3607 56.4884 71.5915 56.8174 71.7278C57.1464 71.8641 57.5085 71.8997 57.8578 71.8303C58.2071 71.7608 58.5279 71.5893 58.7798 71.3375C59.0316 71.0856 59.2031 70.7648 59.2726 70.4155C59.342 70.0662 59.3064 69.7041 59.1701 69.3751C59.0338 69.0461 58.803 68.7648 58.5069 68.567C58.2108 68.3691 57.8626 68.2635 57.5065 68.2635C57.0289 68.2635 56.5709 68.4532 56.2332 68.7909C55.8955 69.1286 55.7058 69.5866 55.7058 70.0642Z" fill="white"/>
</g>
<defs>
<clipPath id="clip0_53_6946">
<rect width="43.2" height="43.2" fill="white" transform="translate(46.7024 37.6519) scale(1.00038)"/>
</clipPath>
</defs>
</svg>
