<svg width="112" height="35" viewBox="0 0 112 35" fill="none" xmlns="http://www.w3.org/2000/svg">
<g filter="url(#filter0_d_53_4874)">
<rect width="112" height="34.8679" rx="10" fill="white"/>
</g>
<circle cx="17.4338" cy="17.434" r="8.45283" fill="#6F9DF5"/>
<mask id="mask0_53_4874" style="mask-type:luminance" maskUnits="userSpaceOnUse" x="14" y="13" width="8" height="7">
<path fill-rule="evenodd" clip-rule="evenodd" d="M14.0286 13.0266H21.2216V19.6194H14.0286V13.0266Z" fill="white"/>
</mask>
<g mask="url(#mask0_53_4874)">
<path fill-rule="evenodd" clip-rule="evenodd" d="M17.6244 13.5967C16.2653 13.5967 15.318 14.6372 15.318 15.571C15.318 16.3611 15.0936 16.7263 14.8953 17.0486C14.7363 17.3074 14.6107 17.5118 14.6107 17.9561C14.6756 18.6728 15.1597 19.0494 17.6244 19.0494C20.0755 19.0494 20.5748 18.6561 20.6393 17.9314C20.6382 17.5118 20.5126 17.3074 20.3535 17.0486C20.1552 16.7263 19.9308 16.3611 19.9308 15.571C19.9308 14.6372 18.9835 13.5967 17.6244 13.5967ZM17.6245 19.6194C15.8062 19.6194 14.1628 19.494 14.0286 17.9803C14.0275 17.354 14.2231 17.0356 14.3957 16.7551C14.5703 16.4708 14.7348 16.2029 14.7348 15.5709C14.7348 14.3423 15.896 13.0266 17.6245 13.0266C19.3531 13.0266 20.5142 14.3423 20.5142 15.5709C20.5142 16.2029 20.6787 16.4708 20.8533 16.7551C21.026 17.0356 21.2216 17.354 21.2216 17.956C21.0859 19.494 19.4429 19.6194 17.6245 19.6194Z" fill="white"/>
</g>
<path fill-rule="evenodd" clip-rule="evenodd" d="M17.6058 21.1976H17.605C17.1691 21.1972 16.7565 21.0094 16.4434 20.6685C16.3357 20.5519 16.3454 20.3714 16.4652 20.2665C16.585 20.1608 16.7693 20.1703 16.877 20.2877C17.0785 20.507 17.3371 20.6275 17.6054 20.6275H17.6058C17.8753 20.6275 18.135 20.507 18.3368 20.2874C18.445 20.1707 18.6293 20.1612 18.7487 20.2665C18.8684 20.3717 18.8782 20.5523 18.7704 20.6689C18.4562 21.0098 18.0429 21.1976 17.6058 21.1976Z" fill="white"/>
<rect x="32.2266" y="12.1508" width="69.7358" height="2.11321" rx="1.05445" fill="#6F9DF5"/>
<rect x="32.2266" y="18.4904" width="34.8679" height="2.11321" rx="1.05445" fill="#90C0FC"/>
<defs>
<filter id="filter0_d_53_4874" x="-20.0409" y="-14.0286" width="152.082" height="74.9498" filterUnits="userSpaceOnUse" color-interpolation-filters="sRGB">
<feFlood flood-opacity="0" result="BackgroundImageFix"/>
<feColorMatrix in="SourceAlpha" type="matrix" values="0 0 0 0 0 0 0 0 0 0 0 0 0 0 0 0 0 0 127 0" result="hardAlpha"/>
<feOffset dy="6"/>
<feGaussianBlur stdDeviation="10"/>
<feComposite in2="hardAlpha" operator="out"/>
<feColorMatrix type="matrix" values="0 0 0 0 0.854025 0 0 0 0 0.903347 0 0 0 0 0.965 0 0 0 1 0"/>
<feBlend mode="normal" in2="BackgroundImageFix" result="effect1_dropShadow_53_4874"/>
<feBlend mode="normal" in="SourceGraphic" in2="effect1_dropShadow_53_4874" result="shape"/>
</filter>
</defs>
</svg>
