<svg width="26" height="26" viewBox="0 0 26 26" fill="none" xmlns="http://www.w3.org/2000/svg">
<path d="M24.05 13C24.05 18.5155 20.009 23.087 14.7266 23.9157V16.1941H17.3013L17.7912 13H14.7266V10.9272C14.7266 10.0531 15.1548 9.20151 16.5274 9.20151H17.9207V6.48218C17.9207 6.48218 16.656 6.26636 15.447 6.26636C12.9232 6.26636 11.2735 7.79609 11.2735 10.5655V13H8.46779V16.1941H11.2735V23.9157C5.99103 23.087 1.95001 18.5155 1.95001 13C1.95001 6.89742 6.89748 1.94995 13 1.94995C19.1025 1.94995 24.05 6.89742 24.05 13Z" fill="#1877F2"/>
<path d="M17.3013 16.1941L17.7912 13H14.7266V10.9272C14.7266 10.0533 15.1547 9.20151 16.5273 9.20151H17.9207V6.48218C17.9207 6.48218 16.6562 6.26636 15.4472 6.26636C12.9231 6.26636 11.2734 7.79609 11.2734 10.5655V13H8.46777V16.1941H11.2734V23.9157C11.836 24.0039 12.4126 24.05 13 24.05C13.5874 24.05 14.164 24.0039 14.7266 23.9157V16.1941H17.3013Z" fill="white"/>
</svg>
