<svg width="148" height="117" viewBox="0 0 148 117" fill="none" xmlns="http://www.w3.org/2000/svg">
<path opacity="0.2" d="M127.881 19.7861C141.647 37.1621 143.164 68.0657 130.098 88.5904C117.149 108.998 89.6168 118.911 65.8182 116.695C42.0196 114.596 21.8374 100.369 12.038 81.8266C2.23859 63.2844 2.82189 40.4274 12.8546 25.1505C22.8874 9.87363 42.4862 2.2935 65.3516 0.427627C88.1002 -1.43825 114.115 2.41012 127.881 19.7861Z" fill="#6F9DF5"/>
<circle opacity="0.5" cx="143.05" cy="86.8501" r="4.05" fill="#6F9DF5"/>
<circle opacity="0.5" cx="8.1" cy="103.5" r="8.1" fill="#6F9DF5"/>
<circle opacity="0.5" cx="10.35" cy="11.2501" r="3.15" fill="#6F9DF5"/>
<path d="M114.392 29.3156C124.832 42.4144 125.982 65.711 116.073 81.1834C106.252 96.5679 85.3724 104.04 67.3238 102.37C49.2752 100.788 33.9693 90.0625 26.5375 76.0845C19.1057 62.1066 19.5481 44.8759 27.1568 33.3595C34.7655 21.8431 49.6291 16.1289 66.9699 14.7223C84.2223 13.3157 103.952 16.2168 114.392 29.3156Z" fill="#6F9DF5"/>
<path fill-rule="evenodd" clip-rule="evenodd" d="M91.3999 58.4999C91.3999 68.9381 82.9381 77.3999 72.4999 77.3999C62.0617 77.3999 53.5999 68.9381 53.5999 58.4999C53.5999 48.0617 62.0617 39.5999 72.4999 39.5999C82.9381 39.5999 91.3999 48.0617 91.3999 58.4999ZM94.0999 58.4999C94.0999 70.4293 84.4293 80.0999 72.4999 80.0999C60.5706 80.0999 50.8999 70.4293 50.8999 58.4999C50.8999 46.5706 60.5706 36.8999 72.4999 36.8999C84.4293 36.8999 94.0999 46.5706 94.0999 58.4999ZM82.8876 53.1711C83.424 52.6532 83.439 51.7985 82.9211 51.2622C82.4032 50.7258 81.5486 50.7108 81.0122 51.2287L68.9165 62.9073L64.4545 58.4453C63.9273 57.9181 63.0725 57.9181 62.5453 58.4453C62.0181 58.9725 62.0181 59.8273 62.5453 60.3545L67.32 65.1291C68.1878 65.9969 69.5909 66.0093 70.4738 65.1568L82.8876 53.1711Z" fill="white"/>
</svg>
